%TF.GenerationSoftware,KiCad,Pcbnew,6.0.5-a6ca702e91~116~ubuntu20.04.1*%
%TF.CreationDate,2022-06-07T16:18:29-07:00*%
%TF.ProjectId,esp8266-dongle,65737038-3236-4362-9d64-6f6e676c652e,rev?*%
%TF.SameCoordinates,Original*%
%TF.FileFunction,Soldermask,Top*%
%TF.FilePolarity,Negative*%
%FSLAX46Y46*%
G04 Gerber Fmt 4.6, Leading zero omitted, Abs format (unit mm)*
G04 Created by KiCad (PCBNEW 6.0.5-a6ca702e91~116~ubuntu20.04.1) date 2022-06-07 16:18:29*
%MOMM*%
%LPD*%
G01*
G04 APERTURE LIST*
G04 Aperture macros list*
%AMRoundRect*
0 Rectangle with rounded corners*
0 $1 Rounding radius*
0 $2 $3 $4 $5 $6 $7 $8 $9 X,Y pos of 4 corners*
0 Add a 4 corners polygon primitive as box body*
4,1,4,$2,$3,$4,$5,$6,$7,$8,$9,$2,$3,0*
0 Add four circle primitives for the rounded corners*
1,1,$1+$1,$2,$3*
1,1,$1+$1,$4,$5*
1,1,$1+$1,$6,$7*
1,1,$1+$1,$8,$9*
0 Add four rect primitives between the rounded corners*
20,1,$1+$1,$2,$3,$4,$5,0*
20,1,$1+$1,$4,$5,$6,$7,0*
20,1,$1+$1,$6,$7,$8,$9,0*
20,1,$1+$1,$8,$9,$2,$3,0*%
G04 Aperture macros list end*
%ADD10RoundRect,0.135000X0.185000X-0.135000X0.185000X0.135000X-0.185000X0.135000X-0.185000X-0.135000X0*%
%ADD11RoundRect,0.135000X-0.185000X0.135000X-0.185000X-0.135000X0.185000X-0.135000X0.185000X0.135000X0*%
%ADD12RoundRect,0.135000X-0.135000X-0.185000X0.135000X-0.185000X0.135000X0.185000X-0.135000X0.185000X0*%
%ADD13R,2.500000X1.100000*%
%ADD14R,1.100000X2.500000*%
%ADD15R,1.800000X3.600000*%
%ADD16O,1.800000X3.600000*%
%ADD17RoundRect,0.140000X-0.170000X0.140000X-0.170000X-0.140000X0.170000X-0.140000X0.170000X0.140000X0*%
%ADD18RoundRect,0.135000X0.135000X0.185000X-0.135000X0.185000X-0.135000X-0.185000X0.135000X-0.185000X0*%
G04 APERTURE END LIST*
D10*
%TO.C,R2*%
X122555000Y-98300000D03*
X122555000Y-97280000D03*
%TD*%
D11*
%TO.C,R1*%
X123825000Y-97280000D03*
X123825000Y-98300000D03*
%TD*%
D12*
%TO.C,R4*%
X117600000Y-97790000D03*
X118620000Y-97790000D03*
%TD*%
D13*
%TO.C,U1*%
X108090000Y-79060000D03*
X108090000Y-81060000D03*
X108090000Y-83060000D03*
X108090000Y-85060000D03*
X108090000Y-87060000D03*
X108090000Y-89060000D03*
X108090000Y-91060000D03*
X108090000Y-93060000D03*
X123490000Y-93060000D03*
X123490000Y-91060000D03*
X123490000Y-89060000D03*
X123490000Y-87060000D03*
X123490000Y-85060000D03*
X123490000Y-83060000D03*
X123490000Y-81060000D03*
X123490000Y-79060000D03*
D14*
X110780000Y-94760000D03*
X112780000Y-94760000D03*
X114780000Y-94760000D03*
X116780000Y-94760000D03*
X118780000Y-94760000D03*
X120780000Y-94760000D03*
%TD*%
D15*
%TO.C,J1*%
X120005000Y-101970000D03*
D16*
X117465000Y-101970000D03*
X114925000Y-101970000D03*
X112385000Y-101970000D03*
%TD*%
D17*
%TO.C,C1*%
X107215000Y-96195000D03*
X107215000Y-97155000D03*
%TD*%
D10*
%TO.C,R5*%
X111125000Y-98300000D03*
X111125000Y-97280000D03*
%TD*%
D17*
%TO.C,C2*%
X108485000Y-96195000D03*
X108485000Y-97155000D03*
%TD*%
D18*
%TO.C,R3*%
X116080000Y-97790000D03*
X115060000Y-97790000D03*
%TD*%
D10*
%TO.C,R6*%
X109855000Y-98300000D03*
X109855000Y-97280000D03*
%TD*%
M02*
