G04 #@! TF.GenerationSoftware,KiCad,Pcbnew,6.0.10-86aedd382b~118~ubuntu22.04.1*
G04 #@! TF.CreationDate,2023-01-28T15:28:02-08:00*
G04 #@! TF.ProjectId,esp8266-dongle,65737038-3236-4362-9d64-6f6e676c652e,rev?*
G04 #@! TF.SameCoordinates,Original*
G04 #@! TF.FileFunction,Copper,L1,Top*
G04 #@! TF.FilePolarity,Positive*
%FSLAX46Y46*%
G04 Gerber Fmt 4.6, Leading zero omitted, Abs format (unit mm)*
G04 Created by KiCad (PCBNEW 6.0.10-86aedd382b~118~ubuntu22.04.1) date 2023-01-28 15:28:02*
%MOMM*%
%LPD*%
G01*
G04 APERTURE LIST*
G04 Aperture macros list*
%AMRoundRect*
0 Rectangle with rounded corners*
0 $1 Rounding radius*
0 $2 $3 $4 $5 $6 $7 $8 $9 X,Y pos of 4 corners*
0 Add a 4 corners polygon primitive as box body*
4,1,4,$2,$3,$4,$5,$6,$7,$8,$9,$2,$3,0*
0 Add four circle primitives for the rounded corners*
1,1,$1+$1,$2,$3*
1,1,$1+$1,$4,$5*
1,1,$1+$1,$6,$7*
1,1,$1+$1,$8,$9*
0 Add four rect primitives between the rounded corners*
20,1,$1+$1,$2,$3,$4,$5,0*
20,1,$1+$1,$4,$5,$6,$7,0*
20,1,$1+$1,$6,$7,$8,$9,0*
20,1,$1+$1,$8,$9,$2,$3,0*%
G04 Aperture macros list end*
G04 #@! TA.AperFunction,SMDPad,CuDef*
%ADD10RoundRect,0.135000X0.185000X-0.135000X0.185000X0.135000X-0.185000X0.135000X-0.185000X-0.135000X0*%
G04 #@! TD*
G04 #@! TA.AperFunction,SMDPad,CuDef*
%ADD11RoundRect,0.135000X-0.185000X0.135000X-0.185000X-0.135000X0.185000X-0.135000X0.185000X0.135000X0*%
G04 #@! TD*
G04 #@! TA.AperFunction,SMDPad,CuDef*
%ADD12R,2.500000X1.100000*%
G04 #@! TD*
G04 #@! TA.AperFunction,SMDPad,CuDef*
%ADD13R,1.100000X2.500000*%
G04 #@! TD*
G04 #@! TA.AperFunction,ComponentPad*
%ADD14R,1.800000X3.600000*%
G04 #@! TD*
G04 #@! TA.AperFunction,ComponentPad*
%ADD15O,1.800000X3.600000*%
G04 #@! TD*
G04 #@! TA.AperFunction,SMDPad,CuDef*
%ADD16RoundRect,0.140000X-0.170000X0.140000X-0.170000X-0.140000X0.170000X-0.140000X0.170000X0.140000X0*%
G04 #@! TD*
G04 #@! TA.AperFunction,SMDPad,CuDef*
%ADD17RoundRect,0.135000X-0.135000X-0.185000X0.135000X-0.185000X0.135000X0.185000X-0.135000X0.185000X0*%
G04 #@! TD*
G04 #@! TA.AperFunction,ViaPad*
%ADD18C,0.800000*%
G04 #@! TD*
G04 #@! TA.AperFunction,Conductor*
%ADD19C,0.500000*%
G04 #@! TD*
G04 #@! TA.AperFunction,Conductor*
%ADD20C,0.250000*%
G04 #@! TD*
G04 #@! TA.AperFunction,Conductor*
%ADD21C,1.000000*%
G04 #@! TD*
G04 APERTURE END LIST*
D10*
G04 #@! TO.P,R2,1*
G04 #@! TO.N,+3V3*
X122555000Y-98300000D03*
G04 #@! TO.P,R2,2*
G04 #@! TO.N,/GPIO2*
X122555000Y-97280000D03*
G04 #@! TD*
D11*
G04 #@! TO.P,R1,1*
G04 #@! TO.N,/ROUTER_RX*
X123825000Y-97280000D03*
G04 #@! TO.P,R1,2*
G04 #@! TO.N,GND*
X123825000Y-98300000D03*
G04 #@! TD*
D12*
G04 #@! TO.P,U1,1,REST*
G04 #@! TO.N,/RESET*
X108090000Y-79060000D03*
G04 #@! TO.P,U1,2,ADC*
G04 #@! TO.N,/ADC*
X108090000Y-81060000D03*
G04 #@! TO.P,U1,3,CH_PD*
G04 #@! TO.N,/CH_PD*
X108090000Y-83060000D03*
G04 #@! TO.P,U1,4,GPIO16*
G04 #@! TO.N,/GPIO16*
X108090000Y-85060000D03*
G04 #@! TO.P,U1,5,GPIO14*
G04 #@! TO.N,/GPIO14*
X108090000Y-87060000D03*
G04 #@! TO.P,U1,6,GPIO12*
G04 #@! TO.N,/GPIO12*
X108090000Y-89060000D03*
G04 #@! TO.P,U1,7,GPIO13*
G04 #@! TO.N,/ROUTER_TX*
X108090000Y-91060000D03*
G04 #@! TO.P,U1,8,VCC*
G04 #@! TO.N,+3V3*
X108090000Y-93060000D03*
G04 #@! TO.P,U1,9,GND*
G04 #@! TO.N,GND*
X123490000Y-93060000D03*
G04 #@! TO.P,U1,10,GPIO15*
G04 #@! TO.N,/ROUTER_RX*
X123490000Y-91060000D03*
G04 #@! TO.P,U1,11,GPIO2*
G04 #@! TO.N,/GPIO2*
X123490000Y-89060000D03*
G04 #@! TO.P,U1,12,GPIO0*
G04 #@! TO.N,/GPIO0*
X123490000Y-87060000D03*
G04 #@! TO.P,U1,13,GPIO4*
G04 #@! TO.N,/GPIO4*
X123490000Y-85060000D03*
G04 #@! TO.P,U1,14,GPIO5*
G04 #@! TO.N,/GPIO5*
X123490000Y-83060000D03*
G04 #@! TO.P,U1,15,RXD*
G04 #@! TO.N,/RXD*
X123490000Y-81060000D03*
G04 #@! TO.P,U1,16,TXD*
G04 #@! TO.N,/TXD*
X123490000Y-79060000D03*
D13*
G04 #@! TO.P,U1,17,CS0*
G04 #@! TO.N,unconnected-(U1-Pad17)*
X110780000Y-94760000D03*
G04 #@! TO.P,U1,18,MISO*
G04 #@! TO.N,unconnected-(U1-Pad18)*
X112780000Y-94760000D03*
G04 #@! TO.P,U1,19,GPIO9*
G04 #@! TO.N,/GPIO9*
X114780000Y-94760000D03*
G04 #@! TO.P,U1,20,GPIO10*
G04 #@! TO.N,/GPIO10*
X116780000Y-94760000D03*
G04 #@! TO.P,U1,21,MOSI*
G04 #@! TO.N,unconnected-(U1-Pad21)*
X118780000Y-94760000D03*
G04 #@! TO.P,U1,22,SCLK*
G04 #@! TO.N,unconnected-(U1-Pad22)*
X120780000Y-94760000D03*
G04 #@! TD*
D14*
G04 #@! TO.P,J1,1,Pin_1*
G04 #@! TO.N,/PIN1*
X120000000Y-106600000D03*
D15*
G04 #@! TO.P,J1,2,Pin_2*
G04 #@! TO.N,/PIN2*
X117460000Y-106600000D03*
G04 #@! TO.P,J1,3,Pin_3*
G04 #@! TO.N,/PIN3*
X114920000Y-106600000D03*
G04 #@! TO.P,J1,4,Pin_4*
G04 #@! TO.N,/PIN4*
X112380000Y-106600000D03*
G04 #@! TD*
D16*
G04 #@! TO.P,C1,1*
G04 #@! TO.N,+3V3*
X107215000Y-96195000D03*
G04 #@! TO.P,C1,2*
G04 #@! TO.N,GND*
X107215000Y-97155000D03*
G04 #@! TD*
D10*
G04 #@! TO.P,R5,1*
G04 #@! TO.N,+3V3*
X111125000Y-98300000D03*
G04 #@! TO.P,R5,2*
G04 #@! TO.N,/CH_PD*
X111125000Y-97280000D03*
G04 #@! TD*
D16*
G04 #@! TO.P,C2,1*
G04 #@! TO.N,+3V3*
X108485000Y-96195000D03*
G04 #@! TO.P,C2,2*
G04 #@! TO.N,GND*
X108485000Y-97155000D03*
G04 #@! TD*
D10*
G04 #@! TO.P,R6,1*
G04 #@! TO.N,+3V3*
X109855000Y-98300000D03*
G04 #@! TO.P,R6,2*
G04 #@! TO.N,/RESET*
X109855000Y-97280000D03*
G04 #@! TD*
D17*
G04 #@! TO.P,R7,1*
G04 #@! TO.N,+3V3*
X123440000Y-101500000D03*
G04 #@! TO.P,R7,2*
G04 #@! TO.N,/GPIO0*
X124460000Y-101500000D03*
G04 #@! TD*
D18*
G04 #@! TO.N,+3V3*
X110680011Y-83861607D03*
X109601000Y-99187000D03*
X122700000Y-99050000D03*
G04 #@! TO.N,GND*
X124206000Y-94361000D03*
X123825000Y-99060000D03*
X122682000Y-94234000D03*
X108028827Y-97589031D03*
G04 #@! TO.N,/PIN1*
X119779511Y-91675489D03*
X119380000Y-81280000D03*
X122000000Y-101750000D03*
G04 #@! TO.N,/PIN2*
X116205000Y-81280000D03*
X118800000Y-101400000D03*
X116205000Y-91440000D03*
G04 #@! TO.N,/PIN3*
X113030000Y-81280000D03*
X113030000Y-90805000D03*
X115600000Y-101550000D03*
G04 #@! TO.N,/PIN4*
X112385000Y-101135000D03*
X112649000Y-92202000D03*
X109939502Y-81280000D03*
G04 #@! TO.N,/ROUTER_TX*
X108174500Y-91758008D03*
G04 #@! TO.N,/ROUTER_RX*
X120950000Y-87950000D03*
G04 #@! TO.N,/CH_PD*
X109740076Y-90056476D03*
X109630498Y-94300000D03*
G04 #@! TO.N,/RESET*
X107442000Y-94742000D03*
X109093000Y-95377000D03*
G04 #@! TO.N,/GPIO0*
X121846047Y-86061888D03*
X124500000Y-102550000D03*
G04 #@! TO.N,/RXD*
X122097831Y-100156520D03*
G04 #@! TO.N,/TXD*
X106781788Y-77913331D03*
G04 #@! TD*
D19*
G04 #@! TO.N,+3V3*
X110818717Y-84000313D02*
X110680011Y-83861607D01*
D20*
X123440000Y-99790000D02*
X122700000Y-99050000D01*
D19*
X108291501Y-94977122D02*
X108243499Y-95025124D01*
D20*
X109855000Y-98300000D02*
X111125000Y-98300000D01*
D19*
X108790000Y-93060000D02*
X108291501Y-93558499D01*
D20*
X122555000Y-98300000D02*
X122555000Y-98905000D01*
D19*
X110818717Y-91031283D02*
X110818717Y-84000313D01*
X108243499Y-95025124D02*
X108243499Y-95266501D01*
X108243499Y-95266501D02*
X108243499Y-95953499D01*
D20*
X109210480Y-96913550D02*
X109210480Y-97655480D01*
X109210480Y-97655480D02*
X109855000Y-98300000D01*
X108491930Y-96195000D02*
X109210480Y-96913550D01*
X109601000Y-98554000D02*
X109855000Y-98300000D01*
D19*
X108291501Y-93558499D02*
X108291501Y-94977122D01*
D20*
X122555000Y-98905000D02*
X122700000Y-99050000D01*
D19*
X108243499Y-95266501D02*
X107315000Y-96195000D01*
D20*
X109601000Y-99187000D02*
X109601000Y-98554000D01*
X123440000Y-101500000D02*
X123440000Y-99790000D01*
D19*
X108243499Y-95953499D02*
X108485000Y-96195000D01*
X108790000Y-93060000D02*
X110818717Y-91031283D01*
G04 #@! TO.N,GND*
X108150969Y-97589031D02*
X108028827Y-97589031D01*
X107594796Y-97155000D02*
X108028827Y-97589031D01*
X107315000Y-97155000D02*
X107594796Y-97155000D01*
X108585000Y-97155000D02*
X108150969Y-97589031D01*
D20*
X123825000Y-98300000D02*
X123825000Y-99060000D01*
D19*
G04 #@! TO.N,/PIN1*
X117750000Y-93150000D02*
X119224511Y-91675489D01*
D20*
X117750000Y-96459500D02*
X117750000Y-93300000D01*
D21*
X119380000Y-81280000D02*
X119380000Y-91275978D01*
D19*
X121627295Y-101377295D02*
X122000000Y-101750000D01*
X119777295Y-100027295D02*
X117900000Y-98150000D01*
X119777295Y-102642295D02*
X120005000Y-102870000D01*
X120005000Y-102870000D02*
X120005000Y-107495000D01*
X119224511Y-91675489D02*
X119779511Y-91675489D01*
X117900000Y-98150000D02*
X117750000Y-98000000D01*
X117750000Y-93300000D02*
X117750000Y-93150000D01*
D21*
X119380000Y-91275978D02*
X119779511Y-91675489D01*
D19*
X117750000Y-98000000D02*
X117750000Y-96459500D01*
X119777295Y-101377295D02*
X119777295Y-102642295D01*
X119777295Y-101377295D02*
X119777295Y-100027295D01*
X119777295Y-101377295D02*
X121627295Y-101377295D01*
G04 #@! TO.N,/PIN2*
X118769520Y-101430480D02*
X118800000Y-101400000D01*
X115750000Y-97400000D02*
X116880480Y-98530480D01*
X116880480Y-101430480D02*
X116880480Y-98530480D01*
X116880480Y-102285480D02*
X116880480Y-101430480D01*
X116880480Y-101430480D02*
X118769520Y-101430480D01*
X117465000Y-102870000D02*
X116880480Y-102285480D01*
X115750000Y-97400000D02*
X115750000Y-96459500D01*
D20*
X115750000Y-96459500D02*
X115750000Y-93200000D01*
D19*
X115750000Y-93200000D02*
X115750000Y-91895000D01*
X115750000Y-91895000D02*
X116205000Y-91440000D01*
X117465000Y-102870000D02*
X117465000Y-107495000D01*
D21*
X116205000Y-81280000D02*
X116205000Y-91440000D01*
G04 #@! TO.N,/PIN3*
X113340510Y-81590510D02*
X113030000Y-81280000D01*
D19*
X115575000Y-101525000D02*
X115600000Y-101550000D01*
X114925000Y-100553067D02*
X114925000Y-101525000D01*
D21*
X113779511Y-91554511D02*
X113030000Y-90805000D01*
D19*
X114925000Y-101525000D02*
X115575000Y-101525000D01*
X113578372Y-99206439D02*
X114925000Y-100553067D01*
D21*
X113340510Y-90494490D02*
X113340510Y-81590510D01*
D19*
X113779511Y-91554511D02*
X113779511Y-98290485D01*
X114925000Y-101525000D02*
X114925000Y-107495000D01*
D21*
X113030000Y-90805000D02*
X113340510Y-90494490D01*
D19*
X113578372Y-98491624D02*
X113578372Y-99206439D01*
X113779511Y-98290485D02*
X113578372Y-98491624D01*
D21*
G04 #@! TO.N,/PIN4*
X112248489Y-91801489D02*
X112649000Y-92202000D01*
X111779511Y-83120009D02*
X110039511Y-81380009D01*
X111779511Y-91801489D02*
X112248489Y-91801489D01*
X111779511Y-91801489D02*
X111779511Y-83120009D01*
D19*
X111779511Y-92729511D02*
X111779511Y-96458533D01*
X111779511Y-96458533D02*
X112385000Y-97064022D01*
X112385000Y-97064022D02*
X112385000Y-107495000D01*
D21*
X111779511Y-92729511D02*
X111779511Y-91801489D01*
D20*
G04 #@! TO.N,/ROUTER_TX*
X108790000Y-91060000D02*
X108174500Y-91675500D01*
X108174500Y-91675500D02*
X108174500Y-91758008D01*
G04 #@! TO.N,/ROUTER_RX*
X125065000Y-96040000D02*
X123825000Y-97280000D01*
X124900000Y-87950000D02*
X120950000Y-87950000D01*
X125065000Y-88115000D02*
X124900000Y-87950000D01*
X125065000Y-91040195D02*
X125065000Y-88115000D01*
X125065000Y-91040195D02*
X122809805Y-91040195D01*
X125065000Y-91040195D02*
X125065000Y-96040000D01*
G04 #@! TO.N,/GPIO2*
X122790000Y-89060000D02*
X121800000Y-90050000D01*
X122130000Y-97280000D02*
X122555000Y-97280000D01*
X121800000Y-90050000D02*
X121800000Y-96950000D01*
X121800000Y-96950000D02*
X122130000Y-97280000D01*
G04 #@! TO.N,/CH_PD*
X109651917Y-94321419D02*
X109630498Y-94300000D01*
X109664511Y-83934511D02*
X109664511Y-89980911D01*
X109664511Y-89980911D02*
X109740076Y-90056476D01*
X108790000Y-83060000D02*
X109664511Y-83934511D01*
X109817501Y-94321419D02*
X109651917Y-94321419D01*
X109817501Y-96100797D02*
X110996704Y-97280000D01*
X109817501Y-94321419D02*
X109817501Y-96100797D01*
G04 #@! TO.N,/RESET*
X106515489Y-79539511D02*
X106515489Y-93815489D01*
X109119520Y-95403520D02*
X109119520Y-96038520D01*
X109855000Y-96774000D02*
X109855000Y-97280000D01*
X109119520Y-96038520D02*
X109855000Y-96774000D01*
X106515489Y-79539511D02*
X106995000Y-79060000D01*
X109093000Y-95377000D02*
X109119520Y-95403520D01*
X106515489Y-93815489D02*
X107442000Y-94742000D01*
G04 #@! TO.N,/GPIO0*
X122790000Y-87005841D02*
X121846047Y-86061888D01*
X124500000Y-102550000D02*
X124460000Y-102510000D01*
X124460000Y-102510000D02*
X124460000Y-101500000D01*
G04 #@! TO.N,/RXD*
X119800000Y-92950000D02*
X119800000Y-97858689D01*
X120625500Y-92124500D02*
X119800000Y-92950000D01*
X122790000Y-81060000D02*
X120225500Y-83624500D01*
X120625500Y-88650098D02*
X120625500Y-92124500D01*
X120225500Y-88250098D02*
X120625500Y-88650098D01*
X120225500Y-83624500D02*
X120225500Y-88250098D01*
X119800000Y-97858689D02*
X122097831Y-100156520D01*
G04 #@! TO.N,/TXD*
X106845119Y-77850000D02*
X106781788Y-77913331D01*
X106845119Y-77850000D02*
X121580000Y-77850000D01*
X122790000Y-79060000D02*
X121580000Y-77850000D01*
G04 #@! TD*
G04 #@! TA.AperFunction,Conductor*
G04 #@! TO.N,GND*
G36*
X106508012Y-94345160D02*
G01*
X106514595Y-94351289D01*
X106752249Y-94588943D01*
X106786275Y-94651255D01*
X106788076Y-94694482D01*
X106782729Y-94735096D01*
X106800113Y-94892553D01*
X106854553Y-95041319D01*
X106942908Y-95172805D01*
X107060076Y-95279419D01*
X107196761Y-95353633D01*
X107196762Y-95353634D01*
X107199293Y-95355008D01*
X107199064Y-95355430D01*
X107251150Y-95396072D01*
X107274625Y-95463075D01*
X107258148Y-95532134D01*
X107237886Y-95558643D01*
X107172933Y-95623596D01*
X107110621Y-95657622D01*
X107083838Y-95660501D01*
X107013956Y-95660501D01*
X106990792Y-95664170D01*
X106931371Y-95673580D01*
X106931369Y-95673581D01*
X106921573Y-95675132D01*
X106810229Y-95731865D01*
X106721865Y-95820229D01*
X106665132Y-95931573D01*
X106650500Y-96023955D01*
X106650501Y-96366044D01*
X106651276Y-96370937D01*
X106657445Y-96409887D01*
X106665132Y-96458427D01*
X106721865Y-96569771D01*
X106738352Y-96586258D01*
X106772378Y-96648570D01*
X106767313Y-96719385D01*
X106738352Y-96764448D01*
X106729285Y-96773515D01*
X106717774Y-96789358D01*
X106670114Y-96882897D01*
X106664062Y-96901521D01*
X106651775Y-96979103D01*
X106651000Y-96988946D01*
X106651000Y-97009885D01*
X106655475Y-97025124D01*
X106656865Y-97026329D01*
X106664548Y-97028000D01*
X107216000Y-97028000D01*
X107284121Y-97048002D01*
X107330614Y-97101658D01*
X107342000Y-97154000D01*
X107342000Y-97670884D01*
X107346475Y-97686123D01*
X107347865Y-97687328D01*
X107355548Y-97688999D01*
X107411051Y-97688999D01*
X107420900Y-97688224D01*
X107498472Y-97675939D01*
X107517108Y-97669884D01*
X107610642Y-97622226D01*
X107626485Y-97610715D01*
X107700715Y-97536485D01*
X107712226Y-97520642D01*
X107737733Y-97470582D01*
X107786481Y-97418967D01*
X107855396Y-97401901D01*
X107922598Y-97424802D01*
X107962267Y-97470582D01*
X107987774Y-97520642D01*
X107999285Y-97536485D01*
X108073515Y-97610715D01*
X108089358Y-97622226D01*
X108182897Y-97669886D01*
X108201521Y-97675938D01*
X108279103Y-97688225D01*
X108288946Y-97689000D01*
X108339885Y-97689000D01*
X108355124Y-97684525D01*
X108356329Y-97683135D01*
X108358000Y-97675452D01*
X108358000Y-97154000D01*
X108378002Y-97085879D01*
X108431658Y-97039386D01*
X108484000Y-97028000D01*
X108486000Y-97028000D01*
X108554121Y-97048002D01*
X108600614Y-97101658D01*
X108612000Y-97154000D01*
X108612000Y-97670884D01*
X108616475Y-97686123D01*
X108617865Y-97687328D01*
X108625548Y-97688999D01*
X108681051Y-97688999D01*
X108690902Y-97688224D01*
X108705677Y-97685884D01*
X108776088Y-97694985D01*
X108830401Y-97740708D01*
X108840712Y-97762949D01*
X108841004Y-97762809D01*
X108842510Y-97765944D01*
X108845220Y-97772560D01*
X108846476Y-97780106D01*
X108851423Y-97789275D01*
X108851424Y-97789277D01*
X108870814Y-97825212D01*
X108873511Y-97830505D01*
X108892265Y-97869562D01*
X108892268Y-97869566D01*
X108895699Y-97876712D01*
X108899294Y-97880988D01*
X108901217Y-97882911D01*
X108902989Y-97884843D01*
X108903032Y-97884922D01*
X108902908Y-97885035D01*
X108903384Y-97885575D01*
X108906470Y-97891294D01*
X108914115Y-97898361D01*
X108946066Y-97927896D01*
X108949632Y-97931326D01*
X109241613Y-98223307D01*
X109275639Y-98285619D01*
X109270574Y-98356434D01*
X109267091Y-98364528D01*
X109263844Y-98368647D01*
X109260812Y-98377281D01*
X109255486Y-98384734D01*
X109242810Y-98427121D01*
X109240799Y-98433844D01*
X109238964Y-98439492D01*
X109224610Y-98480367D01*
X109221982Y-98487851D01*
X109221500Y-98493416D01*
X109221500Y-98496124D01*
X109221386Y-98498758D01*
X109221357Y-98498856D01*
X109221193Y-98498849D01*
X109221149Y-98499553D01*
X109219287Y-98505778D01*
X109220843Y-98545391D01*
X109221403Y-98559635D01*
X109221500Y-98564582D01*
X109221500Y-98592187D01*
X109201498Y-98660308D01*
X109178330Y-98687135D01*
X109111039Y-98745838D01*
X109019950Y-98875444D01*
X108962406Y-99023037D01*
X108961414Y-99030570D01*
X108961414Y-99030571D01*
X108944516Y-99158930D01*
X108941729Y-99180096D01*
X108944775Y-99207686D01*
X108956049Y-99309798D01*
X108959113Y-99337553D01*
X108961723Y-99344684D01*
X108961723Y-99344686D01*
X109007601Y-99470053D01*
X109013553Y-99486319D01*
X109017789Y-99492622D01*
X109017789Y-99492623D01*
X109096909Y-99610365D01*
X109101908Y-99617805D01*
X109107527Y-99622918D01*
X109107528Y-99622919D01*
X109190427Y-99698351D01*
X109219076Y-99724419D01*
X109358293Y-99800008D01*
X109511522Y-99840207D01*
X109594921Y-99841517D01*
X109662319Y-99842576D01*
X109662322Y-99842576D01*
X109669916Y-99842695D01*
X109824332Y-99807329D01*
X109903721Y-99767401D01*
X109959072Y-99739563D01*
X109959075Y-99739561D01*
X109965855Y-99736151D01*
X109971626Y-99731222D01*
X109971629Y-99731220D01*
X110080536Y-99638204D01*
X110080536Y-99638203D01*
X110086314Y-99633269D01*
X110178755Y-99504624D01*
X110237842Y-99357641D01*
X110260162Y-99200807D01*
X110260307Y-99187000D01*
X110241276Y-99029733D01*
X110198738Y-98917161D01*
X110193370Y-98846368D01*
X110227127Y-98783910D01*
X110259398Y-98760358D01*
X110262960Y-98758543D01*
X110262964Y-98758540D01*
X110271796Y-98754040D01*
X110309431Y-98716405D01*
X110371743Y-98682379D01*
X110398526Y-98679500D01*
X110581474Y-98679500D01*
X110649595Y-98699502D01*
X110670569Y-98716405D01*
X110708204Y-98754040D01*
X110818138Y-98810054D01*
X110827927Y-98811604D01*
X110827929Y-98811605D01*
X110854421Y-98815801D01*
X110909347Y-98824500D01*
X111124956Y-98824500D01*
X111340652Y-98824499D01*
X111345546Y-98823724D01*
X111422064Y-98811606D01*
X111422066Y-98811605D01*
X111431862Y-98810054D01*
X111541796Y-98754040D01*
X111629040Y-98666796D01*
X111633542Y-98657961D01*
X111642233Y-98640904D01*
X111690981Y-98589288D01*
X111759896Y-98572222D01*
X111827097Y-98595122D01*
X111871250Y-98650720D01*
X111880500Y-98698106D01*
X111880500Y-100674676D01*
X111857587Y-100747126D01*
X111803950Y-100823444D01*
X111791764Y-100854700D01*
X111757511Y-100942555D01*
X111746406Y-100971037D01*
X111745414Y-100978570D01*
X111745414Y-100978571D01*
X111726762Y-101120251D01*
X111725729Y-101128096D01*
X111732459Y-101189052D01*
X111738586Y-101244546D01*
X111743113Y-101285553D01*
X111745723Y-101292684D01*
X111745723Y-101292686D01*
X111793162Y-101422319D01*
X111797553Y-101434319D01*
X111801789Y-101440622D01*
X111801789Y-101440623D01*
X111859082Y-101525884D01*
X111880500Y-101596160D01*
X111880500Y-104582056D01*
X111860498Y-104650177D01*
X111818923Y-104690341D01*
X111703463Y-104759032D01*
X111703460Y-104759034D01*
X111698495Y-104761988D01*
X111694155Y-104765794D01*
X111694151Y-104765797D01*
X111543309Y-104898083D01*
X111538968Y-104901890D01*
X111407607Y-105068520D01*
X111308812Y-105256299D01*
X111245891Y-105458938D01*
X111245212Y-105464674D01*
X111245212Y-105464675D01*
X111227298Y-105616028D01*
X111225500Y-105631216D01*
X111225500Y-107553827D01*
X111228270Y-107583972D01*
X111236063Y-107668778D01*
X111239969Y-107711292D01*
X111241536Y-107716849D01*
X111241537Y-107716853D01*
X111245279Y-107730121D01*
X111297564Y-107915508D01*
X111391410Y-108105809D01*
X111518364Y-108275821D01*
X111522598Y-108279735D01*
X111522600Y-108279737D01*
X111546595Y-108301917D01*
X111674174Y-108419850D01*
X111853623Y-108533074D01*
X112050700Y-108611700D01*
X112056357Y-108612825D01*
X112056363Y-108612827D01*
X112172469Y-108635921D01*
X112235379Y-108668828D01*
X112270511Y-108730523D01*
X112266711Y-108801418D01*
X112225186Y-108859004D01*
X112159119Y-108884998D01*
X112147888Y-108885500D01*
X106425500Y-108885500D01*
X106357379Y-108865498D01*
X106310886Y-108811842D01*
X106299500Y-108759500D01*
X106299500Y-97321051D01*
X106651001Y-97321051D01*
X106651776Y-97330900D01*
X106664061Y-97408472D01*
X106670116Y-97427108D01*
X106717774Y-97520642D01*
X106729285Y-97536485D01*
X106803515Y-97610715D01*
X106819358Y-97622226D01*
X106912897Y-97669886D01*
X106931521Y-97675938D01*
X107009103Y-97688225D01*
X107018946Y-97689000D01*
X107069885Y-97689000D01*
X107085124Y-97684525D01*
X107086329Y-97683135D01*
X107088000Y-97675452D01*
X107088000Y-97300115D01*
X107083525Y-97284876D01*
X107082135Y-97283671D01*
X107074452Y-97282000D01*
X106669116Y-97282000D01*
X106653877Y-97286475D01*
X106652672Y-97287865D01*
X106651001Y-97295548D01*
X106651001Y-97321051D01*
X106299500Y-97321051D01*
X106299500Y-94440384D01*
X106319502Y-94372263D01*
X106373158Y-94325770D01*
X106443432Y-94315666D01*
X106508012Y-94345160D01*
G37*
G04 #@! TD.AperFunction*
G04 #@! TA.AperFunction,Conductor*
G36*
X125393532Y-96352328D02*
G01*
X125450368Y-96394875D01*
X125475179Y-96461395D01*
X125475500Y-96470384D01*
X125475500Y-108759500D01*
X125455498Y-108827621D01*
X125401842Y-108874114D01*
X125349500Y-108885500D01*
X121033086Y-108885500D01*
X120964965Y-108865498D01*
X120918472Y-108811842D01*
X120908368Y-108741568D01*
X120937862Y-108676988D01*
X120984869Y-108643091D01*
X120987129Y-108642155D01*
X120999301Y-108639734D01*
X121009618Y-108632841D01*
X121009619Y-108632840D01*
X121073168Y-108590377D01*
X121083484Y-108583484D01*
X121139734Y-108499301D01*
X121154500Y-108425067D01*
X121154499Y-104774934D01*
X121139734Y-104700699D01*
X121117168Y-104666926D01*
X121090377Y-104626832D01*
X121083484Y-104616516D01*
X120999301Y-104560266D01*
X120925067Y-104545500D01*
X120635500Y-104545500D01*
X120567379Y-104525498D01*
X120520886Y-104471842D01*
X120509500Y-104419500D01*
X120509500Y-102940624D01*
X120510841Y-102928619D01*
X120510345Y-102928579D01*
X120511065Y-102919632D01*
X120513046Y-102910876D01*
X120509742Y-102857618D01*
X120509500Y-102849816D01*
X120509500Y-102833774D01*
X120508682Y-102828058D01*
X120508035Y-102823547D01*
X120507003Y-102813477D01*
X120504654Y-102775600D01*
X120504654Y-102775598D01*
X120504098Y-102766641D01*
X120501051Y-102758201D01*
X120500370Y-102754911D01*
X120496416Y-102739054D01*
X120495473Y-102735829D01*
X120494201Y-102726948D01*
X120490488Y-102718780D01*
X120474773Y-102684218D01*
X120470969Y-102674875D01*
X120455027Y-102630715D01*
X120449732Y-102623467D01*
X120448147Y-102620486D01*
X120439907Y-102606387D01*
X120438103Y-102603567D01*
X120434388Y-102595395D01*
X120428530Y-102588596D01*
X120403751Y-102559838D01*
X120397469Y-102551926D01*
X120392404Y-102544993D01*
X120392393Y-102544980D01*
X120389526Y-102541056D01*
X120378664Y-102530194D01*
X120372313Y-102523354D01*
X120372307Y-102523347D01*
X120340056Y-102485918D01*
X120332523Y-102481035D01*
X120325762Y-102475137D01*
X120328115Y-102472440D01*
X120292976Y-102431562D01*
X120281795Y-102379672D01*
X120281795Y-102007795D01*
X120301797Y-101939674D01*
X120355453Y-101893181D01*
X120407795Y-101881795D01*
X121263186Y-101881795D01*
X121331307Y-101901797D01*
X121377800Y-101955453D01*
X121381512Y-101964495D01*
X121409941Y-102042183D01*
X121409943Y-102042187D01*
X121412553Y-102049319D01*
X121416789Y-102055622D01*
X121416789Y-102055623D01*
X121448332Y-102102563D01*
X121500908Y-102180805D01*
X121506527Y-102185918D01*
X121506528Y-102185919D01*
X121589930Y-102261808D01*
X121618076Y-102287419D01*
X121757293Y-102363008D01*
X121910522Y-102403207D01*
X121994477Y-102404526D01*
X122061319Y-102405576D01*
X122061322Y-102405576D01*
X122068916Y-102405695D01*
X122223332Y-102370329D01*
X122328915Y-102317227D01*
X122358072Y-102302563D01*
X122358075Y-102302561D01*
X122364855Y-102299151D01*
X122370626Y-102294222D01*
X122370629Y-102294220D01*
X122479536Y-102201204D01*
X122479536Y-102201203D01*
X122485314Y-102196269D01*
X122577755Y-102067624D01*
X122636842Y-101920641D01*
X122651778Y-101815695D01*
X122658581Y-101767891D01*
X122658581Y-101767888D01*
X122659162Y-101763807D01*
X122659307Y-101750000D01*
X122640276Y-101592733D01*
X122584280Y-101444546D01*
X122494553Y-101313992D01*
X122470640Y-101292686D01*
X122455788Y-101279454D01*
X122376275Y-101208611D01*
X122236274Y-101134484D01*
X122087136Y-101097023D01*
X122021878Y-101056482D01*
X122020231Y-101054547D01*
X122015442Y-101046956D01*
X121997747Y-101031328D01*
X121959928Y-100971243D01*
X121960597Y-100900250D01*
X121999542Y-100840888D01*
X122064398Y-100812005D01*
X122083131Y-100810902D01*
X122159149Y-100812096D01*
X122159152Y-100812096D01*
X122166747Y-100812215D01*
X122321163Y-100776849D01*
X122423992Y-100725132D01*
X122455903Y-100709083D01*
X122455906Y-100709081D01*
X122462686Y-100705671D01*
X122468457Y-100700742D01*
X122468460Y-100700740D01*
X122577367Y-100607724D01*
X122577367Y-100607723D01*
X122583145Y-100602789D01*
X122675586Y-100474144D01*
X122734673Y-100327161D01*
X122749337Y-100224123D01*
X122756412Y-100174411D01*
X122756412Y-100174408D01*
X122756993Y-100170327D01*
X122757138Y-100156520D01*
X122755392Y-100142087D01*
X122746157Y-100065775D01*
X122738107Y-99999253D01*
X122717542Y-99944830D01*
X122712174Y-99874037D01*
X122745931Y-99811579D01*
X122808097Y-99777287D01*
X122878934Y-99782049D01*
X122924503Y-99811197D01*
X123023595Y-99910289D01*
X123057621Y-99972601D01*
X123060500Y-99999384D01*
X123060500Y-100956474D01*
X123040498Y-101024595D01*
X123023595Y-101045569D01*
X122985960Y-101083204D01*
X122929946Y-101193138D01*
X122928396Y-101202927D01*
X122928395Y-101202929D01*
X122926695Y-101213664D01*
X122915500Y-101284347D01*
X122915501Y-101715652D01*
X122929946Y-101806862D01*
X122985960Y-101916796D01*
X123073204Y-102004040D01*
X123183138Y-102060054D01*
X123192927Y-102061604D01*
X123192929Y-102061605D01*
X123219421Y-102065801D01*
X123274347Y-102074500D01*
X123439966Y-102074500D01*
X123605652Y-102074499D01*
X123610546Y-102073724D01*
X123687064Y-102061606D01*
X123687066Y-102061605D01*
X123696862Y-102060054D01*
X123710067Y-102053326D01*
X123759524Y-102028126D01*
X123786209Y-102014530D01*
X123855983Y-102001426D01*
X123921768Y-102028126D01*
X123962675Y-102086153D01*
X123965716Y-102157085D01*
X123946497Y-102199247D01*
X123925634Y-102228933D01*
X123918950Y-102238444D01*
X123898443Y-102291042D01*
X123869634Y-102364934D01*
X123861406Y-102386037D01*
X123860414Y-102393570D01*
X123860414Y-102393571D01*
X123841799Y-102534970D01*
X123840729Y-102543096D01*
X123846503Y-102595395D01*
X123856810Y-102688748D01*
X123858113Y-102700553D01*
X123860723Y-102707684D01*
X123860723Y-102707686D01*
X123908200Y-102837423D01*
X123912553Y-102849319D01*
X123916789Y-102855622D01*
X123916789Y-102855623D01*
X123984431Y-102956284D01*
X124000908Y-102980805D01*
X124006527Y-102985918D01*
X124006528Y-102985919D01*
X124112460Y-103082309D01*
X124118076Y-103087419D01*
X124257293Y-103163008D01*
X124410522Y-103203207D01*
X124494477Y-103204526D01*
X124561319Y-103205576D01*
X124561322Y-103205576D01*
X124568916Y-103205695D01*
X124723332Y-103170329D01*
X124801210Y-103131161D01*
X124858072Y-103102563D01*
X124858075Y-103102561D01*
X124864855Y-103099151D01*
X124870626Y-103094222D01*
X124870629Y-103094220D01*
X124979536Y-103001204D01*
X124979536Y-103001203D01*
X124985314Y-102996269D01*
X125077755Y-102867624D01*
X125136842Y-102720641D01*
X125151468Y-102617870D01*
X125158581Y-102567891D01*
X125158581Y-102567888D01*
X125159162Y-102563807D01*
X125159307Y-102550000D01*
X125158263Y-102541368D01*
X125150289Y-102475476D01*
X125140276Y-102392733D01*
X125084280Y-102244546D01*
X124994553Y-102113992D01*
X124942653Y-102067751D01*
X124905097Y-102007500D01*
X124906077Y-101936511D01*
X124914203Y-101916477D01*
X124970054Y-101806862D01*
X124984500Y-101715653D01*
X124984499Y-101284348D01*
X124973185Y-101212909D01*
X124971606Y-101202936D01*
X124971605Y-101202934D01*
X124970054Y-101193138D01*
X124914040Y-101083204D01*
X124826796Y-100995960D01*
X124716862Y-100939946D01*
X124707073Y-100938396D01*
X124707071Y-100938395D01*
X124680579Y-100934199D01*
X124625653Y-100925500D01*
X124460034Y-100925500D01*
X124294348Y-100925501D01*
X124289455Y-100926276D01*
X124289454Y-100926276D01*
X124212936Y-100938394D01*
X124212934Y-100938395D01*
X124203138Y-100939946D01*
X124093204Y-100995960D01*
X124039095Y-101050069D01*
X123976783Y-101084095D01*
X123905968Y-101079030D01*
X123860905Y-101050069D01*
X123856405Y-101045569D01*
X123822379Y-100983257D01*
X123819500Y-100956474D01*
X123819500Y-99843920D01*
X123822049Y-99819972D01*
X123822128Y-99818307D01*
X123824320Y-99808124D01*
X123820373Y-99774777D01*
X123820023Y-99768846D01*
X123819928Y-99768854D01*
X123819500Y-99763676D01*
X123819500Y-99758476D01*
X123818537Y-99752690D01*
X123816331Y-99739435D01*
X123815494Y-99733557D01*
X123810694Y-99692999D01*
X123810694Y-99692998D01*
X123809470Y-99682659D01*
X123805507Y-99674407D01*
X123804004Y-99665374D01*
X123786414Y-99632773D01*
X123779666Y-99620268D01*
X123776969Y-99614975D01*
X123758215Y-99575918D01*
X123758212Y-99575914D01*
X123754781Y-99568768D01*
X123751186Y-99564492D01*
X123749263Y-99562569D01*
X123747491Y-99560637D01*
X123747448Y-99560558D01*
X123747572Y-99560445D01*
X123747096Y-99559905D01*
X123744010Y-99554186D01*
X123735420Y-99546245D01*
X123704414Y-99517584D01*
X123700848Y-99514154D01*
X123390143Y-99203449D01*
X123356117Y-99141137D01*
X123354495Y-99096601D01*
X123358581Y-99067892D01*
X123358581Y-99067886D01*
X123359162Y-99063807D01*
X123359307Y-99050000D01*
X123356855Y-99029733D01*
X123346024Y-98940233D01*
X123357697Y-98870203D01*
X123405379Y-98817601D01*
X123473930Y-98799128D01*
X123510045Y-98805262D01*
X123528088Y-98811124D01*
X123604492Y-98823225D01*
X123614338Y-98824000D01*
X123679885Y-98824000D01*
X123695124Y-98819525D01*
X123696329Y-98818135D01*
X123698000Y-98810452D01*
X123698000Y-98805885D01*
X123952000Y-98805885D01*
X123956475Y-98821124D01*
X123957865Y-98822329D01*
X123965548Y-98824000D01*
X124035662Y-98824000D01*
X124045508Y-98823225D01*
X124121913Y-98811124D01*
X124140540Y-98805072D01*
X124232667Y-98758131D01*
X124248510Y-98746620D01*
X124321620Y-98673510D01*
X124333131Y-98657667D01*
X124380072Y-98565540D01*
X124386124Y-98546913D01*
X124398225Y-98470508D01*
X124399000Y-98460662D01*
X124399000Y-98445115D01*
X124394525Y-98429876D01*
X124393135Y-98428671D01*
X124385452Y-98427000D01*
X123970115Y-98427000D01*
X123954876Y-98431475D01*
X123953671Y-98432865D01*
X123952000Y-98440548D01*
X123952000Y-98805885D01*
X123698000Y-98805885D01*
X123698000Y-98299000D01*
X123718002Y-98230879D01*
X123771658Y-98184386D01*
X123824000Y-98173000D01*
X124380885Y-98173000D01*
X124396124Y-98168525D01*
X124397329Y-98167135D01*
X124399000Y-98159452D01*
X124399000Y-98139338D01*
X124398225Y-98129492D01*
X124386124Y-98053087D01*
X124380072Y-98034460D01*
X124333131Y-97942333D01*
X124321620Y-97926490D01*
X124274578Y-97879448D01*
X124240552Y-97817136D01*
X124245617Y-97746321D01*
X124274578Y-97701258D01*
X124329040Y-97646796D01*
X124385054Y-97536862D01*
X124388503Y-97515089D01*
X124391884Y-97493741D01*
X124399500Y-97445653D01*
X124399499Y-97294385D01*
X124419501Y-97226265D01*
X124436404Y-97205290D01*
X125260405Y-96381289D01*
X125322717Y-96347263D01*
X125393532Y-96352328D01*
G37*
G04 #@! TD.AperFunction*
G04 #@! TA.AperFunction,Conductor*
G36*
X124627621Y-91884501D02*
G01*
X124674114Y-91938157D01*
X124685500Y-91990499D01*
X124685500Y-92130000D01*
X124665498Y-92198121D01*
X124611842Y-92244614D01*
X124559500Y-92256000D01*
X123635115Y-92256000D01*
X123619876Y-92260475D01*
X123618671Y-92261865D01*
X123617000Y-92269548D01*
X123617000Y-93845884D01*
X123621475Y-93861123D01*
X123622865Y-93862328D01*
X123630548Y-93863999D01*
X124559500Y-93863999D01*
X124627621Y-93884001D01*
X124674114Y-93937657D01*
X124685500Y-93989999D01*
X124685500Y-95830614D01*
X124665498Y-95898735D01*
X124648596Y-95919709D01*
X123849710Y-96718596D01*
X123787397Y-96752621D01*
X123760614Y-96755501D01*
X123609348Y-96755501D01*
X123604455Y-96756276D01*
X123604454Y-96756276D01*
X123527936Y-96768394D01*
X123527934Y-96768395D01*
X123518138Y-96769946D01*
X123509301Y-96774449D01*
X123509300Y-96774449D01*
X123458353Y-96800408D01*
X123408204Y-96825960D01*
X123320960Y-96913204D01*
X123316460Y-96922036D01*
X123302267Y-96949891D01*
X123253519Y-97001506D01*
X123184604Y-97018572D01*
X123117402Y-96995671D01*
X123077733Y-96949891D01*
X123063540Y-96922036D01*
X123059040Y-96913204D01*
X122971796Y-96825960D01*
X122861862Y-96769946D01*
X122852073Y-96768396D01*
X122852071Y-96768395D01*
X122825579Y-96764199D01*
X122770653Y-96755500D01*
X122555044Y-96755500D01*
X122339348Y-96755501D01*
X122334459Y-96756275D01*
X122334450Y-96756276D01*
X122325207Y-96757740D01*
X122254797Y-96748639D01*
X122200484Y-96702916D01*
X122179500Y-96633291D01*
X122179500Y-93990000D01*
X122199502Y-93921879D01*
X122253158Y-93875386D01*
X122305500Y-93864000D01*
X123344885Y-93864000D01*
X123360124Y-93859525D01*
X123361329Y-93858135D01*
X123363000Y-93850452D01*
X123363000Y-92274116D01*
X123358525Y-92258877D01*
X123357135Y-92257672D01*
X123349452Y-92256001D01*
X122305500Y-92256001D01*
X122237379Y-92235999D01*
X122190886Y-92182343D01*
X122179500Y-92130001D01*
X122179500Y-91990500D01*
X122199502Y-91922379D01*
X122253158Y-91875886D01*
X122305500Y-91864500D01*
X123248109Y-91864500D01*
X124559500Y-91864499D01*
X124627621Y-91884501D01*
G37*
G04 #@! TD.AperFunction*
G04 #@! TD*
M02*
