%TF.GenerationSoftware,KiCad,Pcbnew,6.0.5-a6ca702e91~116~ubuntu20.04.1*%
%TF.CreationDate,2022-06-07T16:18:29-07:00*%
%TF.ProjectId,esp8266-dongle,65737038-3236-4362-9d64-6f6e676c652e,rev?*%
%TF.SameCoordinates,Original*%
%TF.FileFunction,Legend,Top*%
%TF.FilePolarity,Positive*%
%FSLAX46Y46*%
G04 Gerber Fmt 4.6, Leading zero omitted, Abs format (unit mm)*
G04 Created by KiCad (PCBNEW 6.0.5-a6ca702e91~116~ubuntu20.04.1) date 2022-06-07 16:18:29*
%MOMM*%
%LPD*%
G01*
G04 APERTURE LIST*
%ADD10C,0.150000*%
%ADD11C,0.120000*%
%ADD12C,0.152400*%
G04 APERTURE END LIST*
D10*
%TO.C,R2*%
X121837380Y-97956666D02*
X121361190Y-98290000D01*
X121837380Y-98528095D02*
X120837380Y-98528095D01*
X120837380Y-98147142D01*
X120885000Y-98051904D01*
X120932619Y-98004285D01*
X121027857Y-97956666D01*
X121170714Y-97956666D01*
X121265952Y-98004285D01*
X121313571Y-98051904D01*
X121361190Y-98147142D01*
X121361190Y-98528095D01*
X120932619Y-97575714D02*
X120885000Y-97528095D01*
X120837380Y-97432857D01*
X120837380Y-97194761D01*
X120885000Y-97099523D01*
X120932619Y-97051904D01*
X121027857Y-97004285D01*
X121123095Y-97004285D01*
X121265952Y-97051904D01*
X121837380Y-97623333D01*
X121837380Y-97004285D01*
%TO.C,R1*%
X125447380Y-97956666D02*
X124971190Y-98290000D01*
X125447380Y-98528095D02*
X124447380Y-98528095D01*
X124447380Y-98147142D01*
X124495000Y-98051904D01*
X124542619Y-98004285D01*
X124637857Y-97956666D01*
X124780714Y-97956666D01*
X124875952Y-98004285D01*
X124923571Y-98051904D01*
X124971190Y-98147142D01*
X124971190Y-98528095D01*
X125447380Y-97004285D02*
X125447380Y-97575714D01*
X125447380Y-97290000D02*
X124447380Y-97290000D01*
X124590238Y-97385238D01*
X124685476Y-97480476D01*
X124733095Y-97575714D01*
%TO.C,R4*%
X117181333Y-99512380D02*
X116848000Y-99036190D01*
X116609904Y-99512380D02*
X116609904Y-98512380D01*
X116990857Y-98512380D01*
X117086095Y-98560000D01*
X117133714Y-98607619D01*
X117181333Y-98702857D01*
X117181333Y-98845714D01*
X117133714Y-98940952D01*
X117086095Y-98988571D01*
X116990857Y-99036190D01*
X116609904Y-99036190D01*
X118038476Y-98845714D02*
X118038476Y-99512380D01*
X117800380Y-98464761D02*
X117562285Y-99179047D01*
X118181333Y-99179047D01*
%TO.C,U1*%
X117132380Y-86171904D02*
X117941904Y-86171904D01*
X118037142Y-86124285D01*
X118084761Y-86076666D01*
X118132380Y-85981428D01*
X118132380Y-85790952D01*
X118084761Y-85695714D01*
X118037142Y-85648095D01*
X117941904Y-85600476D01*
X117132380Y-85600476D01*
X118132380Y-84600476D02*
X118132380Y-85171904D01*
X118132380Y-84886190D02*
X117132380Y-84886190D01*
X117275238Y-84981428D01*
X117370476Y-85076666D01*
X117418095Y-85171904D01*
X111967714Y-74112380D02*
X111967714Y-73112380D01*
X112539142Y-74112380D01*
X112539142Y-73112380D01*
X113158190Y-74112380D02*
X113062952Y-74064761D01*
X113015333Y-74017142D01*
X112967714Y-73921904D01*
X112967714Y-73636190D01*
X113015333Y-73540952D01*
X113062952Y-73493333D01*
X113158190Y-73445714D01*
X113301047Y-73445714D01*
X113396285Y-73493333D01*
X113443904Y-73540952D01*
X113491523Y-73636190D01*
X113491523Y-73921904D01*
X113443904Y-74017142D01*
X113396285Y-74064761D01*
X113301047Y-74112380D01*
X113158190Y-74112380D01*
X115253428Y-74017142D02*
X115205809Y-74064761D01*
X115062952Y-74112380D01*
X114967714Y-74112380D01*
X114824857Y-74064761D01*
X114729619Y-73969523D01*
X114682000Y-73874285D01*
X114634380Y-73683809D01*
X114634380Y-73540952D01*
X114682000Y-73350476D01*
X114729619Y-73255238D01*
X114824857Y-73160000D01*
X114967714Y-73112380D01*
X115062952Y-73112380D01*
X115205809Y-73160000D01*
X115253428Y-73207619D01*
X115824857Y-74112380D02*
X115729619Y-74064761D01*
X115682000Y-74017142D01*
X115634380Y-73921904D01*
X115634380Y-73636190D01*
X115682000Y-73540952D01*
X115729619Y-73493333D01*
X115824857Y-73445714D01*
X115967714Y-73445714D01*
X116062952Y-73493333D01*
X116110571Y-73540952D01*
X116158190Y-73636190D01*
X116158190Y-73921904D01*
X116110571Y-74017142D01*
X116062952Y-74064761D01*
X115967714Y-74112380D01*
X115824857Y-74112380D01*
X116586761Y-73445714D02*
X116586761Y-74445714D01*
X116586761Y-73493333D02*
X116682000Y-73445714D01*
X116872476Y-73445714D01*
X116967714Y-73493333D01*
X117015333Y-73540952D01*
X117062952Y-73636190D01*
X117062952Y-73921904D01*
X117015333Y-74017142D01*
X116967714Y-74064761D01*
X116872476Y-74112380D01*
X116682000Y-74112380D01*
X116586761Y-74064761D01*
X117491523Y-73445714D02*
X117491523Y-74445714D01*
X117491523Y-73493333D02*
X117586761Y-73445714D01*
X117777238Y-73445714D01*
X117872476Y-73493333D01*
X117920095Y-73540952D01*
X117967714Y-73636190D01*
X117967714Y-73921904D01*
X117920095Y-74017142D01*
X117872476Y-74064761D01*
X117777238Y-74112380D01*
X117586761Y-74112380D01*
X117491523Y-74064761D01*
X118777238Y-74064761D02*
X118682000Y-74112380D01*
X118491523Y-74112380D01*
X118396285Y-74064761D01*
X118348666Y-73969523D01*
X118348666Y-73588571D01*
X118396285Y-73493333D01*
X118491523Y-73445714D01*
X118682000Y-73445714D01*
X118777238Y-73493333D01*
X118824857Y-73588571D01*
X118824857Y-73683809D01*
X118348666Y-73779047D01*
X119253428Y-74112380D02*
X119253428Y-73445714D01*
X119253428Y-73636190D02*
X119301047Y-73540952D01*
X119348666Y-73493333D01*
X119443904Y-73445714D01*
X119539142Y-73445714D01*
%TO.C,J1*%
X121727380Y-107588333D02*
X122441666Y-107588333D01*
X122584523Y-107635952D01*
X122679761Y-107731190D01*
X122727380Y-107874047D01*
X122727380Y-107969285D01*
X122727380Y-106588333D02*
X122727380Y-107159761D01*
X122727380Y-106874047D02*
X121727380Y-106874047D01*
X121870238Y-106969285D01*
X121965476Y-107064523D01*
X122013095Y-107159761D01*
%TO.C,C1*%
X107545142Y-99861666D02*
X107592761Y-99909285D01*
X107640380Y-100052142D01*
X107640380Y-100147380D01*
X107592761Y-100290238D01*
X107497523Y-100385476D01*
X107402285Y-100433095D01*
X107211809Y-100480714D01*
X107068952Y-100480714D01*
X106878476Y-100433095D01*
X106783238Y-100385476D01*
X106688000Y-100290238D01*
X106640380Y-100147380D01*
X106640380Y-100052142D01*
X106688000Y-99909285D01*
X106735619Y-99861666D01*
X107640380Y-98909285D02*
X107640380Y-99480714D01*
X107640380Y-99195000D02*
X106640380Y-99195000D01*
X106783238Y-99290238D01*
X106878476Y-99385476D01*
X106926095Y-99480714D01*
%TO.C,R5*%
X112847380Y-97956666D02*
X112371190Y-98290000D01*
X112847380Y-98528095D02*
X111847380Y-98528095D01*
X111847380Y-98147142D01*
X111895000Y-98051904D01*
X111942619Y-98004285D01*
X112037857Y-97956666D01*
X112180714Y-97956666D01*
X112275952Y-98004285D01*
X112323571Y-98051904D01*
X112371190Y-98147142D01*
X112371190Y-98528095D01*
X111847380Y-97051904D02*
X111847380Y-97528095D01*
X112323571Y-97575714D01*
X112275952Y-97528095D01*
X112228333Y-97432857D01*
X112228333Y-97194761D01*
X112275952Y-97099523D01*
X112323571Y-97051904D01*
X112418809Y-97004285D01*
X112656904Y-97004285D01*
X112752142Y-97051904D01*
X112799761Y-97099523D01*
X112847380Y-97194761D01*
X112847380Y-97432857D01*
X112799761Y-97528095D01*
X112752142Y-97575714D01*
%TO.C,C2*%
X108842142Y-99226666D02*
X108889761Y-99274285D01*
X108937380Y-99417142D01*
X108937380Y-99512380D01*
X108889761Y-99655238D01*
X108794523Y-99750476D01*
X108699285Y-99798095D01*
X108508809Y-99845714D01*
X108365952Y-99845714D01*
X108175476Y-99798095D01*
X108080238Y-99750476D01*
X107985000Y-99655238D01*
X107937380Y-99512380D01*
X107937380Y-99417142D01*
X107985000Y-99274285D01*
X108032619Y-99226666D01*
X108032619Y-98845714D02*
X107985000Y-98798095D01*
X107937380Y-98702857D01*
X107937380Y-98464761D01*
X107985000Y-98369523D01*
X108032619Y-98321904D01*
X108127857Y-98274285D01*
X108223095Y-98274285D01*
X108365952Y-98321904D01*
X108937380Y-98893333D01*
X108937380Y-98274285D01*
%TO.C,R3*%
X115403333Y-99512380D02*
X115070000Y-99036190D01*
X114831904Y-99512380D02*
X114831904Y-98512380D01*
X115212857Y-98512380D01*
X115308095Y-98560000D01*
X115355714Y-98607619D01*
X115403333Y-98702857D01*
X115403333Y-98845714D01*
X115355714Y-98940952D01*
X115308095Y-98988571D01*
X115212857Y-99036190D01*
X114831904Y-99036190D01*
X115736666Y-98512380D02*
X116355714Y-98512380D01*
X116022380Y-98893333D01*
X116165238Y-98893333D01*
X116260476Y-98940952D01*
X116308095Y-98988571D01*
X116355714Y-99083809D01*
X116355714Y-99321904D01*
X116308095Y-99417142D01*
X116260476Y-99464761D01*
X116165238Y-99512380D01*
X115879523Y-99512380D01*
X115784285Y-99464761D01*
X115736666Y-99417142D01*
%TO.C,R6*%
X110307380Y-100623666D02*
X109831190Y-100957000D01*
X110307380Y-101195095D02*
X109307380Y-101195095D01*
X109307380Y-100814142D01*
X109355000Y-100718904D01*
X109402619Y-100671285D01*
X109497857Y-100623666D01*
X109640714Y-100623666D01*
X109735952Y-100671285D01*
X109783571Y-100718904D01*
X109831190Y-100814142D01*
X109831190Y-101195095D01*
X109307380Y-99766523D02*
X109307380Y-99957000D01*
X109355000Y-100052238D01*
X109402619Y-100099857D01*
X109545476Y-100195095D01*
X109735952Y-100242714D01*
X110116904Y-100242714D01*
X110212142Y-100195095D01*
X110259761Y-100147476D01*
X110307380Y-100052238D01*
X110307380Y-99861761D01*
X110259761Y-99766523D01*
X110212142Y-99718904D01*
X110116904Y-99671285D01*
X109878809Y-99671285D01*
X109783571Y-99718904D01*
X109735952Y-99766523D01*
X109688333Y-99861761D01*
X109688333Y-100052238D01*
X109735952Y-100147476D01*
X109783571Y-100195095D01*
X109878809Y-100242714D01*
D11*
%TO.C,R2*%
X122935000Y-97943641D02*
X122935000Y-97636359D01*
X122175000Y-97943641D02*
X122175000Y-97636359D01*
%TO.C,R1*%
X123445000Y-97636359D02*
X123445000Y-97943641D01*
X124205000Y-97636359D02*
X124205000Y-97943641D01*
%TO.C,R4*%
X117956359Y-97410000D02*
X118263641Y-97410000D01*
X117956359Y-98170000D02*
X118263641Y-98170000D01*
D12*
%TO.C,U1*%
X107774000Y-70678000D02*
X107774000Y-78044000D01*
X107782000Y-76460000D02*
X123782000Y-76460000D01*
X123776000Y-94681000D02*
X123776000Y-93919000D01*
X123782000Y-70660000D02*
X107782000Y-76460000D01*
X107774000Y-93919000D02*
X107774000Y-94681000D01*
X107782000Y-70660000D02*
X123782000Y-76460000D01*
X123776000Y-70678000D02*
X123776000Y-78171000D01*
X107774000Y-70678000D02*
X123776000Y-70678000D01*
X107774000Y-94681000D02*
X123776000Y-94681000D01*
D11*
%TO.C,J1*%
X111055000Y-106970000D02*
X121335000Y-106970000D01*
X115305000Y-106970000D02*
X115305000Y-112970000D01*
X114545000Y-112970000D02*
X114545000Y-106970000D01*
X111055000Y-104310000D02*
X111055000Y-106970000D01*
X119965000Y-106970000D02*
X119965000Y-112970000D01*
X120385000Y-106970000D02*
X120385000Y-112970000D01*
X119725000Y-106970000D02*
X119725000Y-112970000D01*
X112765000Y-112970000D02*
X112005000Y-112970000D01*
X121335000Y-106970000D02*
X121335000Y-104310000D01*
X117845000Y-112970000D02*
X117085000Y-112970000D01*
X117845000Y-103912929D02*
X117845000Y-104310000D01*
X117845000Y-106970000D02*
X117845000Y-112970000D01*
X120205000Y-106970000D02*
X120205000Y-112970000D01*
X114545000Y-103912929D02*
X114545000Y-104310000D01*
X112005000Y-103912929D02*
X112005000Y-104310000D01*
X118735000Y-104310000D02*
X118735000Y-106970000D01*
X113655000Y-104310000D02*
X113655000Y-106970000D01*
X121335000Y-104310000D02*
X111055000Y-104310000D01*
X120325000Y-106970000D02*
X120325000Y-112970000D01*
X120385000Y-103980000D02*
X120385000Y-104310000D01*
X119625000Y-112970000D02*
X119625000Y-106970000D01*
X112005000Y-112970000D02*
X112005000Y-106970000D01*
X120085000Y-106970000D02*
X120085000Y-112970000D01*
X115305000Y-112970000D02*
X114545000Y-112970000D01*
X115305000Y-103912929D02*
X115305000Y-104310000D01*
X119625000Y-103980000D02*
X119625000Y-104310000D01*
X117085000Y-103912929D02*
X117085000Y-104310000D01*
X121275000Y-101600000D02*
X121275000Y-102870000D01*
X112765000Y-106970000D02*
X112765000Y-112970000D01*
X116195000Y-104310000D02*
X116195000Y-106970000D01*
X120385000Y-112970000D02*
X119625000Y-112970000D01*
X117085000Y-112970000D02*
X117085000Y-106970000D01*
X112765000Y-103912929D02*
X112765000Y-104310000D01*
X120005000Y-101600000D02*
X121275000Y-101600000D01*
X119845000Y-106970000D02*
X119845000Y-112970000D01*
%TO.C,C1*%
X106855000Y-96567164D02*
X106855000Y-96782836D01*
X107575000Y-96567164D02*
X107575000Y-96782836D01*
%TO.C,R5*%
X111505000Y-97943641D02*
X111505000Y-97636359D01*
X110745000Y-97943641D02*
X110745000Y-97636359D01*
%TO.C,C2*%
X108845000Y-96567164D02*
X108845000Y-96782836D01*
X108125000Y-96567164D02*
X108125000Y-96782836D01*
%TO.C,R3*%
X115723641Y-98170000D02*
X115416359Y-98170000D01*
X115723641Y-97410000D02*
X115416359Y-97410000D01*
%TO.C,R6*%
X110235000Y-97943641D02*
X110235000Y-97636359D01*
X109475000Y-97943641D02*
X109475000Y-97636359D01*
%TD*%
M02*
