%TF.GenerationSoftware,KiCad,Pcbnew,6.0.5-a6ca702e91~116~ubuntu20.04.1*%
%TF.CreationDate,2022-06-07T16:18:29-07:00*%
%TF.ProjectId,esp8266-dongle,65737038-3236-4362-9d64-6f6e676c652e,rev?*%
%TF.SameCoordinates,Original*%
%TF.FileFunction,Legend,Bot*%
%TF.FilePolarity,Positive*%
%FSLAX46Y46*%
G04 Gerber Fmt 4.6, Leading zero omitted, Abs format (unit mm)*
G04 Created by KiCad (PCBNEW 6.0.5-a6ca702e91~116~ubuntu20.04.1) date 2022-06-07 16:18:29*
%MOMM*%
%LPD*%
G01*
G04 APERTURE LIST*
%ADD10C,0.200000*%
%ADD11C,0.250000*%
%ADD12C,0.120000*%
G04 APERTURE END LIST*
D10*
X119490714Y-94428571D02*
X118633571Y-94428571D01*
X119062142Y-95928571D02*
X119062142Y-94428571D01*
X118276428Y-94428571D02*
X117276428Y-95928571D01*
X117276428Y-94428571D02*
X118276428Y-95928571D01*
X116419285Y-94428571D02*
X116133571Y-94428571D01*
X115990714Y-94500000D01*
X115847857Y-94642857D01*
X115776428Y-94928571D01*
X115776428Y-95428571D01*
X115847857Y-95714285D01*
X115990714Y-95857142D01*
X116133571Y-95928571D01*
X116419285Y-95928571D01*
X116562142Y-95857142D01*
X116705000Y-95714285D01*
X116776428Y-95428571D01*
X116776428Y-94928571D01*
X116705000Y-94642857D01*
X116562142Y-94500000D01*
X116419285Y-94428571D01*
X115133571Y-94428571D02*
X115133571Y-95642857D01*
X115062142Y-95785714D01*
X114990714Y-95857142D01*
X114847857Y-95928571D01*
X114562142Y-95928571D01*
X114419285Y-95857142D01*
X114347857Y-95785714D01*
X114276428Y-95642857D01*
X114276428Y-94428571D01*
X113776428Y-94428571D02*
X112919285Y-94428571D01*
X113347857Y-95928571D02*
X113347857Y-94428571D01*
X118419285Y-84268571D02*
X117490714Y-84268571D01*
X117990714Y-84840000D01*
X117776428Y-84840000D01*
X117633571Y-84911428D01*
X117562142Y-84982857D01*
X117490714Y-85125714D01*
X117490714Y-85482857D01*
X117562142Y-85625714D01*
X117633571Y-85697142D01*
X117776428Y-85768571D01*
X118205000Y-85768571D01*
X118347857Y-85697142D01*
X118419285Y-85625714D01*
X116847857Y-85625714D02*
X116776428Y-85697142D01*
X116847857Y-85768571D01*
X116919285Y-85697142D01*
X116847857Y-85625714D01*
X116847857Y-85768571D01*
X116276428Y-84268571D02*
X115347857Y-84268571D01*
X115847857Y-84840000D01*
X115633571Y-84840000D01*
X115490714Y-84911428D01*
X115419285Y-84982857D01*
X115347857Y-85125714D01*
X115347857Y-85482857D01*
X115419285Y-85625714D01*
X115490714Y-85697142D01*
X115633571Y-85768571D01*
X116062142Y-85768571D01*
X116205000Y-85697142D01*
X116276428Y-85625714D01*
X114919285Y-84268571D02*
X114419285Y-85768571D01*
X113919285Y-84268571D01*
X117597857Y-88308571D02*
X118097857Y-87594285D01*
X118455000Y-88308571D02*
X118455000Y-86808571D01*
X117883571Y-86808571D01*
X117740714Y-86880000D01*
X117669285Y-86951428D01*
X117597857Y-87094285D01*
X117597857Y-87308571D01*
X117669285Y-87451428D01*
X117740714Y-87522857D01*
X117883571Y-87594285D01*
X118455000Y-87594285D01*
X117097857Y-86808571D02*
X116097857Y-88308571D01*
X116097857Y-86808571D02*
X117097857Y-88308571D01*
X115526428Y-88308571D02*
X115526428Y-86808571D01*
X114812142Y-88308571D02*
X114812142Y-86808571D01*
X113955000Y-88308571D01*
X113955000Y-86808571D01*
D11*
X124178142Y-76101857D02*
X124249571Y-76244714D01*
X124249571Y-76530428D01*
X124178142Y-76673285D01*
X124035285Y-76744714D01*
X123963857Y-76744714D01*
X123821000Y-76673285D01*
X123749571Y-76530428D01*
X123749571Y-76316142D01*
X123678142Y-76173285D01*
X123535285Y-76101857D01*
X123463857Y-76101857D01*
X123321000Y-76173285D01*
X123249571Y-76316142D01*
X123249571Y-76530428D01*
X123321000Y-76673285D01*
X124178142Y-77316142D02*
X124249571Y-77459000D01*
X124249571Y-77744714D01*
X124178142Y-77887571D01*
X124035285Y-77959000D01*
X123963857Y-77959000D01*
X123821000Y-77887571D01*
X123749571Y-77744714D01*
X123749571Y-77530428D01*
X123678142Y-77387571D01*
X123535285Y-77316142D01*
X123463857Y-77316142D01*
X123321000Y-77387571D01*
X123249571Y-77530428D01*
X123249571Y-77744714D01*
X123321000Y-77887571D01*
X124249571Y-78601857D02*
X122749571Y-78601857D01*
X124249571Y-79244714D02*
X123463857Y-79244714D01*
X123321000Y-79173285D01*
X123249571Y-79030428D01*
X123249571Y-78816142D01*
X123321000Y-78673285D01*
X123392428Y-78601857D01*
X123678142Y-79959000D02*
X123678142Y-81101857D01*
X124178142Y-81744714D02*
X124249571Y-81887571D01*
X124249571Y-82173285D01*
X124178142Y-82316142D01*
X124035285Y-82387571D01*
X123963857Y-82387571D01*
X123821000Y-82316142D01*
X123749571Y-82173285D01*
X123749571Y-81959000D01*
X123678142Y-81816142D01*
X123535285Y-81744714D01*
X123463857Y-81744714D01*
X123321000Y-81816142D01*
X123249571Y-81959000D01*
X123249571Y-82173285D01*
X123321000Y-82316142D01*
X124178142Y-83601857D02*
X124249571Y-83459000D01*
X124249571Y-83173285D01*
X124178142Y-83030428D01*
X124035285Y-82959000D01*
X123463857Y-82959000D01*
X123321000Y-83030428D01*
X123249571Y-83173285D01*
X123249571Y-83459000D01*
X123321000Y-83601857D01*
X123463857Y-83673285D01*
X123606714Y-83673285D01*
X123749571Y-82959000D01*
X124249571Y-84316142D02*
X123249571Y-84316142D01*
X123535285Y-84316142D02*
X123392428Y-84387571D01*
X123321000Y-84459000D01*
X123249571Y-84601857D01*
X123249571Y-84744714D01*
X124249571Y-85244714D02*
X123249571Y-85244714D01*
X122749571Y-85244714D02*
X122821000Y-85173285D01*
X122892428Y-85244714D01*
X122821000Y-85316142D01*
X122749571Y-85244714D01*
X122892428Y-85244714D01*
X124249571Y-86601857D02*
X123463857Y-86601857D01*
X123321000Y-86530428D01*
X123249571Y-86387571D01*
X123249571Y-86101857D01*
X123321000Y-85959000D01*
X124178142Y-86601857D02*
X124249571Y-86459000D01*
X124249571Y-86101857D01*
X124178142Y-85959000D01*
X124035285Y-85887571D01*
X123892428Y-85887571D01*
X123749571Y-85959000D01*
X123678142Y-86101857D01*
X123678142Y-86459000D01*
X123606714Y-86601857D01*
X124249571Y-87530428D02*
X124178142Y-87387571D01*
X124035285Y-87316142D01*
X122749571Y-87316142D01*
X123249571Y-89101857D02*
X124249571Y-89459000D01*
X123249571Y-89816142D01*
X124249571Y-91173285D02*
X124249571Y-90316142D01*
X124249571Y-90744714D02*
X122749571Y-90744714D01*
X122963857Y-90601857D01*
X123106714Y-90459000D01*
X123178142Y-90316142D01*
X124106714Y-91816142D02*
X124178142Y-91887571D01*
X124249571Y-91816142D01*
X124178142Y-91744714D01*
X124106714Y-91816142D01*
X124249571Y-91816142D01*
X122749571Y-92816142D02*
X122749571Y-92959000D01*
X122821000Y-93101857D01*
X122892428Y-93173285D01*
X123035285Y-93244714D01*
X123321000Y-93316142D01*
X123678142Y-93316142D01*
X123963857Y-93244714D01*
X124106714Y-93173285D01*
X124178142Y-93101857D01*
X124249571Y-92959000D01*
X124249571Y-92816142D01*
X124178142Y-92673285D01*
X124106714Y-92601857D01*
X123963857Y-92530428D01*
X123678142Y-92459000D01*
X123321000Y-92459000D01*
X123035285Y-92530428D01*
X122892428Y-92601857D01*
X122821000Y-92673285D01*
X122749571Y-92816142D01*
D10*
X117347857Y-76720000D02*
X117490714Y-76648571D01*
X117705000Y-76648571D01*
X117919285Y-76720000D01*
X118062142Y-76862857D01*
X118133571Y-77005714D01*
X118205000Y-77291428D01*
X118205000Y-77505714D01*
X118133571Y-77791428D01*
X118062142Y-77934285D01*
X117919285Y-78077142D01*
X117705000Y-78148571D01*
X117562142Y-78148571D01*
X117347857Y-78077142D01*
X117276428Y-78005714D01*
X117276428Y-77505714D01*
X117562142Y-77505714D01*
X116633571Y-78148571D02*
X116633571Y-76648571D01*
X115776428Y-78148571D01*
X115776428Y-76648571D01*
X115062142Y-78148571D02*
X115062142Y-76648571D01*
X114705000Y-76648571D01*
X114490714Y-76720000D01*
X114347857Y-76862857D01*
X114276428Y-77005714D01*
X114205000Y-77291428D01*
X114205000Y-77505714D01*
X114276428Y-77791428D01*
X114347857Y-77934285D01*
X114490714Y-78077142D01*
X114705000Y-78148571D01*
X115062142Y-78148571D01*
D11*
X108755571Y-76395571D02*
X107255571Y-76395571D01*
X108755571Y-77038428D02*
X107969857Y-77038428D01*
X107827000Y-76967000D01*
X107755571Y-76824142D01*
X107755571Y-76609857D01*
X107827000Y-76467000D01*
X107898428Y-76395571D01*
X108755571Y-78395571D02*
X107969857Y-78395571D01*
X107827000Y-78324142D01*
X107755571Y-78181285D01*
X107755571Y-77895571D01*
X107827000Y-77752714D01*
X108684142Y-78395571D02*
X108755571Y-78252714D01*
X108755571Y-77895571D01*
X108684142Y-77752714D01*
X108541285Y-77681285D01*
X108398428Y-77681285D01*
X108255571Y-77752714D01*
X108184142Y-77895571D01*
X108184142Y-78252714D01*
X108112714Y-78395571D01*
X108684142Y-79752714D02*
X108755571Y-79609857D01*
X108755571Y-79324142D01*
X108684142Y-79181285D01*
X108612714Y-79109857D01*
X108469857Y-79038428D01*
X108041285Y-79038428D01*
X107898428Y-79109857D01*
X107827000Y-79181285D01*
X107755571Y-79324142D01*
X107755571Y-79609857D01*
X107827000Y-79752714D01*
X108755571Y-80395571D02*
X107255571Y-80395571D01*
X108184142Y-80538428D02*
X108755571Y-80967000D01*
X107755571Y-80967000D02*
X108327000Y-80395571D01*
X108755571Y-82252714D02*
X107969857Y-82252714D01*
X107827000Y-82181285D01*
X107755571Y-82038428D01*
X107755571Y-81752714D01*
X107827000Y-81609857D01*
X108684142Y-82252714D02*
X108755571Y-82109857D01*
X108755571Y-81752714D01*
X108684142Y-81609857D01*
X108541285Y-81538428D01*
X108398428Y-81538428D01*
X108255571Y-81609857D01*
X108184142Y-81752714D01*
X108184142Y-82109857D01*
X108112714Y-82252714D01*
X107755571Y-82752714D02*
X107755571Y-83324142D01*
X107255571Y-82967000D02*
X108541285Y-82967000D01*
X108684142Y-83038428D01*
X108755571Y-83181285D01*
X108755571Y-83324142D01*
X108755571Y-83824142D02*
X107255571Y-83824142D01*
X108755571Y-84467000D02*
X107969857Y-84467000D01*
X107827000Y-84395571D01*
X107755571Y-84252714D01*
X107755571Y-84038428D01*
X107827000Y-83895571D01*
X107898428Y-83824142D01*
X108755571Y-85395571D02*
X108684142Y-85252714D01*
X108612714Y-85181285D01*
X108469857Y-85109857D01*
X108041285Y-85109857D01*
X107898428Y-85181285D01*
X107827000Y-85252714D01*
X107755571Y-85395571D01*
X107755571Y-85609857D01*
X107827000Y-85752714D01*
X107898428Y-85824142D01*
X108041285Y-85895571D01*
X108469857Y-85895571D01*
X108612714Y-85824142D01*
X108684142Y-85752714D01*
X108755571Y-85609857D01*
X108755571Y-85395571D01*
X107755571Y-86538428D02*
X108755571Y-86538428D01*
X107898428Y-86538428D02*
X107827000Y-86609857D01*
X107755571Y-86752714D01*
X107755571Y-86967000D01*
X107827000Y-87109857D01*
X107969857Y-87181285D01*
X108755571Y-87181285D01*
X107398428Y-88967000D02*
X107327000Y-89038428D01*
X107255571Y-89181285D01*
X107255571Y-89538428D01*
X107327000Y-89681285D01*
X107398428Y-89752714D01*
X107541285Y-89824142D01*
X107684142Y-89824142D01*
X107898428Y-89752714D01*
X108755571Y-88895571D01*
X108755571Y-89824142D01*
X107255571Y-90752714D02*
X107255571Y-90895571D01*
X107327000Y-91038428D01*
X107398428Y-91109857D01*
X107541285Y-91181285D01*
X107827000Y-91252714D01*
X108184142Y-91252714D01*
X108469857Y-91181285D01*
X108612714Y-91109857D01*
X108684142Y-91038428D01*
X108755571Y-90895571D01*
X108755571Y-90752714D01*
X108684142Y-90609857D01*
X108612714Y-90538428D01*
X108469857Y-90467000D01*
X108184142Y-90395571D01*
X107827000Y-90395571D01*
X107541285Y-90467000D01*
X107398428Y-90538428D01*
X107327000Y-90609857D01*
X107255571Y-90752714D01*
X107398428Y-91824142D02*
X107327000Y-91895571D01*
X107255571Y-92038428D01*
X107255571Y-92395571D01*
X107327000Y-92538428D01*
X107398428Y-92609857D01*
X107541285Y-92681285D01*
X107684142Y-92681285D01*
X107898428Y-92609857D01*
X108755571Y-91752714D01*
X108755571Y-92681285D01*
X107398428Y-93252714D02*
X107327000Y-93324142D01*
X107255571Y-93467000D01*
X107255571Y-93824142D01*
X107327000Y-93967000D01*
X107398428Y-94038428D01*
X107541285Y-94109857D01*
X107684142Y-94109857D01*
X107898428Y-94038428D01*
X108755571Y-93181285D01*
X108755571Y-94109857D01*
D12*
%TO.C,JP4*%
X121800000Y-88690000D02*
X119850000Y-88690000D01*
X119300000Y-92540000D02*
X119600000Y-92840000D01*
X121800000Y-94190000D02*
X121800000Y-88690000D01*
X119850000Y-94190000D02*
X121800000Y-94190000D01*
X119300000Y-93140000D02*
X119300000Y-92540000D01*
X119600000Y-92840000D02*
X119300000Y-93140000D01*
X119850000Y-88690000D02*
X119850000Y-94190000D01*
%TO.C,JP7*%
X112950000Y-93140000D02*
X112950000Y-92540000D01*
X112950000Y-92540000D02*
X113250000Y-92840000D01*
X115450000Y-88690000D02*
X113500000Y-88690000D01*
X115450000Y-94190000D02*
X115450000Y-88690000D01*
X113500000Y-94190000D02*
X115450000Y-94190000D01*
X113250000Y-92840000D02*
X112950000Y-93140000D01*
X113500000Y-88690000D02*
X113500000Y-94190000D01*
%TO.C,JP8*%
X118625000Y-94190000D02*
X118625000Y-88690000D01*
X116425000Y-92840000D02*
X116125000Y-93140000D01*
X116125000Y-93140000D02*
X116125000Y-92540000D01*
X118625000Y-88690000D02*
X116675000Y-88690000D01*
X116675000Y-88690000D02*
X116675000Y-94190000D01*
X116125000Y-92540000D02*
X116425000Y-92840000D01*
X116675000Y-94190000D02*
X118625000Y-94190000D01*
%TO.C,G\u002A\u002A\u002A*%
G36*
X118852408Y-70203759D02*
G01*
X118994178Y-70257304D01*
X119117803Y-70352864D01*
X119213607Y-70492581D01*
X119255355Y-70612152D01*
X119266023Y-70781025D01*
X119225114Y-70942303D01*
X119136299Y-71083759D01*
X119003249Y-71193166D01*
X118924515Y-71226148D01*
X118783190Y-71252386D01*
X118633045Y-71252256D01*
X118501447Y-71224073D01*
X118380046Y-71156625D01*
X118262914Y-71036946D01*
X118185004Y-70888529D01*
X118156722Y-70726395D01*
X118162501Y-70644959D01*
X118209978Y-70491357D01*
X118297358Y-70366929D01*
X118414966Y-70273815D01*
X118553127Y-70214154D01*
X118702165Y-70190089D01*
X118852408Y-70203759D01*
G37*
G36*
X121512898Y-71658615D02*
G01*
X121748124Y-71761398D01*
X121984976Y-71920092D01*
X122169882Y-72064021D01*
X122304988Y-71931713D01*
X122371872Y-71871018D01*
X122570411Y-71739947D01*
X122797090Y-71657829D01*
X123058530Y-71621944D01*
X123243105Y-71621373D01*
X123447424Y-71650144D01*
X123637855Y-71717377D01*
X123836362Y-71828918D01*
X123907463Y-71873558D01*
X123988082Y-71916853D01*
X124040105Y-71930696D01*
X124075147Y-71919491D01*
X124156356Y-71863725D01*
X124286812Y-71794733D01*
X124422921Y-71754337D01*
X124582144Y-71738147D01*
X124781939Y-71741772D01*
X124962081Y-71751397D01*
X124969857Y-73305120D01*
X124977632Y-74858844D01*
X123986312Y-74858844D01*
X123986312Y-73867099D01*
X123986305Y-73801594D01*
X123985861Y-73525733D01*
X123984094Y-73301982D01*
X123980129Y-73123786D01*
X123973093Y-72984593D01*
X123962110Y-72877849D01*
X123946305Y-72796999D01*
X123924804Y-72735491D01*
X123896732Y-72686769D01*
X123861213Y-72644282D01*
X123817374Y-72601475D01*
X123689895Y-72511569D01*
X123536514Y-72459935D01*
X123380212Y-72455824D01*
X123232665Y-72497627D01*
X123105550Y-72583738D01*
X123010544Y-72712550D01*
X123005509Y-72722809D01*
X122990115Y-72759371D01*
X122977736Y-72802332D01*
X122967959Y-72858399D01*
X122960373Y-72934278D01*
X122954565Y-73036673D01*
X122950122Y-73172292D01*
X122946631Y-73347840D01*
X122943682Y-73570022D01*
X122940860Y-73845546D01*
X122931223Y-74858844D01*
X121974728Y-74858844D01*
X121974069Y-73875569D01*
X121973716Y-73633140D01*
X121972685Y-73407895D01*
X121970651Y-73229889D01*
X121967267Y-73092307D01*
X121962188Y-72988333D01*
X121955066Y-72911150D01*
X121945555Y-72853945D01*
X121933310Y-72809900D01*
X121917982Y-72772201D01*
X121860553Y-72672331D01*
X121740219Y-72552516D01*
X121584110Y-72480803D01*
X121391825Y-72456952D01*
X121390534Y-72456954D01*
X121228657Y-72485444D01*
X121091485Y-72566766D01*
X120987340Y-72696002D01*
X120968195Y-72731306D01*
X120952606Y-72766442D01*
X120940380Y-72807692D01*
X120931062Y-72861797D01*
X120924200Y-72935498D01*
X120919341Y-73035538D01*
X120916031Y-73168658D01*
X120913818Y-73341599D01*
X120912248Y-73561104D01*
X120910868Y-73833914D01*
X120906064Y-74843832D01*
X120399938Y-74852085D01*
X119893813Y-74860338D01*
X119913433Y-73741210D01*
X119918660Y-73483689D01*
X119925041Y-73236903D01*
X119932226Y-73011251D01*
X119939911Y-72814518D01*
X119947791Y-72654482D01*
X119955562Y-72538927D01*
X119962920Y-72475633D01*
X119999530Y-72336854D01*
X120102806Y-72111522D01*
X120251020Y-71924622D01*
X120441742Y-71778293D01*
X120672540Y-71674673D01*
X120940981Y-71615899D01*
X121006611Y-71608918D01*
X121269119Y-71608777D01*
X121512898Y-71658615D01*
G37*
G36*
X119185075Y-72539517D02*
G01*
X119185357Y-72609920D01*
X119187006Y-72881451D01*
X119189552Y-73184979D01*
X119192776Y-73498822D01*
X119196463Y-73801297D01*
X119200395Y-74070723D01*
X119213171Y-74858844D01*
X118221773Y-74858844D01*
X118221773Y-71796432D01*
X119182530Y-71796432D01*
X119185075Y-72539517D01*
G37*
G36*
X108551273Y-71652187D02*
G01*
X108797737Y-71756462D01*
X109043993Y-71919234D01*
X109228105Y-72062305D01*
X109372470Y-71927269D01*
X109460231Y-71851625D01*
X109654181Y-71729207D01*
X109869154Y-71654447D01*
X110118341Y-71621944D01*
X110302916Y-71621373D01*
X110507235Y-71650144D01*
X110697666Y-71717377D01*
X110896173Y-71828918D01*
X110967274Y-71873558D01*
X111047893Y-71916853D01*
X111099916Y-71930696D01*
X111134958Y-71919491D01*
X111216167Y-71863725D01*
X111346623Y-71794733D01*
X111482732Y-71754337D01*
X111641955Y-71738147D01*
X111841750Y-71741772D01*
X112021892Y-71751397D01*
X112029668Y-73305120D01*
X112037444Y-74858844D01*
X111037926Y-74858844D01*
X111052885Y-73935617D01*
X111055011Y-73796974D01*
X111057949Y-73526731D01*
X111057767Y-73307006D01*
X111053737Y-73131234D01*
X111045126Y-72992851D01*
X111031205Y-72885292D01*
X111011242Y-72801993D01*
X110984508Y-72736389D01*
X110950270Y-72681917D01*
X110907800Y-72632011D01*
X110819200Y-72554133D01*
X110666682Y-72480704D01*
X110484144Y-72457065D01*
X110466093Y-72457338D01*
X110306899Y-72487730D01*
X110178610Y-72569337D01*
X110079072Y-72703470D01*
X110063791Y-72733077D01*
X110048159Y-72769535D01*
X110035763Y-72812027D01*
X110026139Y-72867305D01*
X110018825Y-72942120D01*
X110013356Y-73043222D01*
X110009270Y-73177365D01*
X110006103Y-73351299D01*
X110003391Y-73571775D01*
X110000671Y-73845546D01*
X109991034Y-74858844D01*
X109034539Y-74858844D01*
X109033880Y-73875569D01*
X109033527Y-73633140D01*
X109032496Y-73407895D01*
X109030462Y-73229889D01*
X109027078Y-73092307D01*
X109021999Y-72988333D01*
X109014877Y-72911150D01*
X109005366Y-72853945D01*
X108993121Y-72809900D01*
X108977793Y-72772201D01*
X108976340Y-72769072D01*
X108876566Y-72618931D01*
X108744244Y-72515674D01*
X108587514Y-72462110D01*
X108414519Y-72461048D01*
X108233398Y-72515300D01*
X108185808Y-72537530D01*
X108136009Y-72565635D01*
X108095880Y-72599704D01*
X108064261Y-72645746D01*
X108039991Y-72709770D01*
X108021910Y-72797784D01*
X108008856Y-72915798D01*
X107999670Y-73069819D01*
X107993191Y-73265857D01*
X107988259Y-73509920D01*
X107983712Y-73808016D01*
X107968700Y-74843832D01*
X107461758Y-74852082D01*
X106954815Y-74860332D01*
X106976330Y-73756219D01*
X106977287Y-73707426D01*
X106983829Y-73398292D01*
X106990524Y-73141775D01*
X106997986Y-72931377D01*
X107006831Y-72760598D01*
X107017677Y-72622938D01*
X107031139Y-72511898D01*
X107047833Y-72420978D01*
X107068375Y-72343680D01*
X107093382Y-72273503D01*
X107123469Y-72203948D01*
X107148198Y-72152734D01*
X107257733Y-71977813D01*
X107392606Y-71841766D01*
X107560795Y-71739403D01*
X107770276Y-71665536D01*
X108029029Y-71614977D01*
X108039196Y-71613570D01*
X108299970Y-71605019D01*
X108551273Y-71652187D01*
G37*
G36*
X115757282Y-71617454D02*
G01*
X116007847Y-71663814D01*
X116252282Y-71753650D01*
X116482717Y-71888152D01*
X116571277Y-71951212D01*
X116660598Y-71876053D01*
X116725227Y-71832905D01*
X116874666Y-71776461D01*
X117062114Y-71745060D01*
X117276029Y-71741232D01*
X117486194Y-71751397D01*
X117493970Y-73305120D01*
X117501746Y-74858844D01*
X116574686Y-74858844D01*
X116565074Y-73830534D01*
X116563866Y-73704323D01*
X116561101Y-73450954D01*
X116558073Y-73248324D01*
X116554384Y-73089924D01*
X116549633Y-72969246D01*
X116543422Y-72879781D01*
X116535351Y-72815020D01*
X116525023Y-72768456D01*
X116512037Y-72733579D01*
X116495994Y-72703882D01*
X116424188Y-72619273D01*
X116293996Y-72533666D01*
X116133135Y-72477287D01*
X115956599Y-72456999D01*
X115830749Y-72464287D01*
X115686038Y-72502948D01*
X115578691Y-72579020D01*
X115499886Y-72697141D01*
X115491021Y-72716214D01*
X115471805Y-72765407D01*
X115456964Y-72821983D01*
X115445624Y-72894720D01*
X115436914Y-72992393D01*
X115429962Y-73123779D01*
X115423896Y-73297653D01*
X115417844Y-73522792D01*
X115416369Y-73582961D01*
X115411311Y-73806698D01*
X115406899Y-74028369D01*
X115403386Y-74233484D01*
X115401026Y-74407554D01*
X115400074Y-74536089D01*
X115399551Y-74858844D01*
X114437193Y-74858844D01*
X114442711Y-73950628D01*
X114443691Y-73801766D01*
X114446652Y-73471595D01*
X114450685Y-73193623D01*
X114456192Y-72962258D01*
X114463572Y-72771905D01*
X114473226Y-72616970D01*
X114485555Y-72491860D01*
X114500958Y-72390980D01*
X114519837Y-72308738D01*
X114542591Y-72239538D01*
X114569622Y-72177786D01*
X114687952Y-71996075D01*
X114851119Y-71842933D01*
X115047506Y-71727308D01*
X115269242Y-71650392D01*
X115508457Y-71613377D01*
X115757282Y-71617454D01*
G37*
G36*
X113329509Y-70202605D02*
G01*
X113499630Y-70250472D01*
X113639339Y-70349838D01*
X113746228Y-70499166D01*
X113746642Y-70499975D01*
X113771452Y-70587719D01*
X113781336Y-70706120D01*
X113775781Y-70827891D01*
X113754272Y-70925747D01*
X113740620Y-70955143D01*
X113668342Y-71054899D01*
X113568598Y-71148308D01*
X113463026Y-71213959D01*
X113447504Y-71220130D01*
X113350189Y-71244396D01*
X113244391Y-71254832D01*
X113125791Y-71244567D01*
X112968571Y-71190590D01*
X112840664Y-71098530D01*
X112746763Y-70977626D01*
X112691565Y-70837119D01*
X112679765Y-70686249D01*
X112716058Y-70534257D01*
X112805140Y-70390382D01*
X112931065Y-70279587D01*
X113086678Y-70215047D01*
X113274898Y-70198578D01*
X113329509Y-70202605D01*
G37*
G36*
X113718227Y-74858844D02*
G01*
X112757471Y-74858844D01*
X112757471Y-73295591D01*
X112757522Y-73022337D01*
X112757822Y-72719018D01*
X112758536Y-72467367D01*
X112759823Y-72262661D01*
X112761844Y-72100177D01*
X112764760Y-71975192D01*
X112768730Y-71882982D01*
X112773915Y-71818825D01*
X112780475Y-71777997D01*
X112788571Y-71755775D01*
X112798363Y-71747437D01*
X112810012Y-71748258D01*
X113070371Y-71808162D01*
X113322617Y-71822021D01*
X113561566Y-71785819D01*
X113718227Y-71745181D01*
X113718227Y-74858844D01*
G37*
%TO.C,JP5*%
X113500000Y-78530000D02*
X113500000Y-84030000D01*
X112950000Y-82380000D02*
X113250000Y-82680000D01*
X113500000Y-84030000D02*
X115450000Y-84030000D01*
X113250000Y-82680000D02*
X112950000Y-82980000D01*
X115450000Y-78530000D02*
X113500000Y-78530000D01*
X115450000Y-84030000D02*
X115450000Y-78530000D01*
X112950000Y-82980000D02*
X112950000Y-82380000D01*
%TO.C,JP3*%
X110325000Y-88690000D02*
X110325000Y-94190000D01*
X109775000Y-93140000D02*
X109775000Y-92540000D01*
X112275000Y-94190000D02*
X112275000Y-88690000D01*
X110075000Y-92840000D02*
X109775000Y-93140000D01*
X112275000Y-88690000D02*
X110325000Y-88690000D01*
X109775000Y-92540000D02*
X110075000Y-92840000D01*
X110325000Y-94190000D02*
X112275000Y-94190000D01*
%TO.C,JP6*%
X116125000Y-82380000D02*
X116425000Y-82680000D01*
X116125000Y-82980000D02*
X116125000Y-82380000D01*
X116675000Y-78530000D02*
X116675000Y-84030000D01*
X116425000Y-82680000D02*
X116125000Y-82980000D01*
X116675000Y-84030000D02*
X118625000Y-84030000D01*
X118625000Y-78530000D02*
X116675000Y-78530000D01*
X118625000Y-84030000D02*
X118625000Y-78530000D01*
%TO.C,JP2*%
X121800000Y-78530000D02*
X119850000Y-78530000D01*
X119600000Y-82680000D02*
X119300000Y-82980000D01*
X119300000Y-82980000D02*
X119300000Y-82380000D01*
X119850000Y-78530000D02*
X119850000Y-84030000D01*
X119300000Y-82380000D02*
X119600000Y-82680000D01*
X119850000Y-84030000D02*
X121800000Y-84030000D01*
X121800000Y-84030000D02*
X121800000Y-78530000D01*
%TO.C,JP1*%
X110325000Y-84030000D02*
X112275000Y-84030000D01*
X112275000Y-84030000D02*
X112275000Y-78530000D01*
X109775000Y-82380000D02*
X110075000Y-82680000D01*
X112275000Y-78530000D02*
X110325000Y-78530000D01*
X109775000Y-82980000D02*
X109775000Y-82380000D01*
X110075000Y-82680000D02*
X109775000Y-82980000D01*
X110325000Y-78530000D02*
X110325000Y-84030000D01*
%TD*%
M02*
