G04 #@! TF.GenerationSoftware,KiCad,Pcbnew,6.0.10-86aedd382b~118~ubuntu22.04.1*
G04 #@! TF.CreationDate,2023-01-28T15:28:02-08:00*
G04 #@! TF.ProjectId,esp8266-dongle,65737038-3236-4362-9d64-6f6e676c652e,rev?*
G04 #@! TF.SameCoordinates,Original*
G04 #@! TF.FileFunction,Legend,Top*
G04 #@! TF.FilePolarity,Positive*
%FSLAX46Y46*%
G04 Gerber Fmt 4.6, Leading zero omitted, Abs format (unit mm)*
G04 Created by KiCad (PCBNEW 6.0.10-86aedd382b~118~ubuntu22.04.1) date 2023-01-28 15:28:02*
%MOMM*%
%LPD*%
G01*
G04 APERTURE LIST*
%ADD10C,0.150000*%
%ADD11C,0.120000*%
%ADD12C,0.152400*%
G04 APERTURE END LIST*
D10*
G04 #@! TO.C,R2*
X121837380Y-97956666D02*
X121361190Y-98290000D01*
X121837380Y-98528095D02*
X120837380Y-98528095D01*
X120837380Y-98147142D01*
X120885000Y-98051904D01*
X120932619Y-98004285D01*
X121027857Y-97956666D01*
X121170714Y-97956666D01*
X121265952Y-98004285D01*
X121313571Y-98051904D01*
X121361190Y-98147142D01*
X121361190Y-98528095D01*
X120932619Y-97575714D02*
X120885000Y-97528095D01*
X120837380Y-97432857D01*
X120837380Y-97194761D01*
X120885000Y-97099523D01*
X120932619Y-97051904D01*
X121027857Y-97004285D01*
X121123095Y-97004285D01*
X121265952Y-97051904D01*
X121837380Y-97623333D01*
X121837380Y-97004285D01*
G04 #@! TO.C,R1*
X125447380Y-97956666D02*
X124971190Y-98290000D01*
X125447380Y-98528095D02*
X124447380Y-98528095D01*
X124447380Y-98147142D01*
X124495000Y-98051904D01*
X124542619Y-98004285D01*
X124637857Y-97956666D01*
X124780714Y-97956666D01*
X124875952Y-98004285D01*
X124923571Y-98051904D01*
X124971190Y-98147142D01*
X124971190Y-98528095D01*
X125447380Y-97004285D02*
X125447380Y-97575714D01*
X125447380Y-97290000D02*
X124447380Y-97290000D01*
X124590238Y-97385238D01*
X124685476Y-97480476D01*
X124733095Y-97575714D01*
G04 #@! TO.C,U1*
X117132380Y-86171904D02*
X117941904Y-86171904D01*
X118037142Y-86124285D01*
X118084761Y-86076666D01*
X118132380Y-85981428D01*
X118132380Y-85790952D01*
X118084761Y-85695714D01*
X118037142Y-85648095D01*
X117941904Y-85600476D01*
X117132380Y-85600476D01*
X118132380Y-84600476D02*
X118132380Y-85171904D01*
X118132380Y-84886190D02*
X117132380Y-84886190D01*
X117275238Y-84981428D01*
X117370476Y-85076666D01*
X117418095Y-85171904D01*
X111967714Y-74112380D02*
X111967714Y-73112380D01*
X112539142Y-74112380D01*
X112539142Y-73112380D01*
X113158190Y-74112380D02*
X113062952Y-74064761D01*
X113015333Y-74017142D01*
X112967714Y-73921904D01*
X112967714Y-73636190D01*
X113015333Y-73540952D01*
X113062952Y-73493333D01*
X113158190Y-73445714D01*
X113301047Y-73445714D01*
X113396285Y-73493333D01*
X113443904Y-73540952D01*
X113491523Y-73636190D01*
X113491523Y-73921904D01*
X113443904Y-74017142D01*
X113396285Y-74064761D01*
X113301047Y-74112380D01*
X113158190Y-74112380D01*
X115253428Y-74017142D02*
X115205809Y-74064761D01*
X115062952Y-74112380D01*
X114967714Y-74112380D01*
X114824857Y-74064761D01*
X114729619Y-73969523D01*
X114682000Y-73874285D01*
X114634380Y-73683809D01*
X114634380Y-73540952D01*
X114682000Y-73350476D01*
X114729619Y-73255238D01*
X114824857Y-73160000D01*
X114967714Y-73112380D01*
X115062952Y-73112380D01*
X115205809Y-73160000D01*
X115253428Y-73207619D01*
X115824857Y-74112380D02*
X115729619Y-74064761D01*
X115682000Y-74017142D01*
X115634380Y-73921904D01*
X115634380Y-73636190D01*
X115682000Y-73540952D01*
X115729619Y-73493333D01*
X115824857Y-73445714D01*
X115967714Y-73445714D01*
X116062952Y-73493333D01*
X116110571Y-73540952D01*
X116158190Y-73636190D01*
X116158190Y-73921904D01*
X116110571Y-74017142D01*
X116062952Y-74064761D01*
X115967714Y-74112380D01*
X115824857Y-74112380D01*
X116586761Y-73445714D02*
X116586761Y-74445714D01*
X116586761Y-73493333D02*
X116682000Y-73445714D01*
X116872476Y-73445714D01*
X116967714Y-73493333D01*
X117015333Y-73540952D01*
X117062952Y-73636190D01*
X117062952Y-73921904D01*
X117015333Y-74017142D01*
X116967714Y-74064761D01*
X116872476Y-74112380D01*
X116682000Y-74112380D01*
X116586761Y-74064761D01*
X117491523Y-73445714D02*
X117491523Y-74445714D01*
X117491523Y-73493333D02*
X117586761Y-73445714D01*
X117777238Y-73445714D01*
X117872476Y-73493333D01*
X117920095Y-73540952D01*
X117967714Y-73636190D01*
X117967714Y-73921904D01*
X117920095Y-74017142D01*
X117872476Y-74064761D01*
X117777238Y-74112380D01*
X117586761Y-74112380D01*
X117491523Y-74064761D01*
X118777238Y-74064761D02*
X118682000Y-74112380D01*
X118491523Y-74112380D01*
X118396285Y-74064761D01*
X118348666Y-73969523D01*
X118348666Y-73588571D01*
X118396285Y-73493333D01*
X118491523Y-73445714D01*
X118682000Y-73445714D01*
X118777238Y-73493333D01*
X118824857Y-73588571D01*
X118824857Y-73683809D01*
X118348666Y-73779047D01*
X119253428Y-74112380D02*
X119253428Y-73445714D01*
X119253428Y-73636190D02*
X119301047Y-73540952D01*
X119348666Y-73493333D01*
X119443904Y-73445714D01*
X119539142Y-73445714D01*
G04 #@! TO.C,J1*
X121722380Y-112218333D02*
X122436666Y-112218333D01*
X122579523Y-112265952D01*
X122674761Y-112361190D01*
X122722380Y-112504047D01*
X122722380Y-112599285D01*
X122722380Y-111218333D02*
X122722380Y-111789761D01*
X122722380Y-111504047D02*
X121722380Y-111504047D01*
X121865238Y-111599285D01*
X121960476Y-111694523D01*
X122008095Y-111789761D01*
G04 #@! TO.C,C1*
X107545142Y-99861666D02*
X107592761Y-99909285D01*
X107640380Y-100052142D01*
X107640380Y-100147380D01*
X107592761Y-100290238D01*
X107497523Y-100385476D01*
X107402285Y-100433095D01*
X107211809Y-100480714D01*
X107068952Y-100480714D01*
X106878476Y-100433095D01*
X106783238Y-100385476D01*
X106688000Y-100290238D01*
X106640380Y-100147380D01*
X106640380Y-100052142D01*
X106688000Y-99909285D01*
X106735619Y-99861666D01*
X107640380Y-98909285D02*
X107640380Y-99480714D01*
X107640380Y-99195000D02*
X106640380Y-99195000D01*
X106783238Y-99290238D01*
X106878476Y-99385476D01*
X106926095Y-99480714D01*
G04 #@! TO.C,R5*
X112847380Y-97956666D02*
X112371190Y-98290000D01*
X112847380Y-98528095D02*
X111847380Y-98528095D01*
X111847380Y-98147142D01*
X111895000Y-98051904D01*
X111942619Y-98004285D01*
X112037857Y-97956666D01*
X112180714Y-97956666D01*
X112275952Y-98004285D01*
X112323571Y-98051904D01*
X112371190Y-98147142D01*
X112371190Y-98528095D01*
X111847380Y-97051904D02*
X111847380Y-97528095D01*
X112323571Y-97575714D01*
X112275952Y-97528095D01*
X112228333Y-97432857D01*
X112228333Y-97194761D01*
X112275952Y-97099523D01*
X112323571Y-97051904D01*
X112418809Y-97004285D01*
X112656904Y-97004285D01*
X112752142Y-97051904D01*
X112799761Y-97099523D01*
X112847380Y-97194761D01*
X112847380Y-97432857D01*
X112799761Y-97528095D01*
X112752142Y-97575714D01*
G04 #@! TO.C,C2*
X108842142Y-99226666D02*
X108889761Y-99274285D01*
X108937380Y-99417142D01*
X108937380Y-99512380D01*
X108889761Y-99655238D01*
X108794523Y-99750476D01*
X108699285Y-99798095D01*
X108508809Y-99845714D01*
X108365952Y-99845714D01*
X108175476Y-99798095D01*
X108080238Y-99750476D01*
X107985000Y-99655238D01*
X107937380Y-99512380D01*
X107937380Y-99417142D01*
X107985000Y-99274285D01*
X108032619Y-99226666D01*
X108032619Y-98845714D02*
X107985000Y-98798095D01*
X107937380Y-98702857D01*
X107937380Y-98464761D01*
X107985000Y-98369523D01*
X108032619Y-98321904D01*
X108127857Y-98274285D01*
X108223095Y-98274285D01*
X108365952Y-98321904D01*
X108937380Y-98893333D01*
X108937380Y-98274285D01*
G04 #@! TO.C,R6*
X110307380Y-100623666D02*
X109831190Y-100957000D01*
X110307380Y-101195095D02*
X109307380Y-101195095D01*
X109307380Y-100814142D01*
X109355000Y-100718904D01*
X109402619Y-100671285D01*
X109497857Y-100623666D01*
X109640714Y-100623666D01*
X109735952Y-100671285D01*
X109783571Y-100718904D01*
X109831190Y-100814142D01*
X109831190Y-101195095D01*
X109307380Y-99766523D02*
X109307380Y-99957000D01*
X109355000Y-100052238D01*
X109402619Y-100099857D01*
X109545476Y-100195095D01*
X109735952Y-100242714D01*
X110116904Y-100242714D01*
X110212142Y-100195095D01*
X110259761Y-100147476D01*
X110307380Y-100052238D01*
X110307380Y-99861761D01*
X110259761Y-99766523D01*
X110212142Y-99718904D01*
X110116904Y-99671285D01*
X109878809Y-99671285D01*
X109783571Y-99718904D01*
X109735952Y-99766523D01*
X109688333Y-99861761D01*
X109688333Y-100052238D01*
X109735952Y-100147476D01*
X109783571Y-100195095D01*
X109878809Y-100242714D01*
G04 #@! TO.C,R7*
X123783333Y-100782380D02*
X123450000Y-100306190D01*
X123211904Y-100782380D02*
X123211904Y-99782380D01*
X123592857Y-99782380D01*
X123688095Y-99830000D01*
X123735714Y-99877619D01*
X123783333Y-99972857D01*
X123783333Y-100115714D01*
X123735714Y-100210952D01*
X123688095Y-100258571D01*
X123592857Y-100306190D01*
X123211904Y-100306190D01*
X124116666Y-99782380D02*
X124783333Y-99782380D01*
X124354761Y-100782380D01*
D11*
G04 #@! TO.C,R2*
X122935000Y-97943641D02*
X122935000Y-97636359D01*
X122175000Y-97943641D02*
X122175000Y-97636359D01*
G04 #@! TO.C,R1*
X123445000Y-97636359D02*
X123445000Y-97943641D01*
X124205000Y-97636359D02*
X124205000Y-97943641D01*
D12*
G04 #@! TO.C,U1*
X107774000Y-70678000D02*
X107774000Y-78044000D01*
X107782000Y-76460000D02*
X123782000Y-76460000D01*
X123776000Y-94681000D02*
X123776000Y-93919000D01*
X123782000Y-70660000D02*
X107782000Y-76460000D01*
X107774000Y-93919000D02*
X107774000Y-94681000D01*
X107782000Y-70660000D02*
X123782000Y-76460000D01*
X123776000Y-70678000D02*
X123776000Y-78171000D01*
X107774000Y-70678000D02*
X123776000Y-70678000D01*
X107774000Y-94681000D02*
X123776000Y-94681000D01*
D11*
G04 #@! TO.C,J1*
X111050000Y-111600000D02*
X121330000Y-111600000D01*
X115300000Y-111600000D02*
X115300000Y-117600000D01*
X114540000Y-117600000D02*
X114540000Y-111600000D01*
X111050000Y-108940000D02*
X111050000Y-111600000D01*
X119960000Y-111600000D02*
X119960000Y-117600000D01*
X120380000Y-111600000D02*
X120380000Y-117600000D01*
X119720000Y-111600000D02*
X119720000Y-117600000D01*
X112760000Y-117600000D02*
X112000000Y-117600000D01*
X121330000Y-111600000D02*
X121330000Y-108940000D01*
X117840000Y-117600000D02*
X117080000Y-117600000D01*
X117840000Y-108542929D02*
X117840000Y-108940000D01*
X117840000Y-111600000D02*
X117840000Y-117600000D01*
X120200000Y-111600000D02*
X120200000Y-117600000D01*
X114540000Y-108542929D02*
X114540000Y-108940000D01*
X112000000Y-108542929D02*
X112000000Y-108940000D01*
X118730000Y-108940000D02*
X118730000Y-111600000D01*
X113650000Y-108940000D02*
X113650000Y-111600000D01*
X121330000Y-108940000D02*
X111050000Y-108940000D01*
X120320000Y-111600000D02*
X120320000Y-117600000D01*
X120380000Y-108610000D02*
X120380000Y-108940000D01*
X119620000Y-117600000D02*
X119620000Y-111600000D01*
X112000000Y-117600000D02*
X112000000Y-111600000D01*
X120080000Y-111600000D02*
X120080000Y-117600000D01*
X115300000Y-117600000D02*
X114540000Y-117600000D01*
X115300000Y-108542929D02*
X115300000Y-108940000D01*
X119620000Y-108610000D02*
X119620000Y-108940000D01*
X117080000Y-108542929D02*
X117080000Y-108940000D01*
X121270000Y-106230000D02*
X121270000Y-107500000D01*
X112760000Y-111600000D02*
X112760000Y-117600000D01*
X116190000Y-108940000D02*
X116190000Y-111600000D01*
X120380000Y-117600000D02*
X119620000Y-117600000D01*
X117080000Y-117600000D02*
X117080000Y-111600000D01*
X112760000Y-108542929D02*
X112760000Y-108940000D01*
X120000000Y-106230000D02*
X121270000Y-106230000D01*
X119840000Y-111600000D02*
X119840000Y-117600000D01*
G04 #@! TO.C,C1*
X106855000Y-96567164D02*
X106855000Y-96782836D01*
X107575000Y-96567164D02*
X107575000Y-96782836D01*
G04 #@! TO.C,R5*
X111505000Y-97943641D02*
X111505000Y-97636359D01*
X110745000Y-97943641D02*
X110745000Y-97636359D01*
G04 #@! TO.C,C2*
X108845000Y-96567164D02*
X108845000Y-96782836D01*
X108125000Y-96567164D02*
X108125000Y-96782836D01*
G04 #@! TO.C,R6*
X110235000Y-97943641D02*
X110235000Y-97636359D01*
X109475000Y-97943641D02*
X109475000Y-97636359D01*
G04 #@! TO.C,R7*
X123796359Y-101120000D02*
X124103641Y-101120000D01*
X123796359Y-101880000D02*
X124103641Y-101880000D01*
G04 #@! TD*
M02*
