M48
; DRILL file {KiCad 6.0.5-a6ca702e91~116~ubuntu20.04.1} date Tue 07 Jun 2022 04:18:28 PM
; FORMAT={-:-/ absolute / metric / decimal}
; #@! TF.CreationDate,2022-06-07T16:18:28-07:00
; #@! TF.GenerationSoftware,Kicad,Pcbnew,6.0.5-a6ca702e91~116~ubuntu20.04.1
; #@! TF.FileFunction,Plated,1,2,PTH
FMAT,2
METRIC
; #@! TA.AperFunction,Plated,PTH,ViaDrill
T1C0.400
; #@! TA.AperFunction,Plated,PTH,ComponentDrill
T2C1.000
%
G90
G05
T1
X106.938Y-98.548
X107.442Y-94.742
X108.029Y-97.589
X108.077Y-91.821
X109.093Y-95.377
X109.601Y-99.187
X109.63Y-94.134
X109.74Y-90.056
X109.94Y-81.28
X110.68Y-83.862
X111.068Y-99.235
X112.649Y-92.202
X113.03Y-81.28
X113.03Y-90.805
X114.428Y-98.843
X115.78Y-93.114
X116.205Y-81.28
X116.205Y-91.44
X118.722Y-98.843
X118.872Y-96.647
X119.38Y-81.28
X119.78Y-91.675
X120.627Y-98.843
X120.777Y-88.519
X121.84Y-96.325
X122.047Y-99.187
X122.682Y-94.234
X123.825Y-99.06
X124.206Y-94.361
T2
X112.385Y-102.87
X114.925Y-102.87
X117.465Y-102.87
X120.005Y-102.87
T0
M30
