%TF.GenerationSoftware,KiCad,Pcbnew,6.0.5-a6ca702e91~116~ubuntu20.04.1*%
%TF.CreationDate,2022-06-07T16:18:29-07:00*%
%TF.ProjectId,esp8266-dongle,65737038-3236-4362-9d64-6f6e676c652e,rev?*%
%TF.SameCoordinates,Original*%
%TF.FileFunction,Copper,L2,Bot*%
%TF.FilePolarity,Positive*%
%FSLAX46Y46*%
G04 Gerber Fmt 4.6, Leading zero omitted, Abs format (unit mm)*
G04 Created by KiCad (PCBNEW 6.0.5-a6ca702e91~116~ubuntu20.04.1) date 2022-06-07 16:18:29*
%MOMM*%
%LPD*%
G01*
G04 APERTURE LIST*
G04 Aperture macros list*
%AMFreePoly0*
4,1,6,1.000000,0.000000,0.500000,-0.750000,-0.500000,-0.750000,-0.500000,0.750000,0.500000,0.750000,1.000000,0.000000,1.000000,0.000000,$1*%
%AMFreePoly1*
4,1,7,0.700000,0.000000,1.200000,-0.750000,-1.200000,-0.750000,-0.700000,0.000000,-1.200000,0.750000,1.200000,0.750000,0.700000,0.000000,0.700000,0.000000,$1*%
G04 Aperture macros list end*
%TA.AperFunction,ComponentPad*%
%ADD10R,1.800000X3.600000*%
%TD*%
%TA.AperFunction,ComponentPad*%
%ADD11O,1.800000X3.600000*%
%TD*%
%TA.AperFunction,SMDPad,CuDef*%
%ADD12FreePoly0,90.000000*%
%TD*%
%TA.AperFunction,SMDPad,CuDef*%
%ADD13FreePoly1,90.000000*%
%TD*%
%TA.AperFunction,SMDPad,CuDef*%
%ADD14FreePoly0,270.000000*%
%TD*%
%TA.AperFunction,ViaPad*%
%ADD15C,0.800000*%
%TD*%
%TA.AperFunction,Conductor*%
%ADD16C,0.250000*%
%TD*%
%TA.AperFunction,Conductor*%
%ADD17C,1.000000*%
%TD*%
%TA.AperFunction,Conductor*%
%ADD18C,0.500000*%
%TD*%
G04 APERTURE END LIST*
D10*
%TO.P,J1,1,Pin_1*%
%TO.N,/PIN1*%
X120005000Y-101970000D03*
D11*
%TO.P,J1,2,Pin_2*%
%TO.N,/PIN2*%
X117465000Y-101970000D03*
%TO.P,J1,3,Pin_3*%
%TO.N,/PIN3*%
X114925000Y-101970000D03*
%TO.P,J1,4,Pin_4*%
%TO.N,/PIN4*%
X112385000Y-101970000D03*
%TD*%
D12*
%TO.P,JP4,1,A*%
%TO.N,/ROUTER_TX*%
X120800000Y-93440000D03*
D13*
%TO.P,JP4,2,C*%
%TO.N,/PIN1*%
X120800000Y-91440000D03*
D14*
%TO.P,JP4,3,B*%
%TO.N,/ROUTER_RX*%
X120800000Y-89440000D03*
%TD*%
D12*
%TO.P,JP7,1,A*%
%TO.N,/ROUTER_TX*%
X114450000Y-93440000D03*
D13*
%TO.P,JP7,2,C*%
%TO.N,/PIN3*%
X114450000Y-91440000D03*
D14*
%TO.P,JP7,3,B*%
%TO.N,/ROUTER_RX*%
X114450000Y-89440000D03*
%TD*%
D12*
%TO.P,JP8,1,A*%
%TO.N,/ROUTER_TX*%
X117625000Y-93440000D03*
D13*
%TO.P,JP8,2,C*%
%TO.N,/PIN2*%
X117625000Y-91440000D03*
D14*
%TO.P,JP8,3,B*%
%TO.N,/ROUTER_RX*%
X117625000Y-89440000D03*
%TD*%
D12*
%TO.P,JP5,1,A*%
%TO.N,+3V3*%
X114450000Y-83280000D03*
D13*
%TO.P,JP5,2,C*%
%TO.N,/PIN3*%
X114450000Y-81280000D03*
D14*
%TO.P,JP5,3,B*%
%TO.N,GND*%
X114450000Y-79280000D03*
%TD*%
D12*
%TO.P,JP3,1,A*%
%TO.N,/ROUTER_TX*%
X111275000Y-93440000D03*
D13*
%TO.P,JP3,2,C*%
%TO.N,/PIN4*%
X111275000Y-91440000D03*
D14*
%TO.P,JP3,3,B*%
%TO.N,/ROUTER_RX*%
X111275000Y-89440000D03*
%TD*%
D12*
%TO.P,JP6,1,A*%
%TO.N,+3V3*%
X117625000Y-83280000D03*
D13*
%TO.P,JP6,2,C*%
%TO.N,/PIN2*%
X117625000Y-81280000D03*
D14*
%TO.P,JP6,3,B*%
%TO.N,GND*%
X117625000Y-79280000D03*
%TD*%
D12*
%TO.P,JP2,1,A*%
%TO.N,+3V3*%
X120800000Y-83280000D03*
D13*
%TO.P,JP2,2,C*%
%TO.N,/PIN1*%
X120800000Y-81280000D03*
D14*
%TO.P,JP2,3,B*%
%TO.N,GND*%
X120800000Y-79280000D03*
%TD*%
D12*
%TO.P,JP1,1,A*%
%TO.N,+3V3*%
X111275000Y-83280000D03*
D13*
%TO.P,JP1,2,C*%
%TO.N,/PIN4*%
X111275000Y-81280000D03*
D14*
%TO.P,JP1,3,B*%
%TO.N,GND*%
X111275000Y-79280000D03*
%TD*%
D15*
%TO.N,+3V3*%
X122047000Y-99187000D03*
X110680011Y-83861607D03*
X109601000Y-99187000D03*
%TO.N,GND*%
X124206000Y-94361000D03*
X123825000Y-99060000D03*
X122682000Y-94234000D03*
X108028827Y-97589031D03*
%TO.N,/PIN1*%
X119779511Y-91675489D03*
X119380000Y-81280000D03*
%TO.N,/PIN2*%
X116205000Y-81280000D03*
X116205000Y-91440000D03*
%TO.N,/PIN3*%
X113030000Y-81280000D03*
X113030000Y-90805000D03*
%TO.N,/PIN4*%
X112649000Y-92202000D03*
X109939502Y-81280000D03*
%TO.N,/ROUTER_TX*%
X115780000Y-93113891D03*
%TO.N,/ROUTER_RX*%
X118872000Y-96647000D03*
X120777000Y-88519000D03*
X121840151Y-96324878D03*
%TO.N,/GPIO15*%
X120626796Y-98843500D03*
X118721796Y-98843500D03*
%TO.N,/GPIO13*%
X114427873Y-98843500D03*
X108077000Y-91821000D03*
X106938299Y-98547701D03*
X111067980Y-99235422D03*
%TO.N,/CH_PD*%
X109630499Y-94134417D03*
X109740076Y-90056476D03*
%TO.N,/RESET*%
X107442000Y-94742000D03*
X109093000Y-95377000D03*
%TD*%
D16*
%TO.N,+3V3*%
X111760000Y-99568000D02*
X111252000Y-100076000D01*
D17*
X120800000Y-83280000D02*
X117625000Y-83280000D01*
D16*
X122047000Y-99187000D02*
X121666000Y-99568000D01*
D17*
X114450000Y-83280000D02*
X111345000Y-83280000D01*
D16*
X111252000Y-100076000D02*
X110490000Y-100076000D01*
D17*
X117625000Y-83280000D02*
X114450000Y-83280000D01*
X111345000Y-83280000D02*
X111275000Y-83210000D01*
D18*
X111275000Y-83280000D02*
X110693393Y-83861607D01*
X110693393Y-83861607D02*
X110680011Y-83861607D01*
D16*
X110490000Y-100076000D02*
X109601000Y-99187000D01*
X121666000Y-99568000D02*
X111760000Y-99568000D01*
D17*
%TO.N,GND*%
X120800000Y-79280000D02*
X117625000Y-79280000D01*
X111275000Y-79280000D02*
X114450000Y-79280000D01*
X117625000Y-79280000D02*
X114450000Y-79280000D01*
D18*
%TO.N,/PIN1*%
X120015000Y-91440000D02*
X119779511Y-91675489D01*
X120800000Y-81280000D02*
X119380000Y-81280000D01*
X120800000Y-91440000D02*
X120015000Y-91440000D01*
%TO.N,/PIN2*%
X117625000Y-91440000D02*
X116205000Y-91440000D01*
X116205000Y-81280000D02*
X117625000Y-81280000D01*
%TO.N,/PIN3*%
X114450000Y-91440000D02*
X113665000Y-91440000D01*
X113665000Y-91440000D02*
X113030000Y-90805000D01*
X113030000Y-81280000D02*
X114450000Y-81280000D01*
%TO.N,/PIN4*%
X111275000Y-81280000D02*
X109939502Y-81280000D01*
D17*
X111887000Y-91440000D02*
X111275000Y-91440000D01*
X112649000Y-92202000D02*
X111887000Y-91440000D01*
%TO.N,/ROUTER_TX*%
X114450000Y-93440000D02*
X111275000Y-93440000D01*
X120800000Y-93440000D02*
X117625000Y-93440000D01*
X117625000Y-93440000D02*
X114450000Y-93440000D01*
D16*
%TO.N,/ROUTER_RX*%
X120777000Y-88519000D02*
X120777000Y-89417000D01*
X118872000Y-96647000D02*
X121518029Y-96647000D01*
D17*
X117625000Y-89440000D02*
X114450000Y-89440000D01*
X120800000Y-89440000D02*
X117625000Y-89440000D01*
X114450000Y-89440000D02*
X111275000Y-89440000D01*
D16*
X121518029Y-96647000D02*
X121840151Y-96324878D01*
X120777000Y-89417000D02*
X120800000Y-89440000D01*
%TO.N,/GPIO15*%
X120626796Y-98843500D02*
X118721796Y-98843500D01*
%TO.N,/GPIO13*%
X108077000Y-91821000D02*
X106680000Y-93218000D01*
X111459902Y-98843500D02*
X111067980Y-99235422D01*
X106680000Y-98289402D02*
X106938299Y-98547701D01*
X106680000Y-93218000D02*
X106680000Y-98289402D01*
X114427873Y-98843500D02*
X111459902Y-98843500D01*
%TO.N,/CH_PD*%
X109630499Y-90166053D02*
X109630499Y-94134417D01*
X109740076Y-90056476D02*
X109630499Y-90166053D01*
%TO.N,/RESET*%
X107442000Y-94742000D02*
X108458000Y-94742000D01*
X108458000Y-94742000D02*
X109093000Y-95377000D01*
%TD*%
%TA.AperFunction,Conductor*%
%TO.N,GND*%
G36*
X125417621Y-77744002D02*
G01*
X125464114Y-77797658D01*
X125475500Y-77850000D01*
X125475500Y-103759500D01*
X125455498Y-103827621D01*
X125401842Y-103874114D01*
X125349500Y-103885500D01*
X121285500Y-103885500D01*
X121217379Y-103865498D01*
X121170886Y-103811842D01*
X121159500Y-103759500D01*
X121159499Y-100151123D01*
X121159499Y-100144934D01*
X121153771Y-100116133D01*
X121150180Y-100098079D01*
X121156509Y-100027365D01*
X121200065Y-99971299D01*
X121273759Y-99947500D01*
X121612080Y-99947500D01*
X121636028Y-99950049D01*
X121637693Y-99950128D01*
X121647876Y-99952320D01*
X121658217Y-99951096D01*
X121666962Y-99950061D01*
X121681223Y-99948373D01*
X121687154Y-99948023D01*
X121687146Y-99947928D01*
X121692324Y-99947500D01*
X121697524Y-99947500D01*
X121702653Y-99946646D01*
X121702656Y-99946646D01*
X121716565Y-99944331D01*
X121722443Y-99943494D01*
X121763001Y-99938694D01*
X121763002Y-99938694D01*
X121773341Y-99937470D01*
X121781593Y-99933507D01*
X121790626Y-99932004D01*
X121799795Y-99927057D01*
X121799797Y-99927056D01*
X121835732Y-99907666D01*
X121841025Y-99904969D01*
X121880082Y-99886215D01*
X121880086Y-99886212D01*
X121887232Y-99882781D01*
X121891508Y-99879186D01*
X121893431Y-99877263D01*
X121895363Y-99875491D01*
X121895442Y-99875448D01*
X121895555Y-99875572D01*
X121896095Y-99875096D01*
X121901814Y-99872010D01*
X121906955Y-99866449D01*
X121971500Y-99841110D01*
X121984613Y-99840633D01*
X122108318Y-99842576D01*
X122108321Y-99842576D01*
X122115916Y-99842695D01*
X122270332Y-99807329D01*
X122340742Y-99771917D01*
X122405072Y-99739563D01*
X122405075Y-99739561D01*
X122411855Y-99736151D01*
X122417626Y-99731222D01*
X122417629Y-99731220D01*
X122526536Y-99638204D01*
X122526536Y-99638203D01*
X122532314Y-99633269D01*
X122624755Y-99504624D01*
X122683842Y-99357641D01*
X122689965Y-99314615D01*
X122705581Y-99204891D01*
X122705581Y-99204888D01*
X122706162Y-99200807D01*
X122706307Y-99187000D01*
X122687276Y-99029733D01*
X122631280Y-98881546D01*
X122602579Y-98839785D01*
X122545855Y-98757251D01*
X122545854Y-98757249D01*
X122541553Y-98750992D01*
X122423275Y-98645611D01*
X122415889Y-98641700D01*
X122303619Y-98582256D01*
X122283274Y-98571484D01*
X122129633Y-98532892D01*
X122122034Y-98532852D01*
X122122033Y-98532852D01*
X122056181Y-98532507D01*
X121971221Y-98532062D01*
X121963841Y-98533834D01*
X121963839Y-98533834D01*
X121824563Y-98567271D01*
X121824560Y-98567272D01*
X121817184Y-98569043D01*
X121676414Y-98641700D01*
X121557039Y-98745838D01*
X121552672Y-98752052D01*
X121504559Y-98820509D01*
X121449024Y-98864740D01*
X121378392Y-98871926D01*
X121315088Y-98839785D01*
X121279210Y-98778520D01*
X121276388Y-98763214D01*
X121267072Y-98686233D01*
X121211076Y-98538046D01*
X121189425Y-98506543D01*
X121125651Y-98413751D01*
X121125650Y-98413749D01*
X121121349Y-98407492D01*
X121003071Y-98302111D01*
X120995685Y-98298200D01*
X120869784Y-98231539D01*
X120869785Y-98231539D01*
X120863070Y-98227984D01*
X120709429Y-98189392D01*
X120701830Y-98189352D01*
X120701829Y-98189352D01*
X120635977Y-98189007D01*
X120551017Y-98188562D01*
X120543637Y-98190334D01*
X120543635Y-98190334D01*
X120404359Y-98223771D01*
X120404356Y-98223772D01*
X120396980Y-98225543D01*
X120256210Y-98298200D01*
X120136835Y-98402338D01*
X120132468Y-98408551D01*
X120132463Y-98408557D01*
X120131132Y-98410451D01*
X120129809Y-98411505D01*
X120127385Y-98414197D01*
X120126936Y-98413793D01*
X120075598Y-98454683D01*
X120028046Y-98464000D01*
X119321478Y-98464000D01*
X119253357Y-98443998D01*
X119226910Y-98418360D01*
X119225674Y-98419449D01*
X119220651Y-98413751D01*
X119216349Y-98407492D01*
X119098071Y-98302111D01*
X119090685Y-98298200D01*
X118964784Y-98231539D01*
X118964785Y-98231539D01*
X118958070Y-98227984D01*
X118804429Y-98189392D01*
X118796830Y-98189352D01*
X118796829Y-98189352D01*
X118730977Y-98189007D01*
X118646017Y-98188562D01*
X118638637Y-98190334D01*
X118638635Y-98190334D01*
X118499359Y-98223771D01*
X118499356Y-98223772D01*
X118491980Y-98225543D01*
X118351210Y-98298200D01*
X118231835Y-98402338D01*
X118140746Y-98531944D01*
X118121130Y-98582256D01*
X118097816Y-98642055D01*
X118083202Y-98679537D01*
X118082210Y-98687070D01*
X118082210Y-98687071D01*
X118064643Y-98820509D01*
X118062525Y-98836596D01*
X118066426Y-98871926D01*
X118078193Y-98978506D01*
X118079909Y-98994053D01*
X118082519Y-99001184D01*
X118082519Y-99001186D01*
X118089111Y-99019199D01*
X118093737Y-99090045D01*
X118059327Y-99152145D01*
X117996805Y-99185784D01*
X117970785Y-99188500D01*
X115181074Y-99188500D01*
X115112953Y-99168498D01*
X115066460Y-99114842D01*
X115056356Y-99044568D01*
X115060619Y-99028715D01*
X115059915Y-99028526D01*
X115061879Y-99021195D01*
X115064715Y-99014141D01*
X115083446Y-98882524D01*
X115086454Y-98861391D01*
X115086454Y-98861388D01*
X115087035Y-98857307D01*
X115087180Y-98843500D01*
X115068149Y-98686233D01*
X115012153Y-98538046D01*
X114990502Y-98506543D01*
X114926728Y-98413751D01*
X114926727Y-98413749D01*
X114922426Y-98407492D01*
X114804148Y-98302111D01*
X114796762Y-98298200D01*
X114670861Y-98231539D01*
X114670862Y-98231539D01*
X114664147Y-98227984D01*
X114510506Y-98189392D01*
X114502907Y-98189352D01*
X114502906Y-98189352D01*
X114437054Y-98189007D01*
X114352094Y-98188562D01*
X114344714Y-98190334D01*
X114344712Y-98190334D01*
X114205436Y-98223771D01*
X114205433Y-98223772D01*
X114198057Y-98225543D01*
X114057287Y-98298200D01*
X113937912Y-98402338D01*
X113933545Y-98408551D01*
X113933540Y-98408557D01*
X113932209Y-98410451D01*
X113930886Y-98411505D01*
X113928462Y-98414197D01*
X113928013Y-98413793D01*
X113876675Y-98454683D01*
X113829123Y-98464000D01*
X111513822Y-98464000D01*
X111489875Y-98461451D01*
X111488209Y-98461372D01*
X111478026Y-98459180D01*
X111467684Y-98460404D01*
X111467681Y-98460404D01*
X111444689Y-98463126D01*
X111438748Y-98463477D01*
X111438756Y-98463572D01*
X111433576Y-98464000D01*
X111428378Y-98464000D01*
X111423256Y-98464853D01*
X111423251Y-98464853D01*
X111409329Y-98467171D01*
X111403452Y-98468008D01*
X111396951Y-98468777D01*
X111362899Y-98472807D01*
X111362897Y-98472808D01*
X111352561Y-98474031D01*
X111344312Y-98477992D01*
X111335276Y-98479496D01*
X111326107Y-98484443D01*
X111326105Y-98484444D01*
X111290142Y-98503848D01*
X111284853Y-98506543D01*
X111245817Y-98525288D01*
X111238670Y-98528720D01*
X111234394Y-98532314D01*
X111232454Y-98534254D01*
X111230543Y-98536007D01*
X111230453Y-98536056D01*
X111230341Y-98535933D01*
X111229806Y-98536405D01*
X111224088Y-98539490D01*
X111217021Y-98547135D01*
X111208788Y-98553521D01*
X111206499Y-98550569D01*
X111161996Y-98577184D01*
X111129753Y-98581205D01*
X110992201Y-98580484D01*
X110984821Y-98582256D01*
X110984819Y-98582256D01*
X110845543Y-98615693D01*
X110845540Y-98615694D01*
X110838164Y-98617465D01*
X110697394Y-98690122D01*
X110578019Y-98794260D01*
X110486930Y-98923866D01*
X110484170Y-98930946D01*
X110484168Y-98930949D01*
X110461100Y-98990116D01*
X110417720Y-99046318D01*
X110350841Y-99070145D01*
X110281697Y-99054032D01*
X110232241Y-99003094D01*
X110225841Y-98988886D01*
X110203948Y-98930949D01*
X110185280Y-98881546D01*
X110156579Y-98839785D01*
X110099855Y-98757251D01*
X110099854Y-98757249D01*
X110095553Y-98750992D01*
X109977275Y-98645611D01*
X109969889Y-98641700D01*
X109857619Y-98582256D01*
X109837274Y-98571484D01*
X109683633Y-98532892D01*
X109676034Y-98532852D01*
X109676033Y-98532852D01*
X109610181Y-98532507D01*
X109525221Y-98532062D01*
X109517841Y-98533834D01*
X109517839Y-98533834D01*
X109378563Y-98567271D01*
X109378560Y-98567272D01*
X109371184Y-98569043D01*
X109230414Y-98641700D01*
X109111039Y-98745838D01*
X109019950Y-98875444D01*
X109014802Y-98888649D01*
X108966838Y-99011670D01*
X108962406Y-99023037D01*
X108961414Y-99030570D01*
X108961414Y-99030571D01*
X108943256Y-99168498D01*
X108941729Y-99180096D01*
X108947075Y-99228518D01*
X108954518Y-99295930D01*
X108959113Y-99337553D01*
X108961723Y-99344684D01*
X108961723Y-99344686D01*
X108976833Y-99385975D01*
X109013553Y-99486319D01*
X109101908Y-99617805D01*
X109107527Y-99622918D01*
X109107528Y-99622919D01*
X109118903Y-99633269D01*
X109219076Y-99724419D01*
X109358293Y-99800008D01*
X109511522Y-99840207D01*
X109608138Y-99841725D01*
X109669772Y-99842693D01*
X109737570Y-99863762D01*
X109756888Y-99879582D01*
X110183522Y-100306216D01*
X110198664Y-100324964D01*
X110199779Y-100326189D01*
X110205429Y-100334940D01*
X110213607Y-100341387D01*
X110213609Y-100341389D01*
X110231800Y-100355729D01*
X110236241Y-100359675D01*
X110236303Y-100359602D01*
X110240267Y-100362961D01*
X110243944Y-100366638D01*
X110259692Y-100377892D01*
X110264362Y-100381398D01*
X110304647Y-100413156D01*
X110313281Y-100416188D01*
X110320734Y-100421514D01*
X110369850Y-100436203D01*
X110375492Y-100438036D01*
X110416367Y-100452390D01*
X110423851Y-100455018D01*
X110429416Y-100455500D01*
X110432124Y-100455500D01*
X110434758Y-100455614D01*
X110434856Y-100455643D01*
X110434849Y-100455807D01*
X110435553Y-100455851D01*
X110441778Y-100457713D01*
X110495635Y-100455597D01*
X110500582Y-100455500D01*
X111196559Y-100455500D01*
X111264680Y-100475502D01*
X111311173Y-100529158D01*
X111321277Y-100599432D01*
X111314007Y-100625929D01*
X111313812Y-100626299D01*
X111250891Y-100828938D01*
X111250212Y-100834674D01*
X111250212Y-100834675D01*
X111232298Y-100986028D01*
X111230500Y-101001216D01*
X111230500Y-102923827D01*
X111233270Y-102953972D01*
X111241063Y-103038778D01*
X111244969Y-103081292D01*
X111246536Y-103086849D01*
X111246537Y-103086853D01*
X111250279Y-103100121D01*
X111302564Y-103285508D01*
X111396410Y-103475809D01*
X111523364Y-103645821D01*
X111527602Y-103649739D01*
X111527606Y-103649743D01*
X111546248Y-103666976D01*
X111582693Y-103727904D01*
X111580412Y-103798864D01*
X111540129Y-103857326D01*
X111474634Y-103884729D01*
X111460719Y-103885500D01*
X106425500Y-103885500D01*
X106357379Y-103865498D01*
X106310886Y-103811842D01*
X106299500Y-103759500D01*
X106299500Y-99136388D01*
X106319502Y-99068267D01*
X106373158Y-99021774D01*
X106443432Y-99011670D01*
X106510299Y-99043195D01*
X106556375Y-99085120D01*
X106695592Y-99160709D01*
X106848821Y-99200908D01*
X106932776Y-99202227D01*
X106999618Y-99203277D01*
X106999621Y-99203277D01*
X107007215Y-99203396D01*
X107161631Y-99168030D01*
X107267385Y-99114842D01*
X107296371Y-99100264D01*
X107296374Y-99100262D01*
X107303154Y-99096852D01*
X107308925Y-99091923D01*
X107308928Y-99091921D01*
X107417835Y-98998905D01*
X107417835Y-98998904D01*
X107423613Y-98993970D01*
X107516054Y-98865325D01*
X107575141Y-98718342D01*
X107589002Y-98620946D01*
X107596880Y-98565592D01*
X107596880Y-98565589D01*
X107597461Y-98561508D01*
X107597606Y-98547701D01*
X107595841Y-98533111D01*
X107588994Y-98476537D01*
X107578575Y-98390434D01*
X107522579Y-98242247D01*
X107486253Y-98189392D01*
X107437154Y-98117952D01*
X107437153Y-98117950D01*
X107432852Y-98111693D01*
X107314574Y-98006312D01*
X107174573Y-97932185D01*
X107167207Y-97930335D01*
X107167205Y-97930334D01*
X107154807Y-97927220D01*
X107093610Y-97891227D01*
X107061588Y-97827862D01*
X107059500Y-97805016D01*
X107059500Y-96640096D01*
X118212729Y-96640096D01*
X118221421Y-96718825D01*
X118227198Y-96771147D01*
X118230113Y-96797553D01*
X118232723Y-96804684D01*
X118232723Y-96804686D01*
X118259348Y-96877441D01*
X118284553Y-96946319D01*
X118288789Y-96952622D01*
X118288789Y-96952623D01*
X118337859Y-97025646D01*
X118372908Y-97077805D01*
X118378527Y-97082918D01*
X118378528Y-97082919D01*
X118389903Y-97093269D01*
X118490076Y-97184419D01*
X118629293Y-97260008D01*
X118782522Y-97300207D01*
X118866477Y-97301526D01*
X118933319Y-97302576D01*
X118933322Y-97302576D01*
X118940916Y-97302695D01*
X119095332Y-97267329D01*
X119165742Y-97231917D01*
X119230072Y-97199563D01*
X119230075Y-97199561D01*
X119236855Y-97196151D01*
X119242626Y-97191222D01*
X119242629Y-97191220D01*
X119351542Y-97098199D01*
X119351543Y-97098198D01*
X119357314Y-97093269D01*
X119367586Y-97078974D01*
X119423581Y-97035326D01*
X119469909Y-97026500D01*
X121464109Y-97026500D01*
X121488057Y-97029049D01*
X121489722Y-97029128D01*
X121499905Y-97031320D01*
X121510246Y-97030096D01*
X121533252Y-97027373D01*
X121539183Y-97027023D01*
X121539175Y-97026928D01*
X121544353Y-97026500D01*
X121549553Y-97026500D01*
X121554682Y-97025646D01*
X121554685Y-97025646D01*
X121568594Y-97023331D01*
X121574472Y-97022494D01*
X121615030Y-97017694D01*
X121615031Y-97017694D01*
X121625370Y-97016470D01*
X121633622Y-97012507D01*
X121642655Y-97011004D01*
X121678353Y-96991742D01*
X121747099Y-96977147D01*
X121750673Y-96978085D01*
X121829870Y-96979329D01*
X121901470Y-96980454D01*
X121901473Y-96980454D01*
X121909067Y-96980573D01*
X122063483Y-96945207D01*
X122133893Y-96909795D01*
X122198223Y-96877441D01*
X122198226Y-96877439D01*
X122205006Y-96874029D01*
X122210777Y-96869100D01*
X122210780Y-96869098D01*
X122319687Y-96776082D01*
X122319687Y-96776081D01*
X122325465Y-96771147D01*
X122417906Y-96642502D01*
X122476993Y-96495519D01*
X122499313Y-96338685D01*
X122499382Y-96332143D01*
X122499415Y-96329012D01*
X122499415Y-96329006D01*
X122499458Y-96324878D01*
X122480427Y-96167611D01*
X122424431Y-96019424D01*
X122401724Y-95986385D01*
X122339006Y-95895129D01*
X122339005Y-95895127D01*
X122334704Y-95888870D01*
X122216426Y-95783489D01*
X122209040Y-95779578D01*
X122083139Y-95712917D01*
X122083140Y-95712917D01*
X122076425Y-95709362D01*
X121922784Y-95670770D01*
X121915185Y-95670730D01*
X121915184Y-95670730D01*
X121849332Y-95670385D01*
X121764372Y-95669940D01*
X121756992Y-95671712D01*
X121756990Y-95671712D01*
X121617714Y-95705149D01*
X121617711Y-95705150D01*
X121610335Y-95706921D01*
X121469565Y-95779578D01*
X121350190Y-95883716D01*
X121259101Y-96013322D01*
X121201557Y-96160915D01*
X121200566Y-96168444D01*
X121199438Y-96172836D01*
X121163123Y-96233842D01*
X121099591Y-96265530D01*
X121077397Y-96267500D01*
X119471682Y-96267500D01*
X119403561Y-96247498D01*
X119377114Y-96221860D01*
X119375878Y-96222949D01*
X119370855Y-96217251D01*
X119366553Y-96210992D01*
X119248275Y-96105611D01*
X119240889Y-96101700D01*
X119114988Y-96035039D01*
X119114989Y-96035039D01*
X119108274Y-96031484D01*
X118954633Y-95992892D01*
X118947034Y-95992852D01*
X118947033Y-95992852D01*
X118881181Y-95992507D01*
X118796221Y-95992062D01*
X118788841Y-95993834D01*
X118788839Y-95993834D01*
X118649563Y-96027271D01*
X118649560Y-96027272D01*
X118642184Y-96029043D01*
X118501414Y-96101700D01*
X118382039Y-96205838D01*
X118290950Y-96335444D01*
X118233406Y-96483037D01*
X118212729Y-96640096D01*
X107059500Y-96640096D01*
X107059500Y-95481654D01*
X107079502Y-95413533D01*
X107133158Y-95367040D01*
X107203432Y-95356936D01*
X107217473Y-95359778D01*
X107345171Y-95393279D01*
X107345175Y-95393280D01*
X107352522Y-95395207D01*
X107436477Y-95396526D01*
X107503319Y-95397576D01*
X107503322Y-95397576D01*
X107510916Y-95397695D01*
X107665332Y-95362329D01*
X107735742Y-95326917D01*
X107800072Y-95294563D01*
X107800075Y-95294561D01*
X107806855Y-95291151D01*
X107812626Y-95286222D01*
X107812629Y-95286220D01*
X107921542Y-95193199D01*
X107921543Y-95193198D01*
X107927314Y-95188269D01*
X107937586Y-95173974D01*
X107993581Y-95130326D01*
X108039909Y-95121500D01*
X108248616Y-95121500D01*
X108316737Y-95141502D01*
X108337711Y-95158405D01*
X108403249Y-95223943D01*
X108437275Y-95286255D01*
X108439076Y-95329485D01*
X108434752Y-95362329D01*
X108433729Y-95370096D01*
X108436515Y-95395326D01*
X108446046Y-95481654D01*
X108451113Y-95527553D01*
X108505553Y-95676319D01*
X108593908Y-95807805D01*
X108599527Y-95812918D01*
X108599528Y-95812919D01*
X108677447Y-95883819D01*
X108711076Y-95914419D01*
X108850293Y-95990008D01*
X109003522Y-96030207D01*
X109087477Y-96031526D01*
X109154319Y-96032576D01*
X109154322Y-96032576D01*
X109161916Y-96032695D01*
X109316332Y-95997329D01*
X109386742Y-95961917D01*
X109451072Y-95929563D01*
X109451075Y-95929561D01*
X109457855Y-95926151D01*
X109463626Y-95921222D01*
X109463629Y-95921220D01*
X109572536Y-95828204D01*
X109572536Y-95828203D01*
X109578314Y-95823269D01*
X109670755Y-95694624D01*
X109729842Y-95547641D01*
X109752162Y-95390807D01*
X109752307Y-95377000D01*
X109750561Y-95362567D01*
X109741326Y-95286255D01*
X109733276Y-95219733D01*
X109677280Y-95071546D01*
X109617747Y-94984924D01*
X109595647Y-94917456D01*
X109613532Y-94848749D01*
X109665724Y-94800618D01*
X109699575Y-94790811D01*
X109699415Y-94790112D01*
X109853831Y-94754746D01*
X109924241Y-94719334D01*
X109988571Y-94686980D01*
X109988574Y-94686978D01*
X109995354Y-94683568D01*
X110001125Y-94678639D01*
X110001128Y-94678637D01*
X110110035Y-94585621D01*
X110110035Y-94585620D01*
X110115813Y-94580686D01*
X110208254Y-94452041D01*
X110267341Y-94305058D01*
X110270464Y-94283114D01*
X110299863Y-94218490D01*
X110359534Y-94180020D01*
X110425661Y-94179925D01*
X110425699Y-94179734D01*
X110426652Y-94179924D01*
X110426654Y-94179924D01*
X110525000Y-94199486D01*
X112025000Y-94199486D01*
X112037897Y-94196921D01*
X112062476Y-94194500D01*
X113662524Y-94194500D01*
X113687103Y-94196921D01*
X113700000Y-94199486D01*
X115200000Y-94199486D01*
X115212897Y-94196921D01*
X115237476Y-94194500D01*
X116837524Y-94194500D01*
X116862103Y-94196921D01*
X116875000Y-94199486D01*
X118375000Y-94199486D01*
X118387897Y-94196921D01*
X118412476Y-94194500D01*
X120012524Y-94194500D01*
X120037103Y-94196921D01*
X120050000Y-94199486D01*
X121550000Y-94199486D01*
X121649301Y-94179734D01*
X121733484Y-94123484D01*
X121789734Y-94039301D01*
X121809486Y-93940000D01*
X121809486Y-92940000D01*
X121804447Y-92889111D01*
X121784747Y-92841691D01*
X121777085Y-92771110D01*
X121783808Y-92748170D01*
X121789734Y-92739301D01*
X121799470Y-92690357D01*
X121808279Y-92646068D01*
X121809486Y-92640000D01*
X121809486Y-90240000D01*
X121804553Y-90189643D01*
X121784648Y-90141446D01*
X121777132Y-90070850D01*
X121783801Y-90048180D01*
X121789734Y-90039301D01*
X121809486Y-89940000D01*
X121809486Y-88940000D01*
X121789734Y-88840699D01*
X121733484Y-88756516D01*
X121649301Y-88700266D01*
X121550000Y-88680514D01*
X121546865Y-88680514D01*
X121482020Y-88654332D01*
X121441008Y-88596379D01*
X121435768Y-88541040D01*
X121435268Y-88541002D01*
X121435489Y-88538098D01*
X121435457Y-88537760D01*
X121435581Y-88536890D01*
X121435581Y-88536889D01*
X121436162Y-88532807D01*
X121436307Y-88519000D01*
X121417276Y-88361733D01*
X121361280Y-88213546D01*
X121271553Y-88082992D01*
X121153275Y-87977611D01*
X121145889Y-87973700D01*
X121019988Y-87907039D01*
X121019989Y-87907039D01*
X121013274Y-87903484D01*
X120859633Y-87864892D01*
X120852034Y-87864852D01*
X120852033Y-87864852D01*
X120786181Y-87864507D01*
X120701221Y-87864062D01*
X120693841Y-87865834D01*
X120693839Y-87865834D01*
X120554563Y-87899271D01*
X120554560Y-87899272D01*
X120547184Y-87901043D01*
X120406414Y-87973700D01*
X120287039Y-88077838D01*
X120195950Y-88207444D01*
X120138406Y-88355037D01*
X120117729Y-88512096D01*
X120120600Y-88538098D01*
X120121436Y-88545673D01*
X120109030Y-88615578D01*
X120060800Y-88667678D01*
X119996197Y-88685500D01*
X118412476Y-88685500D01*
X118387897Y-88683079D01*
X118375000Y-88680514D01*
X116875000Y-88680514D01*
X116862103Y-88683079D01*
X116837524Y-88685500D01*
X115237476Y-88685500D01*
X115212897Y-88683079D01*
X115200000Y-88680514D01*
X113700000Y-88680514D01*
X113687103Y-88683079D01*
X113662524Y-88685500D01*
X112062476Y-88685500D01*
X112037897Y-88683079D01*
X112025000Y-88680514D01*
X110525000Y-88680514D01*
X110425699Y-88700266D01*
X110341516Y-88756516D01*
X110285266Y-88840699D01*
X110265514Y-88940000D01*
X110265514Y-89384780D01*
X110245512Y-89452901D01*
X110191856Y-89499394D01*
X110121582Y-89509498D01*
X110080555Y-89496134D01*
X109976350Y-89440960D01*
X109822709Y-89402368D01*
X109815110Y-89402328D01*
X109815109Y-89402328D01*
X109749257Y-89401983D01*
X109664297Y-89401538D01*
X109656917Y-89403310D01*
X109656915Y-89403310D01*
X109517639Y-89436747D01*
X109517636Y-89436748D01*
X109510260Y-89438519D01*
X109369490Y-89511176D01*
X109250115Y-89615314D01*
X109159026Y-89744920D01*
X109101482Y-89892513D01*
X109100490Y-89900046D01*
X109100490Y-89900047D01*
X109083760Y-90027129D01*
X109080805Y-90049572D01*
X109085004Y-90087601D01*
X109096806Y-90194500D01*
X109098189Y-90207029D01*
X109100799Y-90214160D01*
X109100799Y-90214162D01*
X109120559Y-90268158D01*
X109152629Y-90355795D01*
X109156865Y-90362098D01*
X109156865Y-90362099D01*
X109229581Y-90470312D01*
X109250999Y-90540588D01*
X109250999Y-93539604D01*
X109230997Y-93607725D01*
X109207829Y-93634552D01*
X109140538Y-93693255D01*
X109049449Y-93822861D01*
X109046689Y-93829941D01*
X109001413Y-93946068D01*
X108991905Y-93970454D01*
X108990913Y-93977987D01*
X108990913Y-93977988D01*
X108973117Y-94113168D01*
X108971228Y-94127513D01*
X108988612Y-94284970D01*
X108991222Y-94292101D01*
X108991222Y-94292103D01*
X109032255Y-94404231D01*
X109043052Y-94433736D01*
X109047285Y-94440036D01*
X109047290Y-94440045D01*
X109050373Y-94444632D01*
X109071765Y-94512329D01*
X109053160Y-94580845D01*
X109000467Y-94628426D01*
X108930415Y-94639965D01*
X108865244Y-94611800D01*
X108856696Y-94604002D01*
X108764478Y-94511784D01*
X108749336Y-94493036D01*
X108748221Y-94491811D01*
X108742571Y-94483060D01*
X108734393Y-94476613D01*
X108734391Y-94476611D01*
X108716200Y-94462271D01*
X108711759Y-94458325D01*
X108711697Y-94458398D01*
X108707733Y-94455039D01*
X108704056Y-94451362D01*
X108688308Y-94440108D01*
X108683638Y-94436602D01*
X108643353Y-94404844D01*
X108634719Y-94401812D01*
X108627266Y-94396486D01*
X108578150Y-94381797D01*
X108572508Y-94379964D01*
X108531633Y-94365610D01*
X108531632Y-94365610D01*
X108524149Y-94362982D01*
X108518584Y-94362500D01*
X108515876Y-94362500D01*
X108513242Y-94362386D01*
X108513144Y-94362357D01*
X108513151Y-94362193D01*
X108512447Y-94362149D01*
X108506222Y-94360287D01*
X108452365Y-94362403D01*
X108447418Y-94362500D01*
X108041682Y-94362500D01*
X107973561Y-94342498D01*
X107947114Y-94316860D01*
X107945878Y-94317949D01*
X107940855Y-94312251D01*
X107936553Y-94305992D01*
X107818275Y-94200611D01*
X107810889Y-94196700D01*
X107765823Y-94172839D01*
X107678274Y-94126484D01*
X107524633Y-94087892D01*
X107517034Y-94087852D01*
X107517033Y-94087852D01*
X107451181Y-94087507D01*
X107366221Y-94087062D01*
X107358841Y-94088834D01*
X107358839Y-94088834D01*
X107303276Y-94102174D01*
X107214913Y-94123388D01*
X107144006Y-94119841D01*
X107086272Y-94078521D01*
X107060042Y-94012548D01*
X107059500Y-94000869D01*
X107059500Y-93427384D01*
X107079502Y-93359263D01*
X107096405Y-93338289D01*
X107923178Y-92511516D01*
X107985490Y-92477490D01*
X108014252Y-92474627D01*
X108138318Y-92476576D01*
X108138321Y-92476576D01*
X108145916Y-92476695D01*
X108300332Y-92441329D01*
X108377639Y-92402448D01*
X108435072Y-92373563D01*
X108435075Y-92373561D01*
X108441855Y-92370151D01*
X108447626Y-92365222D01*
X108447629Y-92365220D01*
X108556536Y-92272204D01*
X108556536Y-92272203D01*
X108562314Y-92267269D01*
X108654755Y-92138624D01*
X108713842Y-91991641D01*
X108731723Y-91866001D01*
X108735581Y-91838891D01*
X108735581Y-91838888D01*
X108736162Y-91834807D01*
X108736307Y-91821000D01*
X108717276Y-91663733D01*
X108661280Y-91515546D01*
X108571553Y-91384992D01*
X108453275Y-91279611D01*
X108445889Y-91275700D01*
X108367749Y-91234327D01*
X108313274Y-91205484D01*
X108159633Y-91166892D01*
X108152034Y-91166852D01*
X108152033Y-91166852D01*
X108086181Y-91166507D01*
X108001221Y-91166062D01*
X107993841Y-91167834D01*
X107993839Y-91167834D01*
X107854563Y-91201271D01*
X107854560Y-91201272D01*
X107847184Y-91203043D01*
X107706414Y-91275700D01*
X107587039Y-91379838D01*
X107495950Y-91509444D01*
X107438406Y-91657037D01*
X107437414Y-91664570D01*
X107437414Y-91664571D01*
X107419204Y-91802895D01*
X107417729Y-91814096D01*
X107420544Y-91839591D01*
X107423963Y-91870566D01*
X107411557Y-91940470D01*
X107387819Y-91973487D01*
X106514595Y-92846711D01*
X106452283Y-92880737D01*
X106381468Y-92875672D01*
X106324632Y-92833125D01*
X106299821Y-92766605D01*
X106299500Y-92757616D01*
X106299500Y-81273096D01*
X109280231Y-81273096D01*
X109297615Y-81430553D01*
X109352055Y-81579319D01*
X109356291Y-81585622D01*
X109356291Y-81585623D01*
X109424570Y-81687232D01*
X109440410Y-81710805D01*
X109557578Y-81817419D01*
X109696795Y-81893008D01*
X109850024Y-81933207D01*
X109933979Y-81934526D01*
X110000821Y-81935576D01*
X110000824Y-81935576D01*
X110008418Y-81935695D01*
X110015822Y-81933999D01*
X110015824Y-81933999D01*
X110111385Y-81912113D01*
X110182252Y-81916402D01*
X110239550Y-81958325D01*
X110265087Y-82024569D01*
X110265514Y-82034933D01*
X110265514Y-82480000D01*
X110270447Y-82530357D01*
X110290352Y-82578554D01*
X110297868Y-82649150D01*
X110291199Y-82671820D01*
X110285266Y-82680699D01*
X110265514Y-82780000D01*
X110265514Y-83297324D01*
X110245512Y-83365445D01*
X110222344Y-83392273D01*
X110190050Y-83420445D01*
X110098961Y-83550051D01*
X110041417Y-83697644D01*
X110040425Y-83705177D01*
X110040425Y-83705178D01*
X110030575Y-83780000D01*
X110020740Y-83854703D01*
X110038124Y-84012160D01*
X110040734Y-84019291D01*
X110040734Y-84019293D01*
X110048124Y-84039486D01*
X110092564Y-84160926D01*
X110180919Y-84292412D01*
X110186538Y-84297525D01*
X110186539Y-84297526D01*
X110197914Y-84307876D01*
X110298087Y-84399026D01*
X110437304Y-84474615D01*
X110590533Y-84514814D01*
X110674488Y-84516133D01*
X110741330Y-84517183D01*
X110741333Y-84517183D01*
X110748927Y-84517302D01*
X110903343Y-84481936D01*
X110973753Y-84446524D01*
X111038083Y-84414170D01*
X111038086Y-84414168D01*
X111044866Y-84410758D01*
X111050637Y-84405829D01*
X111050640Y-84405827D01*
X111159547Y-84312811D01*
X111159547Y-84312810D01*
X111165325Y-84307876D01*
X111257766Y-84179231D01*
X111282184Y-84118489D01*
X111326151Y-84062745D01*
X111399091Y-84039486D01*
X112025000Y-84039486D01*
X112037897Y-84036921D01*
X112062476Y-84034500D01*
X113662524Y-84034500D01*
X113687103Y-84036921D01*
X113700000Y-84039486D01*
X115200000Y-84039486D01*
X115212897Y-84036921D01*
X115237476Y-84034500D01*
X116837524Y-84034500D01*
X116862103Y-84036921D01*
X116875000Y-84039486D01*
X118375000Y-84039486D01*
X118387897Y-84036921D01*
X118412476Y-84034500D01*
X120012524Y-84034500D01*
X120037103Y-84036921D01*
X120050000Y-84039486D01*
X121550000Y-84039486D01*
X121649301Y-84019734D01*
X121733484Y-83963484D01*
X121789734Y-83879301D01*
X121809486Y-83780000D01*
X121809486Y-82780000D01*
X121804447Y-82729111D01*
X121784747Y-82681691D01*
X121777085Y-82611110D01*
X121783808Y-82588170D01*
X121789734Y-82579301D01*
X121799470Y-82530357D01*
X121808279Y-82486068D01*
X121809486Y-82480000D01*
X121809486Y-80080000D01*
X121804553Y-80029643D01*
X121765905Y-79936063D01*
X121694388Y-79864396D01*
X121600889Y-79825553D01*
X121588479Y-79825540D01*
X121543858Y-79825493D01*
X121499643Y-79825447D01*
X121406063Y-79864095D01*
X121400912Y-79867529D01*
X121400910Y-79867530D01*
X120869892Y-80221542D01*
X120802117Y-80242686D01*
X120730108Y-80221542D01*
X120196502Y-79865805D01*
X120193937Y-79864095D01*
X120162217Y-79847161D01*
X120157484Y-79844634D01*
X120157481Y-79844633D01*
X120149301Y-79840266D01*
X120140203Y-79838456D01*
X120140202Y-79838456D01*
X120075333Y-79825553D01*
X120050000Y-79820514D01*
X119950699Y-79840266D01*
X119866516Y-79896516D01*
X119810266Y-79980699D01*
X119790514Y-80080000D01*
X119790514Y-80549015D01*
X119770512Y-80617136D01*
X119716856Y-80663629D01*
X119646582Y-80673733D01*
X119621321Y-80667156D01*
X119616274Y-80664484D01*
X119559324Y-80650179D01*
X119470002Y-80627743D01*
X119462633Y-80625892D01*
X119455034Y-80625852D01*
X119455033Y-80625852D01*
X119389181Y-80625507D01*
X119304221Y-80625062D01*
X119296841Y-80626834D01*
X119296839Y-80626834D01*
X119157563Y-80660271D01*
X119157560Y-80660272D01*
X119150184Y-80662043D01*
X119009414Y-80734700D01*
X118890039Y-80838838D01*
X118885672Y-80845052D01*
X118863573Y-80876495D01*
X118808038Y-80920727D01*
X118737406Y-80927912D01*
X118674102Y-80895770D01*
X118638224Y-80834506D01*
X118634486Y-80804044D01*
X118634486Y-80080000D01*
X118629553Y-80029643D01*
X118590905Y-79936063D01*
X118519388Y-79864396D01*
X118425889Y-79825553D01*
X118413479Y-79825540D01*
X118368858Y-79825493D01*
X118324643Y-79825447D01*
X118231063Y-79864095D01*
X118225912Y-79867529D01*
X118225910Y-79867530D01*
X117694892Y-80221542D01*
X117627117Y-80242686D01*
X117555108Y-80221542D01*
X117021502Y-79865805D01*
X117018937Y-79864095D01*
X116987217Y-79847161D01*
X116982484Y-79844634D01*
X116982481Y-79844633D01*
X116974301Y-79840266D01*
X116965203Y-79838456D01*
X116965202Y-79838456D01*
X116900333Y-79825553D01*
X116875000Y-79820514D01*
X116775699Y-79840266D01*
X116691516Y-79896516D01*
X116635266Y-79980699D01*
X116615514Y-80080000D01*
X116615514Y-80549015D01*
X116595512Y-80617136D01*
X116541856Y-80663629D01*
X116471582Y-80673733D01*
X116446321Y-80667156D01*
X116441274Y-80664484D01*
X116384324Y-80650179D01*
X116295002Y-80627743D01*
X116287633Y-80625892D01*
X116280034Y-80625852D01*
X116280033Y-80625852D01*
X116214181Y-80625507D01*
X116129221Y-80625062D01*
X116121841Y-80626834D01*
X116121839Y-80626834D01*
X115982563Y-80660271D01*
X115982560Y-80660272D01*
X115975184Y-80662043D01*
X115834414Y-80734700D01*
X115715039Y-80838838D01*
X115710672Y-80845052D01*
X115688573Y-80876495D01*
X115633038Y-80920727D01*
X115562406Y-80927912D01*
X115499102Y-80895770D01*
X115463224Y-80834506D01*
X115459486Y-80804044D01*
X115459486Y-80080000D01*
X115454553Y-80029643D01*
X115415905Y-79936063D01*
X115344388Y-79864396D01*
X115250889Y-79825553D01*
X115238479Y-79825540D01*
X115193858Y-79825493D01*
X115149643Y-79825447D01*
X115056063Y-79864095D01*
X115050912Y-79867529D01*
X115050910Y-79867530D01*
X114519892Y-80221542D01*
X114452117Y-80242686D01*
X114380108Y-80221542D01*
X113846502Y-79865805D01*
X113843937Y-79864095D01*
X113812217Y-79847161D01*
X113807484Y-79844634D01*
X113807481Y-79844633D01*
X113799301Y-79840266D01*
X113790203Y-79838456D01*
X113790202Y-79838456D01*
X113725333Y-79825553D01*
X113700000Y-79820514D01*
X113600699Y-79840266D01*
X113516516Y-79896516D01*
X113460266Y-79980699D01*
X113440514Y-80080000D01*
X113440514Y-80549015D01*
X113420512Y-80617136D01*
X113366856Y-80663629D01*
X113296582Y-80673733D01*
X113271321Y-80667156D01*
X113266274Y-80664484D01*
X113209324Y-80650179D01*
X113120002Y-80627743D01*
X113112633Y-80625892D01*
X113105034Y-80625852D01*
X113105033Y-80625852D01*
X113039181Y-80625507D01*
X112954221Y-80625062D01*
X112946841Y-80626834D01*
X112946839Y-80626834D01*
X112807563Y-80660271D01*
X112807560Y-80660272D01*
X112800184Y-80662043D01*
X112659414Y-80734700D01*
X112540039Y-80838838D01*
X112535672Y-80845052D01*
X112513573Y-80876495D01*
X112458038Y-80920727D01*
X112387406Y-80927912D01*
X112324102Y-80895770D01*
X112288224Y-80834506D01*
X112284486Y-80804044D01*
X112284486Y-80080000D01*
X112279553Y-80029643D01*
X112240905Y-79936063D01*
X112169388Y-79864396D01*
X112075889Y-79825553D01*
X112063479Y-79825540D01*
X112018858Y-79825493D01*
X111974643Y-79825447D01*
X111881063Y-79864095D01*
X111875912Y-79867529D01*
X111875910Y-79867530D01*
X111344892Y-80221542D01*
X111277117Y-80242686D01*
X111205108Y-80221542D01*
X110671502Y-79865805D01*
X110668937Y-79864095D01*
X110637217Y-79847161D01*
X110632484Y-79844634D01*
X110632481Y-79844633D01*
X110624301Y-79840266D01*
X110615203Y-79838456D01*
X110615202Y-79838456D01*
X110550333Y-79825553D01*
X110525000Y-79820514D01*
X110425699Y-79840266D01*
X110341516Y-79896516D01*
X110285266Y-79980699D01*
X110265514Y-80080000D01*
X110265514Y-80525461D01*
X110245512Y-80593582D01*
X110191856Y-80640075D01*
X110121582Y-80650179D01*
X110108819Y-80647665D01*
X110029506Y-80627743D01*
X110029502Y-80627743D01*
X110022135Y-80625892D01*
X110014536Y-80625852D01*
X110014535Y-80625852D01*
X109948683Y-80625507D01*
X109863723Y-80625062D01*
X109856343Y-80626834D01*
X109856341Y-80626834D01*
X109717065Y-80660271D01*
X109717062Y-80660272D01*
X109709686Y-80662043D01*
X109568916Y-80734700D01*
X109449541Y-80838838D01*
X109358452Y-80968444D01*
X109300908Y-81116037D01*
X109280231Y-81273096D01*
X106299500Y-81273096D01*
X106299500Y-77850000D01*
X106319502Y-77781879D01*
X106373158Y-77735386D01*
X106425500Y-77724000D01*
X125349500Y-77724000D01*
X125417621Y-77744002D01*
G37*
%TD.AperFunction*%
%TD*%
M02*
