G04 #@! TF.GenerationSoftware,KiCad,Pcbnew,6.0.10-86aedd382b~118~ubuntu22.04.1*
G04 #@! TF.CreationDate,2023-01-28T15:28:02-08:00*
G04 #@! TF.ProjectId,esp8266-dongle,65737038-3236-4362-9d64-6f6e676c652e,rev?*
G04 #@! TF.SameCoordinates,Original*
G04 #@! TF.FileFunction,Soldermask,Bot*
G04 #@! TF.FilePolarity,Negative*
%FSLAX46Y46*%
G04 Gerber Fmt 4.6, Leading zero omitted, Abs format (unit mm)*
G04 Created by KiCad (PCBNEW 6.0.10-86aedd382b~118~ubuntu22.04.1) date 2023-01-28 15:28:02*
%MOMM*%
%LPD*%
G01*
G04 APERTURE LIST*
G04 Aperture macros list*
%AMFreePoly0*
4,1,6,1.000000,0.000000,0.500000,-0.750000,-0.500000,-0.750000,-0.500000,0.750000,0.500000,0.750000,1.000000,0.000000,1.000000,0.000000,$1*%
G04 Aperture macros list end*
%ADD10R,1.800000X3.600000*%
%ADD11O,1.800000X3.600000*%
%ADD12R,1.500000X1.500000*%
%ADD13FreePoly0,90.000000*%
%ADD14FreePoly0,270.000000*%
%ADD15C,1.500000*%
G04 APERTURE END LIST*
D10*
G04 #@! TO.C,J1*
X120000000Y-106600000D03*
D11*
X117460000Y-106600000D03*
X114920000Y-106600000D03*
X112380000Y-106600000D03*
G04 #@! TD*
D12*
G04 #@! TO.C,JP9*
X111275000Y-100400000D03*
X111275000Y-102800000D03*
D13*
X111275000Y-103600000D03*
D14*
X111275000Y-99600000D03*
G04 #@! TD*
D15*
G04 #@! TO.C,TP1*
X124400000Y-86950000D03*
G04 #@! TD*
D12*
G04 #@! TO.C,JP4*
X120800000Y-90240000D03*
X120800000Y-92640000D03*
D13*
X120800000Y-93440000D03*
D14*
X120800000Y-89440000D03*
G04 #@! TD*
D12*
G04 #@! TO.C,JP7*
X114450000Y-92640000D03*
X114450000Y-90240000D03*
D13*
X114450000Y-93440000D03*
D14*
X114450000Y-89440000D03*
G04 #@! TD*
D12*
G04 #@! TO.C,JP12*
X117625000Y-100400000D03*
X117625000Y-102800000D03*
D13*
X117625000Y-103600000D03*
D14*
X117625000Y-99600000D03*
G04 #@! TD*
D12*
G04 #@! TO.C,JP8*
X117625000Y-92640000D03*
X117625000Y-90240000D03*
D13*
X117625000Y-93440000D03*
D14*
X117625000Y-89440000D03*
G04 #@! TD*
D12*
G04 #@! TO.C,JP5*
X114450000Y-80080000D03*
X114450000Y-82480000D03*
D13*
X114450000Y-83280000D03*
D14*
X114450000Y-79280000D03*
G04 #@! TD*
D12*
G04 #@! TO.C,JP3*
X111275000Y-92640000D03*
X111275000Y-90240000D03*
D13*
X111275000Y-93440000D03*
D14*
X111275000Y-89440000D03*
G04 #@! TD*
D12*
G04 #@! TO.C,JP10*
X120800000Y-100400000D03*
X120800000Y-102800000D03*
D13*
X120800000Y-103600000D03*
D14*
X120800000Y-99600000D03*
G04 #@! TD*
D12*
G04 #@! TO.C,JP6*
X117625000Y-80080000D03*
X117625000Y-82480000D03*
D13*
X117625000Y-83280000D03*
D14*
X117625000Y-79280000D03*
G04 #@! TD*
D12*
G04 #@! TO.C,JP11*
X114450000Y-100400000D03*
X114450000Y-102800000D03*
D13*
X114450000Y-103600000D03*
D14*
X114450000Y-99600000D03*
G04 #@! TD*
D12*
G04 #@! TO.C,JP2*
X120800000Y-80080000D03*
X120800000Y-82480000D03*
D13*
X120800000Y-83280000D03*
D14*
X120800000Y-79280000D03*
G04 #@! TD*
D12*
G04 #@! TO.C,JP1*
X111275000Y-80080000D03*
X111275000Y-82480000D03*
D13*
X111275000Y-83280000D03*
D14*
X111275000Y-79280000D03*
G04 #@! TD*
M02*
