G04 #@! TF.GenerationSoftware,KiCad,Pcbnew,6.0.10-86aedd382b~118~ubuntu22.04.1*
G04 #@! TF.CreationDate,2023-01-28T15:28:02-08:00*
G04 #@! TF.ProjectId,esp8266-dongle,65737038-3236-4362-9d64-6f6e676c652e,rev?*
G04 #@! TF.SameCoordinates,Original*
G04 #@! TF.FileFunction,Copper,L2,Bot*
G04 #@! TF.FilePolarity,Positive*
%FSLAX46Y46*%
G04 Gerber Fmt 4.6, Leading zero omitted, Abs format (unit mm)*
G04 Created by KiCad (PCBNEW 6.0.10-86aedd382b~118~ubuntu22.04.1) date 2023-01-28 15:28:02*
%MOMM*%
%LPD*%
G01*
G04 APERTURE LIST*
G04 Aperture macros list*
%AMFreePoly0*
4,1,6,1.000000,0.000000,0.500000,-0.750000,-0.500000,-0.750000,-0.500000,0.750000,0.500000,0.750000,1.000000,0.000000,1.000000,0.000000,$1*%
%AMFreePoly1*
4,1,7,0.700000,0.000000,1.200000,-0.750000,-1.200000,-0.750000,-0.700000,0.000000,-1.200000,0.750000,1.200000,0.750000,0.700000,0.000000,0.700000,0.000000,$1*%
G04 Aperture macros list end*
G04 #@! TA.AperFunction,ComponentPad*
%ADD10R,1.800000X3.600000*%
G04 #@! TD*
G04 #@! TA.AperFunction,ComponentPad*
%ADD11O,1.800000X3.600000*%
G04 #@! TD*
G04 #@! TA.AperFunction,SMDPad,CuDef*
%ADD12FreePoly0,90.000000*%
G04 #@! TD*
G04 #@! TA.AperFunction,SMDPad,CuDef*
%ADD13FreePoly1,90.000000*%
G04 #@! TD*
G04 #@! TA.AperFunction,SMDPad,CuDef*
%ADD14FreePoly0,270.000000*%
G04 #@! TD*
G04 #@! TA.AperFunction,SMDPad,CuDef*
%ADD15C,1.500000*%
G04 #@! TD*
G04 #@! TA.AperFunction,ViaPad*
%ADD16C,0.800000*%
G04 #@! TD*
G04 #@! TA.AperFunction,Conductor*
%ADD17C,0.500000*%
G04 #@! TD*
G04 #@! TA.AperFunction,Conductor*
%ADD18C,1.000000*%
G04 #@! TD*
G04 #@! TA.AperFunction,Conductor*
%ADD19C,0.250000*%
G04 #@! TD*
G04 APERTURE END LIST*
D10*
G04 #@! TO.P,J1,1,Pin_1*
G04 #@! TO.N,/PIN1*
X120000000Y-106600000D03*
D11*
G04 #@! TO.P,J1,2,Pin_2*
G04 #@! TO.N,/PIN2*
X117460000Y-106600000D03*
G04 #@! TO.P,J1,3,Pin_3*
G04 #@! TO.N,/PIN3*
X114920000Y-106600000D03*
G04 #@! TO.P,J1,4,Pin_4*
G04 #@! TO.N,/PIN4*
X112380000Y-106600000D03*
G04 #@! TD*
D12*
G04 #@! TO.P,JP9,1,A*
G04 #@! TO.N,/TXD*
X111275000Y-103600000D03*
D13*
G04 #@! TO.P,JP9,2,C*
G04 #@! TO.N,/PIN4*
X111275000Y-101600000D03*
D14*
G04 #@! TO.P,JP9,3,B*
G04 #@! TO.N,/RXD*
X111275000Y-99600000D03*
G04 #@! TD*
D15*
G04 #@! TO.P,TP1,1,1*
G04 #@! TO.N,/GPIO0*
X124400000Y-86950000D03*
G04 #@! TD*
D12*
G04 #@! TO.P,JP4,1,A*
G04 #@! TO.N,/ROUTER_TX*
X120800000Y-93440000D03*
D13*
G04 #@! TO.P,JP4,2,C*
G04 #@! TO.N,/PIN1*
X120800000Y-91440000D03*
D14*
G04 #@! TO.P,JP4,3,B*
G04 #@! TO.N,/ROUTER_RX*
X120800000Y-89440000D03*
G04 #@! TD*
D12*
G04 #@! TO.P,JP7,1,A*
G04 #@! TO.N,/ROUTER_TX*
X114450000Y-93440000D03*
D13*
G04 #@! TO.P,JP7,2,C*
G04 #@! TO.N,/PIN3*
X114450000Y-91440000D03*
D14*
G04 #@! TO.P,JP7,3,B*
G04 #@! TO.N,/ROUTER_RX*
X114450000Y-89440000D03*
G04 #@! TD*
D12*
G04 #@! TO.P,JP12,1,A*
G04 #@! TO.N,/TXD*
X117625000Y-103600000D03*
D13*
G04 #@! TO.P,JP12,2,C*
G04 #@! TO.N,/PIN2*
X117625000Y-101600000D03*
D14*
G04 #@! TO.P,JP12,3,B*
G04 #@! TO.N,/RXD*
X117625000Y-99600000D03*
G04 #@! TD*
D12*
G04 #@! TO.P,JP8,1,A*
G04 #@! TO.N,/ROUTER_TX*
X117625000Y-93440000D03*
D13*
G04 #@! TO.P,JP8,2,C*
G04 #@! TO.N,/PIN2*
X117625000Y-91440000D03*
D14*
G04 #@! TO.P,JP8,3,B*
G04 #@! TO.N,/ROUTER_RX*
X117625000Y-89440000D03*
G04 #@! TD*
D12*
G04 #@! TO.P,JP5,1,A*
G04 #@! TO.N,+3V3*
X114450000Y-83280000D03*
D13*
G04 #@! TO.P,JP5,2,C*
G04 #@! TO.N,/PIN3*
X114450000Y-81280000D03*
D14*
G04 #@! TO.P,JP5,3,B*
G04 #@! TO.N,GND*
X114450000Y-79280000D03*
G04 #@! TD*
D12*
G04 #@! TO.P,JP3,1,A*
G04 #@! TO.N,/ROUTER_TX*
X111275000Y-93440000D03*
D13*
G04 #@! TO.P,JP3,2,C*
G04 #@! TO.N,/PIN4*
X111275000Y-91440000D03*
D14*
G04 #@! TO.P,JP3,3,B*
G04 #@! TO.N,/ROUTER_RX*
X111275000Y-89440000D03*
G04 #@! TD*
D12*
G04 #@! TO.P,JP10,1,A*
G04 #@! TO.N,/TXD*
X120800000Y-103600000D03*
D13*
G04 #@! TO.P,JP10,2,C*
G04 #@! TO.N,/PIN1*
X120800000Y-101600000D03*
D14*
G04 #@! TO.P,JP10,3,B*
G04 #@! TO.N,/RXD*
X120800000Y-99600000D03*
G04 #@! TD*
D12*
G04 #@! TO.P,JP6,1,A*
G04 #@! TO.N,+3V3*
X117625000Y-83280000D03*
D13*
G04 #@! TO.P,JP6,2,C*
G04 #@! TO.N,/PIN2*
X117625000Y-81280000D03*
D14*
G04 #@! TO.P,JP6,3,B*
G04 #@! TO.N,GND*
X117625000Y-79280000D03*
G04 #@! TD*
D12*
G04 #@! TO.P,JP11,1,A*
G04 #@! TO.N,/TXD*
X114450000Y-103600000D03*
D13*
G04 #@! TO.P,JP11,2,C*
G04 #@! TO.N,/PIN3*
X114450000Y-101600000D03*
D14*
G04 #@! TO.P,JP11,3,B*
G04 #@! TO.N,/RXD*
X114450000Y-99600000D03*
G04 #@! TD*
D12*
G04 #@! TO.P,JP2,1,A*
G04 #@! TO.N,+3V3*
X120800000Y-83280000D03*
D13*
G04 #@! TO.P,JP2,2,C*
G04 #@! TO.N,/PIN1*
X120800000Y-81280000D03*
D14*
G04 #@! TO.P,JP2,3,B*
G04 #@! TO.N,GND*
X120800000Y-79280000D03*
G04 #@! TD*
D12*
G04 #@! TO.P,JP1,1,A*
G04 #@! TO.N,+3V3*
X111275000Y-83280000D03*
D13*
G04 #@! TO.P,JP1,2,C*
G04 #@! TO.N,/PIN4*
X111275000Y-81280000D03*
D14*
G04 #@! TO.P,JP1,3,B*
G04 #@! TO.N,GND*
X111275000Y-79280000D03*
G04 #@! TD*
D16*
G04 #@! TO.N,+3V3*
X110680011Y-83861607D03*
X109601000Y-99187000D03*
X122700000Y-99050000D03*
G04 #@! TO.N,GND*
X124206000Y-94361000D03*
X123825000Y-99060000D03*
X122682000Y-94234000D03*
X108028827Y-97589031D03*
G04 #@! TO.N,/PIN1*
X119779511Y-91675489D03*
X119380000Y-81280000D03*
X122000000Y-101750000D03*
G04 #@! TO.N,/PIN2*
X116205000Y-81280000D03*
X118800000Y-101400000D03*
X116205000Y-91440000D03*
G04 #@! TO.N,/PIN3*
X113030000Y-81280000D03*
X113030000Y-90805000D03*
X115600000Y-101550000D03*
G04 #@! TO.N,/PIN4*
X112385000Y-101135000D03*
X112649000Y-92202000D03*
X109939502Y-81280000D03*
G04 #@! TO.N,/ROUTER_TX*
X108174500Y-91758008D03*
G04 #@! TO.N,/ROUTER_RX*
X120950000Y-87950000D03*
G04 #@! TO.N,/CH_PD*
X109740076Y-90056476D03*
X109630498Y-94300000D03*
G04 #@! TO.N,/RESET*
X107442000Y-94742000D03*
X109093000Y-95377000D03*
G04 #@! TO.N,/GPIO0*
X121846047Y-86061888D03*
X124500000Y-102550000D03*
G04 #@! TO.N,/RXD*
X122097831Y-100156520D03*
G04 #@! TO.N,/TXD*
X106781788Y-77913331D03*
G04 #@! TD*
D17*
G04 #@! TO.N,+3V3*
X110138000Y-98650000D02*
X122300000Y-98650000D01*
X122300000Y-98650000D02*
X122700000Y-99050000D01*
D18*
X120800000Y-83280000D02*
X117625000Y-83280000D01*
X114450000Y-83280000D02*
X111345000Y-83280000D01*
X117625000Y-83280000D02*
X114450000Y-83280000D01*
D17*
X111275000Y-83280000D02*
X110693393Y-83861607D01*
X110693393Y-83861607D02*
X110680011Y-83861607D01*
X109601000Y-99187000D02*
X110138000Y-98650000D01*
D18*
G04 #@! TO.N,GND*
X120800000Y-79280000D02*
X117625000Y-79280000D01*
X111275000Y-79280000D02*
X114450000Y-79280000D01*
X117625000Y-79280000D02*
X114450000Y-79280000D01*
D17*
G04 #@! TO.N,/PIN1*
X121850000Y-101600000D02*
X120800000Y-101600000D01*
X120015000Y-91440000D02*
X119779511Y-91675489D01*
X120800000Y-81280000D02*
X119380000Y-81280000D01*
X122000000Y-101750000D02*
X121850000Y-101600000D01*
X120800000Y-91440000D02*
X120015000Y-91440000D01*
G04 #@! TO.N,/PIN2*
X118600000Y-101600000D02*
X117625000Y-101600000D01*
X117625000Y-91440000D02*
X116205000Y-91440000D01*
X116205000Y-81280000D02*
X117625000Y-81280000D01*
X118800000Y-101400000D02*
X118600000Y-101600000D01*
G04 #@! TO.N,/PIN3*
X114450000Y-91440000D02*
X113665000Y-91440000D01*
X113665000Y-91440000D02*
X113030000Y-90805000D01*
X113030000Y-81280000D02*
X114450000Y-81280000D01*
X115600000Y-101550000D02*
X115550000Y-101600000D01*
X115550000Y-101600000D02*
X114450000Y-101600000D01*
G04 #@! TO.N,/PIN4*
X111275000Y-81280000D02*
X109939502Y-81280000D01*
D18*
X111887000Y-91440000D02*
X111275000Y-91440000D01*
D17*
X111920000Y-101600000D02*
X111275000Y-101600000D01*
X112385000Y-101135000D02*
X111920000Y-101600000D01*
D18*
X112649000Y-92202000D02*
X111887000Y-91440000D01*
D19*
G04 #@! TO.N,/ROUTER_TX*
X109856492Y-93440000D02*
X108174500Y-91758008D01*
X111275000Y-93440000D02*
X109856492Y-93440000D01*
D18*
X114450000Y-93440000D02*
X111275000Y-93440000D01*
X120800000Y-93440000D02*
X117625000Y-93440000D01*
X117625000Y-93440000D02*
X114450000Y-93440000D01*
G04 #@! TO.N,/ROUTER_RX*
X117625000Y-89440000D02*
X114450000Y-89440000D01*
X120800000Y-89440000D02*
X117625000Y-89440000D01*
D19*
X120800000Y-88100000D02*
X120800000Y-89440000D01*
D18*
X114450000Y-89440000D02*
X111275000Y-89440000D01*
D19*
X120950000Y-87950000D02*
X120800000Y-88100000D01*
G04 #@! TO.N,/CH_PD*
X109630498Y-94300000D02*
X107450000Y-92119502D01*
X107450000Y-91350000D02*
X108743524Y-90056476D01*
X107450000Y-92119502D02*
X107450000Y-91350000D01*
X108743524Y-90056476D02*
X109740076Y-90056476D01*
G04 #@! TO.N,/RESET*
X109093000Y-95377000D02*
X108077000Y-95377000D01*
X108077000Y-95377000D02*
X107442000Y-94742000D01*
G04 #@! TO.N,/GPIO0*
X125400000Y-87950000D02*
X125400000Y-101650000D01*
X123511888Y-86061888D02*
X124400000Y-86950000D01*
X125400000Y-101650000D02*
X124500000Y-102550000D01*
X124400000Y-86950000D02*
X125400000Y-87950000D01*
X121846047Y-86061888D02*
X123511888Y-86061888D01*
G04 #@! TO.N,/RXD*
X122097831Y-100156520D02*
X121541311Y-99600000D01*
X121541311Y-99600000D02*
X120800000Y-99600000D01*
D18*
X111275000Y-99600000D02*
X120800000Y-99600000D01*
D19*
G04 #@! TO.N,/TXD*
X106781788Y-77913331D02*
X106450000Y-78245119D01*
X106450000Y-102800000D02*
X107250000Y-103600000D01*
X107250000Y-103600000D02*
X111275000Y-103600000D01*
D18*
X111275000Y-103600000D02*
X120800000Y-103600000D01*
D19*
X106450000Y-78245119D02*
X106450000Y-102800000D01*
G04 #@! TD*
G04 #@! TA.AperFunction,Conductor*
G04 #@! TO.N,GND*
G36*
X125417621Y-77744002D02*
G01*
X125464114Y-77797658D01*
X125475500Y-77850000D01*
X125475500Y-86328560D01*
X125455498Y-86396681D01*
X125401842Y-86443174D01*
X125331568Y-86453278D01*
X125266988Y-86423784D01*
X125244554Y-86398290D01*
X125243609Y-86396867D01*
X125240717Y-86391429D01*
X125116212Y-86238770D01*
X125050894Y-86184734D01*
X124969177Y-86117132D01*
X124969174Y-86117130D01*
X124964427Y-86113203D01*
X124791143Y-86019508D01*
X124602960Y-85961256D01*
X124596835Y-85960612D01*
X124596834Y-85960612D01*
X124413176Y-85941309D01*
X124413174Y-85941309D01*
X124407047Y-85940665D01*
X124325018Y-85948130D01*
X124217004Y-85957960D01*
X124217001Y-85957961D01*
X124210865Y-85958519D01*
X124204959Y-85960257D01*
X124204955Y-85960258D01*
X124077388Y-85997803D01*
X124006391Y-85997848D01*
X123952718Y-85966024D01*
X123818366Y-85831672D01*
X123803224Y-85812924D01*
X123802109Y-85811699D01*
X123796459Y-85802948D01*
X123788281Y-85796501D01*
X123788279Y-85796499D01*
X123770088Y-85782159D01*
X123765647Y-85778213D01*
X123765585Y-85778286D01*
X123761621Y-85774927D01*
X123757944Y-85771250D01*
X123742196Y-85759996D01*
X123737526Y-85756490D01*
X123697241Y-85724732D01*
X123688607Y-85721700D01*
X123681154Y-85716374D01*
X123632038Y-85701685D01*
X123626396Y-85699852D01*
X123585521Y-85685498D01*
X123585520Y-85685498D01*
X123578037Y-85682870D01*
X123572472Y-85682388D01*
X123569764Y-85682388D01*
X123567130Y-85682274D01*
X123567032Y-85682245D01*
X123567039Y-85682081D01*
X123566335Y-85682037D01*
X123560110Y-85680175D01*
X123506253Y-85682291D01*
X123501306Y-85682388D01*
X122445729Y-85682388D01*
X122377608Y-85662386D01*
X122351161Y-85636748D01*
X122349925Y-85637837D01*
X122344902Y-85632139D01*
X122340600Y-85625880D01*
X122222322Y-85520499D01*
X122214936Y-85516588D01*
X122089035Y-85449927D01*
X122089036Y-85449927D01*
X122082321Y-85446372D01*
X121928680Y-85407780D01*
X121921081Y-85407740D01*
X121921080Y-85407740D01*
X121855228Y-85407395D01*
X121770268Y-85406950D01*
X121762888Y-85408722D01*
X121762886Y-85408722D01*
X121623610Y-85442159D01*
X121623607Y-85442160D01*
X121616231Y-85443931D01*
X121475461Y-85516588D01*
X121356086Y-85620726D01*
X121264997Y-85750332D01*
X121207453Y-85897925D01*
X121206461Y-85905458D01*
X121206461Y-85905459D01*
X121191061Y-86022438D01*
X121186776Y-86054984D01*
X121204160Y-86212441D01*
X121206770Y-86219572D01*
X121206770Y-86219574D01*
X121212359Y-86234845D01*
X121258600Y-86361207D01*
X121262836Y-86367510D01*
X121262836Y-86367511D01*
X121337279Y-86478293D01*
X121346955Y-86492693D01*
X121352574Y-86497806D01*
X121352575Y-86497807D01*
X121426819Y-86565363D01*
X121464123Y-86599307D01*
X121603340Y-86674896D01*
X121756569Y-86715095D01*
X121840524Y-86716414D01*
X121907366Y-86717464D01*
X121907369Y-86717464D01*
X121914963Y-86717583D01*
X122069379Y-86682217D01*
X122172421Y-86630393D01*
X122204119Y-86614451D01*
X122204122Y-86614449D01*
X122210902Y-86611039D01*
X122216673Y-86606110D01*
X122216676Y-86606108D01*
X122325589Y-86513087D01*
X122325590Y-86513086D01*
X122331361Y-86508157D01*
X122341633Y-86493862D01*
X122397628Y-86450214D01*
X122443956Y-86441388D01*
X123302504Y-86441388D01*
X123370625Y-86461390D01*
X123391599Y-86478293D01*
X123416505Y-86503199D01*
X123450531Y-86565511D01*
X123447512Y-86630392D01*
X123412697Y-86740142D01*
X123390738Y-86935907D01*
X123407222Y-87132209D01*
X123408920Y-87138129D01*
X123454689Y-87297743D01*
X123461521Y-87321570D01*
X123551566Y-87496779D01*
X123555389Y-87501603D01*
X123555392Y-87501607D01*
X123658922Y-87632228D01*
X123673927Y-87651160D01*
X123823945Y-87778835D01*
X123829323Y-87781841D01*
X123829325Y-87781842D01*
X123862304Y-87800273D01*
X123995904Y-87874940D01*
X124183255Y-87935814D01*
X124378862Y-87959139D01*
X124384997Y-87958667D01*
X124384999Y-87958667D01*
X124444801Y-87954065D01*
X124575274Y-87944026D01*
X124724853Y-87902262D01*
X124795841Y-87903207D01*
X124847831Y-87934525D01*
X124983595Y-88070289D01*
X125017621Y-88132601D01*
X125020500Y-88159384D01*
X125020500Y-101440616D01*
X125000498Y-101508737D01*
X124983595Y-101529711D01*
X124654411Y-101858895D01*
X124592099Y-101892921D01*
X124564658Y-101895798D01*
X124424221Y-101895062D01*
X124416841Y-101896834D01*
X124416839Y-101896834D01*
X124277563Y-101930271D01*
X124277560Y-101930272D01*
X124270184Y-101932043D01*
X124129414Y-102004700D01*
X124010039Y-102108838D01*
X123918950Y-102238444D01*
X123861406Y-102386037D01*
X123860414Y-102393570D01*
X123860414Y-102393571D01*
X123842504Y-102529614D01*
X123840729Y-102543096D01*
X123858113Y-102700553D01*
X123860723Y-102707684D01*
X123860723Y-102707686D01*
X123909554Y-102841123D01*
X123912553Y-102849319D01*
X123916789Y-102855622D01*
X123916789Y-102855623D01*
X123946140Y-102899301D01*
X124000908Y-102980805D01*
X124006527Y-102985918D01*
X124006528Y-102985919D01*
X124112460Y-103082309D01*
X124118076Y-103087419D01*
X124257293Y-103163008D01*
X124410522Y-103203207D01*
X124494477Y-103204526D01*
X124561319Y-103205576D01*
X124561322Y-103205576D01*
X124568916Y-103205695D01*
X124723332Y-103170329D01*
X124793742Y-103134917D01*
X124858072Y-103102563D01*
X124858075Y-103102561D01*
X124864855Y-103099151D01*
X124870626Y-103094222D01*
X124870629Y-103094220D01*
X124979536Y-103001204D01*
X124979536Y-103001203D01*
X124985314Y-102996269D01*
X125077755Y-102867624D01*
X125136842Y-102720641D01*
X125159162Y-102563807D01*
X125159307Y-102550000D01*
X125153437Y-102501496D01*
X125165109Y-102431468D01*
X125189429Y-102397265D01*
X125260405Y-102326289D01*
X125322717Y-102292263D01*
X125393532Y-102297328D01*
X125450368Y-102339875D01*
X125475179Y-102406395D01*
X125475500Y-102415384D01*
X125475500Y-108759500D01*
X125455498Y-108827621D01*
X125401842Y-108874114D01*
X125349500Y-108885500D01*
X121033086Y-108885500D01*
X120964965Y-108865498D01*
X120918472Y-108811842D01*
X120908368Y-108741568D01*
X120937862Y-108676988D01*
X120984869Y-108643091D01*
X120987129Y-108642155D01*
X120999301Y-108639734D01*
X121009618Y-108632841D01*
X121009619Y-108632840D01*
X121073168Y-108590377D01*
X121083484Y-108583484D01*
X121139734Y-108499301D01*
X121154500Y-108425067D01*
X121154499Y-104774934D01*
X121139734Y-104700699D01*
X121117168Y-104666926D01*
X121090377Y-104626832D01*
X121083484Y-104616516D01*
X121044176Y-104590251D01*
X120998648Y-104535774D01*
X120989801Y-104465331D01*
X121020442Y-104401287D01*
X121080844Y-104363975D01*
X121114178Y-104359486D01*
X121550000Y-104359486D01*
X121649301Y-104339734D01*
X121733484Y-104283484D01*
X121789734Y-104199301D01*
X121809486Y-104100000D01*
X121809486Y-103100000D01*
X121804447Y-103049111D01*
X121784747Y-103001691D01*
X121777085Y-102931110D01*
X121783808Y-102908170D01*
X121789734Y-102899301D01*
X121799470Y-102850357D01*
X121808279Y-102806068D01*
X121809486Y-102800000D01*
X121809486Y-102529614D01*
X121829488Y-102461493D01*
X121883144Y-102415000D01*
X121937464Y-102403630D01*
X121985758Y-102404389D01*
X122061319Y-102405576D01*
X122061322Y-102405576D01*
X122068916Y-102405695D01*
X122223332Y-102370329D01*
X122310897Y-102326289D01*
X122358072Y-102302563D01*
X122358075Y-102302561D01*
X122364855Y-102299151D01*
X122370626Y-102294222D01*
X122370629Y-102294220D01*
X122479536Y-102201204D01*
X122479536Y-102201203D01*
X122485314Y-102196269D01*
X122577755Y-102067624D01*
X122636842Y-101920641D01*
X122648305Y-101840095D01*
X122658581Y-101767891D01*
X122658581Y-101767888D01*
X122659162Y-101763807D01*
X122659307Y-101750000D01*
X122640276Y-101592733D01*
X122584280Y-101444546D01*
X122553852Y-101400273D01*
X122498855Y-101320251D01*
X122498854Y-101320249D01*
X122494553Y-101313992D01*
X122376275Y-101208611D01*
X122236274Y-101134484D01*
X122082633Y-101095892D01*
X122075034Y-101095852D01*
X122075033Y-101095852D01*
X122034037Y-101095637D01*
X121934825Y-101095118D01*
X121866811Y-101074760D01*
X121820600Y-101020861D01*
X121809486Y-100969120D01*
X121809486Y-100920875D01*
X121829488Y-100852754D01*
X121883144Y-100806261D01*
X121953418Y-100796157D01*
X121967459Y-100798999D01*
X122001002Y-100807799D01*
X122001006Y-100807800D01*
X122008353Y-100809727D01*
X122092308Y-100811046D01*
X122159150Y-100812096D01*
X122159153Y-100812096D01*
X122166747Y-100812215D01*
X122321163Y-100776849D01*
X122424471Y-100724891D01*
X122455903Y-100709083D01*
X122455906Y-100709081D01*
X122462686Y-100705671D01*
X122468457Y-100700742D01*
X122468460Y-100700740D01*
X122577367Y-100607724D01*
X122577367Y-100607723D01*
X122583145Y-100602789D01*
X122675586Y-100474144D01*
X122734673Y-100327161D01*
X122756993Y-100170327D01*
X122757138Y-100156520D01*
X122738107Y-99999253D01*
X122689524Y-99870684D01*
X122684156Y-99799891D01*
X122717913Y-99737434D01*
X122779260Y-99703326D01*
X122915929Y-99672025D01*
X122915933Y-99672024D01*
X122923332Y-99670329D01*
X123006121Y-99628691D01*
X123058072Y-99602563D01*
X123058075Y-99602561D01*
X123064855Y-99599151D01*
X123070626Y-99594222D01*
X123070629Y-99594220D01*
X123179536Y-99501204D01*
X123179536Y-99501203D01*
X123185314Y-99496269D01*
X123277755Y-99367624D01*
X123336842Y-99220641D01*
X123359162Y-99063807D01*
X123359307Y-99050000D01*
X123340276Y-98892733D01*
X123284280Y-98744546D01*
X123194553Y-98613992D01*
X123076275Y-98508611D01*
X122936274Y-98434484D01*
X122928911Y-98432635D01*
X122928907Y-98432633D01*
X122785332Y-98396570D01*
X122726932Y-98363461D01*
X122706677Y-98343206D01*
X122699136Y-98333768D01*
X122698756Y-98334091D01*
X122692938Y-98327255D01*
X122688147Y-98319661D01*
X122648140Y-98284328D01*
X122642454Y-98278983D01*
X122631120Y-98267649D01*
X122622845Y-98261447D01*
X122615000Y-98255060D01*
X122586557Y-98229940D01*
X122579830Y-98223999D01*
X122571708Y-98220186D01*
X122568907Y-98218346D01*
X122554912Y-98209937D01*
X122551949Y-98208315D01*
X122544764Y-98202930D01*
X122536354Y-98199777D01*
X122536352Y-98199776D01*
X122500818Y-98186454D01*
X122491502Y-98182529D01*
X122449018Y-98162583D01*
X122440144Y-98161201D01*
X122436917Y-98160215D01*
X122421134Y-98156075D01*
X122417856Y-98155354D01*
X122409448Y-98152202D01*
X122395691Y-98151180D01*
X122362643Y-98148724D01*
X122352596Y-98147570D01*
X122344114Y-98146249D01*
X122344111Y-98146249D01*
X122339303Y-98145500D01*
X122323938Y-98145500D01*
X122314601Y-98145154D01*
X122298519Y-98143959D01*
X122265333Y-98141493D01*
X122256558Y-98143366D01*
X122247862Y-98143959D01*
X122233262Y-98145500D01*
X110208630Y-98145500D01*
X110196622Y-98144158D01*
X110196582Y-98144654D01*
X110187631Y-98143934D01*
X110178877Y-98141953D01*
X110148430Y-98143842D01*
X110125607Y-98145258D01*
X110117805Y-98145500D01*
X110101774Y-98145500D01*
X110091541Y-98146965D01*
X110081489Y-98147995D01*
X110052085Y-98149820D01*
X110043601Y-98150346D01*
X110043600Y-98150346D01*
X110034642Y-98150902D01*
X110026199Y-98153950D01*
X110022920Y-98154629D01*
X110007055Y-98158584D01*
X110003831Y-98159527D01*
X109994948Y-98160799D01*
X109986779Y-98164513D01*
X109986773Y-98164515D01*
X109952221Y-98180225D01*
X109942853Y-98184039D01*
X109898716Y-98199972D01*
X109891466Y-98205269D01*
X109888499Y-98206846D01*
X109874386Y-98215093D01*
X109871563Y-98216898D01*
X109863395Y-98220612D01*
X109856598Y-98226469D01*
X109856596Y-98226470D01*
X109827847Y-98251243D01*
X109819936Y-98257525D01*
X109809056Y-98265473D01*
X109798194Y-98276335D01*
X109791348Y-98282693D01*
X109753918Y-98314944D01*
X109749034Y-98322479D01*
X109743301Y-98329051D01*
X109734074Y-98340455D01*
X109573044Y-98501485D01*
X109513363Y-98534909D01*
X109480688Y-98542753D01*
X109378563Y-98567271D01*
X109378560Y-98567272D01*
X109371184Y-98569043D01*
X109230414Y-98641700D01*
X109111039Y-98745838D01*
X109019950Y-98875444D01*
X108962406Y-99023037D01*
X108961414Y-99030570D01*
X108961414Y-99030571D01*
X108945099Y-99154500D01*
X108941729Y-99180096D01*
X108959113Y-99337553D01*
X108961723Y-99344684D01*
X108961723Y-99344686D01*
X108972377Y-99373798D01*
X109013553Y-99486319D01*
X109017789Y-99492622D01*
X109017789Y-99492623D01*
X109086060Y-99594220D01*
X109101908Y-99617805D01*
X109107527Y-99622918D01*
X109107528Y-99622919D01*
X109195764Y-99703207D01*
X109219076Y-99724419D01*
X109358293Y-99800008D01*
X109511522Y-99840207D01*
X109595477Y-99841526D01*
X109662319Y-99842576D01*
X109662322Y-99842576D01*
X109669916Y-99842695D01*
X109824332Y-99807329D01*
X109894742Y-99771917D01*
X109959072Y-99739563D01*
X109959075Y-99739561D01*
X109965855Y-99736151D01*
X110057684Y-99657722D01*
X110122473Y-99628691D01*
X110192673Y-99639296D01*
X110245995Y-99686170D01*
X110265514Y-99753533D01*
X110265514Y-100100000D01*
X110270553Y-100150889D01*
X110274123Y-100159482D01*
X110290253Y-100198308D01*
X110297915Y-100268890D01*
X110291192Y-100291830D01*
X110285266Y-100300699D01*
X110265514Y-100400000D01*
X110265514Y-102800000D01*
X110270447Y-102850357D01*
X110290352Y-102898554D01*
X110297868Y-102969150D01*
X110291199Y-102991820D01*
X110285266Y-103000699D01*
X110265514Y-103100000D01*
X110265514Y-103106188D01*
X110265449Y-103106848D01*
X110238868Y-103172681D01*
X110180914Y-103213692D01*
X110140056Y-103220500D01*
X107459384Y-103220500D01*
X107391263Y-103200498D01*
X107370289Y-103183595D01*
X106866405Y-102679711D01*
X106832379Y-102617399D01*
X106829500Y-102590616D01*
X106829500Y-95354617D01*
X106849502Y-95286496D01*
X106903158Y-95240003D01*
X106973432Y-95229899D01*
X107040299Y-95261424D01*
X107060076Y-95279419D01*
X107199293Y-95355008D01*
X107352522Y-95395207D01*
X107449138Y-95396725D01*
X107510772Y-95397693D01*
X107578570Y-95418762D01*
X107597888Y-95434582D01*
X107770522Y-95607216D01*
X107785664Y-95625964D01*
X107786779Y-95627189D01*
X107792429Y-95635940D01*
X107800607Y-95642387D01*
X107800609Y-95642389D01*
X107818800Y-95656729D01*
X107823241Y-95660675D01*
X107823303Y-95660602D01*
X107827267Y-95663961D01*
X107830944Y-95667638D01*
X107846692Y-95678892D01*
X107851362Y-95682398D01*
X107891647Y-95714156D01*
X107900281Y-95717188D01*
X107907734Y-95722514D01*
X107956850Y-95737203D01*
X107962492Y-95739036D01*
X108003367Y-95753390D01*
X108010851Y-95756018D01*
X108016416Y-95756500D01*
X108019124Y-95756500D01*
X108021758Y-95756614D01*
X108021856Y-95756643D01*
X108021849Y-95756807D01*
X108022553Y-95756851D01*
X108028778Y-95758713D01*
X108082635Y-95756597D01*
X108087582Y-95756500D01*
X108493141Y-95756500D01*
X108561262Y-95776502D01*
X108588522Y-95800169D01*
X108589672Y-95801501D01*
X108593908Y-95807805D01*
X108711076Y-95914419D01*
X108850293Y-95990008D01*
X109003522Y-96030207D01*
X109087477Y-96031526D01*
X109154319Y-96032576D01*
X109154322Y-96032576D01*
X109161916Y-96032695D01*
X109316332Y-95997329D01*
X109386742Y-95961917D01*
X109451072Y-95929563D01*
X109451075Y-95929561D01*
X109457855Y-95926151D01*
X109463626Y-95921222D01*
X109463629Y-95921220D01*
X109572536Y-95828204D01*
X109572536Y-95828203D01*
X109578314Y-95823269D01*
X109670755Y-95694624D01*
X109729842Y-95547641D01*
X109752162Y-95390807D01*
X109752307Y-95377000D01*
X109733276Y-95219733D01*
X109689808Y-95104699D01*
X109684440Y-95033908D01*
X109718197Y-94971451D01*
X109779544Y-94937343D01*
X109846427Y-94922025D01*
X109846431Y-94922024D01*
X109853830Y-94920329D01*
X109924240Y-94884917D01*
X109988570Y-94852563D01*
X109988573Y-94852561D01*
X109995353Y-94849151D01*
X110001124Y-94844222D01*
X110001127Y-94844220D01*
X110110034Y-94751204D01*
X110110034Y-94751203D01*
X110115812Y-94746269D01*
X110208253Y-94617624D01*
X110267340Y-94470641D01*
X110289660Y-94313807D01*
X110289754Y-94304893D01*
X110310474Y-94236987D01*
X110364617Y-94191063D01*
X110440328Y-94182644D01*
X110481734Y-94190880D01*
X110525000Y-94199486D01*
X112025000Y-94199486D01*
X112037897Y-94196921D01*
X112062476Y-94194500D01*
X113662524Y-94194500D01*
X113687103Y-94196921D01*
X113700000Y-94199486D01*
X115200000Y-94199486D01*
X115212897Y-94196921D01*
X115237476Y-94194500D01*
X116837524Y-94194500D01*
X116862103Y-94196921D01*
X116875000Y-94199486D01*
X118375000Y-94199486D01*
X118387897Y-94196921D01*
X118412476Y-94194500D01*
X120012524Y-94194500D01*
X120037103Y-94196921D01*
X120050000Y-94199486D01*
X121550000Y-94199486D01*
X121649301Y-94179734D01*
X121733484Y-94123484D01*
X121789734Y-94039301D01*
X121809486Y-93940000D01*
X121809486Y-92940000D01*
X121804447Y-92889111D01*
X121784747Y-92841691D01*
X121777085Y-92771110D01*
X121783808Y-92748170D01*
X121789734Y-92739301D01*
X121799470Y-92690357D01*
X121808279Y-92646068D01*
X121809486Y-92640000D01*
X121809486Y-90240000D01*
X121804553Y-90189643D01*
X121784648Y-90141446D01*
X121777132Y-90070850D01*
X121783801Y-90048180D01*
X121789734Y-90039301D01*
X121809486Y-89940000D01*
X121809486Y-88940000D01*
X121789734Y-88840699D01*
X121733484Y-88756516D01*
X121649301Y-88700266D01*
X121550000Y-88680514D01*
X121444044Y-88680514D01*
X121375923Y-88660512D01*
X121329430Y-88606856D01*
X121319326Y-88536582D01*
X121348820Y-88472002D01*
X121362214Y-88458703D01*
X121429532Y-88401208D01*
X121429535Y-88401205D01*
X121435314Y-88396269D01*
X121527755Y-88267624D01*
X121586842Y-88120641D01*
X121609162Y-87963807D01*
X121609307Y-87950000D01*
X121590276Y-87792733D01*
X121534280Y-87644546D01*
X121444553Y-87513992D01*
X121326275Y-87408611D01*
X121318889Y-87404700D01*
X121192988Y-87338039D01*
X121192989Y-87338039D01*
X121186274Y-87334484D01*
X121032633Y-87295892D01*
X121025034Y-87295852D01*
X121025033Y-87295852D01*
X120959181Y-87295507D01*
X120874221Y-87295062D01*
X120866841Y-87296834D01*
X120866839Y-87296834D01*
X120727563Y-87330271D01*
X120727560Y-87330272D01*
X120720184Y-87332043D01*
X120579414Y-87404700D01*
X120460039Y-87508838D01*
X120368950Y-87638444D01*
X120363802Y-87651649D01*
X120315771Y-87774842D01*
X120311406Y-87786037D01*
X120310414Y-87793570D01*
X120310414Y-87793571D01*
X120296105Y-87902262D01*
X120290729Y-87943096D01*
X120299421Y-88021824D01*
X120304772Y-88070289D01*
X120308113Y-88100553D01*
X120362553Y-88249319D01*
X120366790Y-88255625D01*
X120366792Y-88255628D01*
X120399081Y-88303678D01*
X120420500Y-88373954D01*
X120420500Y-88554514D01*
X120400498Y-88622635D01*
X120346842Y-88669128D01*
X120294500Y-88680514D01*
X120050000Y-88680514D01*
X120037103Y-88683079D01*
X120012524Y-88685500D01*
X118412476Y-88685500D01*
X118387897Y-88683079D01*
X118375000Y-88680514D01*
X116875000Y-88680514D01*
X116862103Y-88683079D01*
X116837524Y-88685500D01*
X115237476Y-88685500D01*
X115212897Y-88683079D01*
X115200000Y-88680514D01*
X113700000Y-88680514D01*
X113687103Y-88683079D01*
X113662524Y-88685500D01*
X112062476Y-88685500D01*
X112037897Y-88683079D01*
X112025000Y-88680514D01*
X110525000Y-88680514D01*
X110425699Y-88700266D01*
X110341516Y-88756516D01*
X110285266Y-88840699D01*
X110265514Y-88940000D01*
X110265514Y-89384780D01*
X110245512Y-89452901D01*
X110191856Y-89499394D01*
X110121582Y-89509498D01*
X110080555Y-89496134D01*
X109976350Y-89440960D01*
X109822709Y-89402368D01*
X109815110Y-89402328D01*
X109815109Y-89402328D01*
X109749257Y-89401983D01*
X109664297Y-89401538D01*
X109656917Y-89403310D01*
X109656915Y-89403310D01*
X109517639Y-89436747D01*
X109517636Y-89436748D01*
X109510260Y-89438519D01*
X109369490Y-89511176D01*
X109250115Y-89615314D01*
X109245748Y-89621527D01*
X109245743Y-89621533D01*
X109244412Y-89623427D01*
X109243089Y-89624481D01*
X109240665Y-89627173D01*
X109240216Y-89626769D01*
X109188878Y-89667659D01*
X109141326Y-89676976D01*
X108797444Y-89676976D01*
X108773496Y-89674427D01*
X108771831Y-89674348D01*
X108761648Y-89672156D01*
X108751307Y-89673380D01*
X108728301Y-89676103D01*
X108722370Y-89676453D01*
X108722378Y-89676548D01*
X108717200Y-89676976D01*
X108712000Y-89676976D01*
X108706871Y-89677830D01*
X108706868Y-89677830D01*
X108692959Y-89680145D01*
X108687081Y-89680982D01*
X108646523Y-89685782D01*
X108646522Y-89685782D01*
X108636183Y-89687006D01*
X108627931Y-89690969D01*
X108618898Y-89692472D01*
X108573751Y-89716832D01*
X108568487Y-89719513D01*
X108522292Y-89741696D01*
X108518016Y-89745290D01*
X108516076Y-89747230D01*
X108514165Y-89748983D01*
X108514075Y-89749032D01*
X108513963Y-89748909D01*
X108513428Y-89749381D01*
X108507710Y-89752466D01*
X108500643Y-89760111D01*
X108471108Y-89792062D01*
X108467678Y-89795628D01*
X107219784Y-91043522D01*
X107201036Y-91058664D01*
X107199811Y-91059779D01*
X107191060Y-91065429D01*
X107184613Y-91073607D01*
X107184611Y-91073609D01*
X107170271Y-91091800D01*
X107166325Y-91096241D01*
X107166398Y-91096303D01*
X107163039Y-91100267D01*
X107159362Y-91103944D01*
X107148108Y-91119692D01*
X107144602Y-91124362D01*
X107112844Y-91164647D01*
X107109812Y-91173281D01*
X107104486Y-91180734D01*
X107094818Y-91213063D01*
X107089799Y-91229844D01*
X107087964Y-91235492D01*
X107074382Y-91274167D01*
X107032939Y-91331812D01*
X106966909Y-91357900D01*
X106897257Y-91344149D01*
X106846097Y-91294923D01*
X106829500Y-91232418D01*
X106829500Y-81273096D01*
X109280231Y-81273096D01*
X109297615Y-81430553D01*
X109352055Y-81579319D01*
X109356291Y-81585622D01*
X109356291Y-81585623D01*
X109424570Y-81687232D01*
X109440410Y-81710805D01*
X109557578Y-81817419D01*
X109696795Y-81893008D01*
X109850024Y-81933207D01*
X109933979Y-81934526D01*
X110000821Y-81935576D01*
X110000824Y-81935576D01*
X110008418Y-81935695D01*
X110015822Y-81933999D01*
X110015824Y-81933999D01*
X110111385Y-81912113D01*
X110182252Y-81916402D01*
X110239550Y-81958325D01*
X110265087Y-82024569D01*
X110265514Y-82034933D01*
X110265514Y-82480000D01*
X110270447Y-82530357D01*
X110290352Y-82578554D01*
X110297868Y-82649150D01*
X110291199Y-82671820D01*
X110285266Y-82680699D01*
X110265514Y-82780000D01*
X110265514Y-83297324D01*
X110245512Y-83365445D01*
X110222344Y-83392273D01*
X110190050Y-83420445D01*
X110098961Y-83550051D01*
X110041417Y-83697644D01*
X110040425Y-83705177D01*
X110040425Y-83705178D01*
X110030575Y-83780000D01*
X110020740Y-83854703D01*
X110038124Y-84012160D01*
X110040734Y-84019291D01*
X110040734Y-84019293D01*
X110048124Y-84039486D01*
X110092564Y-84160926D01*
X110180919Y-84292412D01*
X110186538Y-84297525D01*
X110186539Y-84297526D01*
X110197914Y-84307876D01*
X110298087Y-84399026D01*
X110437304Y-84474615D01*
X110590533Y-84514814D01*
X110674488Y-84516133D01*
X110741330Y-84517183D01*
X110741333Y-84517183D01*
X110748927Y-84517302D01*
X110903343Y-84481936D01*
X110973753Y-84446524D01*
X111038083Y-84414170D01*
X111038086Y-84414168D01*
X111044866Y-84410758D01*
X111050637Y-84405829D01*
X111050640Y-84405827D01*
X111159547Y-84312811D01*
X111159547Y-84312810D01*
X111165325Y-84307876D01*
X111257766Y-84179231D01*
X111282184Y-84118489D01*
X111326151Y-84062745D01*
X111399091Y-84039486D01*
X112025000Y-84039486D01*
X112037897Y-84036921D01*
X112062476Y-84034500D01*
X113662524Y-84034500D01*
X113687103Y-84036921D01*
X113700000Y-84039486D01*
X115200000Y-84039486D01*
X115212897Y-84036921D01*
X115237476Y-84034500D01*
X116837524Y-84034500D01*
X116862103Y-84036921D01*
X116875000Y-84039486D01*
X118375000Y-84039486D01*
X118387897Y-84036921D01*
X118412476Y-84034500D01*
X120012524Y-84034500D01*
X120037103Y-84036921D01*
X120050000Y-84039486D01*
X121550000Y-84039486D01*
X121649301Y-84019734D01*
X121733484Y-83963484D01*
X121789734Y-83879301D01*
X121809486Y-83780000D01*
X121809486Y-82780000D01*
X121804447Y-82729111D01*
X121784747Y-82681691D01*
X121777085Y-82611110D01*
X121783808Y-82588170D01*
X121789734Y-82579301D01*
X121799470Y-82530357D01*
X121808279Y-82486068D01*
X121809486Y-82480000D01*
X121809486Y-80080000D01*
X121804553Y-80029643D01*
X121765905Y-79936063D01*
X121694388Y-79864396D01*
X121600889Y-79825553D01*
X121588479Y-79825540D01*
X121543858Y-79825493D01*
X121499643Y-79825447D01*
X121406063Y-79864095D01*
X121400912Y-79867529D01*
X121400910Y-79867530D01*
X120869892Y-80221542D01*
X120802117Y-80242686D01*
X120730108Y-80221542D01*
X120196502Y-79865805D01*
X120193937Y-79864095D01*
X120162217Y-79847161D01*
X120157484Y-79844634D01*
X120157481Y-79844633D01*
X120149301Y-79840266D01*
X120140203Y-79838456D01*
X120140202Y-79838456D01*
X120075333Y-79825553D01*
X120050000Y-79820514D01*
X119950699Y-79840266D01*
X119866516Y-79896516D01*
X119810266Y-79980699D01*
X119790514Y-80080000D01*
X119790514Y-80549015D01*
X119770512Y-80617136D01*
X119716856Y-80663629D01*
X119646582Y-80673733D01*
X119621321Y-80667156D01*
X119616274Y-80664484D01*
X119559324Y-80650179D01*
X119470002Y-80627743D01*
X119462633Y-80625892D01*
X119455034Y-80625852D01*
X119455033Y-80625852D01*
X119389181Y-80625507D01*
X119304221Y-80625062D01*
X119296841Y-80626834D01*
X119296839Y-80626834D01*
X119157563Y-80660271D01*
X119157560Y-80660272D01*
X119150184Y-80662043D01*
X119009414Y-80734700D01*
X118890039Y-80838838D01*
X118885672Y-80845052D01*
X118863573Y-80876495D01*
X118808038Y-80920727D01*
X118737406Y-80927912D01*
X118674102Y-80895770D01*
X118638224Y-80834506D01*
X118634486Y-80804044D01*
X118634486Y-80080000D01*
X118629553Y-80029643D01*
X118590905Y-79936063D01*
X118519388Y-79864396D01*
X118425889Y-79825553D01*
X118413479Y-79825540D01*
X118368858Y-79825493D01*
X118324643Y-79825447D01*
X118231063Y-79864095D01*
X118225912Y-79867529D01*
X118225910Y-79867530D01*
X117694892Y-80221542D01*
X117627117Y-80242686D01*
X117555108Y-80221542D01*
X117021502Y-79865805D01*
X117018937Y-79864095D01*
X116987217Y-79847161D01*
X116982484Y-79844634D01*
X116982481Y-79844633D01*
X116974301Y-79840266D01*
X116965203Y-79838456D01*
X116965202Y-79838456D01*
X116900333Y-79825553D01*
X116875000Y-79820514D01*
X116775699Y-79840266D01*
X116691516Y-79896516D01*
X116635266Y-79980699D01*
X116615514Y-80080000D01*
X116615514Y-80549015D01*
X116595512Y-80617136D01*
X116541856Y-80663629D01*
X116471582Y-80673733D01*
X116446321Y-80667156D01*
X116441274Y-80664484D01*
X116384324Y-80650179D01*
X116295002Y-80627743D01*
X116287633Y-80625892D01*
X116280034Y-80625852D01*
X116280033Y-80625852D01*
X116214181Y-80625507D01*
X116129221Y-80625062D01*
X116121841Y-80626834D01*
X116121839Y-80626834D01*
X115982563Y-80660271D01*
X115982560Y-80660272D01*
X115975184Y-80662043D01*
X115834414Y-80734700D01*
X115715039Y-80838838D01*
X115710672Y-80845052D01*
X115688573Y-80876495D01*
X115633038Y-80920727D01*
X115562406Y-80927912D01*
X115499102Y-80895770D01*
X115463224Y-80834506D01*
X115459486Y-80804044D01*
X115459486Y-80080000D01*
X115454553Y-80029643D01*
X115415905Y-79936063D01*
X115344388Y-79864396D01*
X115250889Y-79825553D01*
X115238479Y-79825540D01*
X115193858Y-79825493D01*
X115149643Y-79825447D01*
X115056063Y-79864095D01*
X115050912Y-79867529D01*
X115050910Y-79867530D01*
X114519892Y-80221542D01*
X114452117Y-80242686D01*
X114380108Y-80221542D01*
X113846502Y-79865805D01*
X113843937Y-79864095D01*
X113812217Y-79847161D01*
X113807484Y-79844634D01*
X113807481Y-79844633D01*
X113799301Y-79840266D01*
X113790203Y-79838456D01*
X113790202Y-79838456D01*
X113725333Y-79825553D01*
X113700000Y-79820514D01*
X113600699Y-79840266D01*
X113516516Y-79896516D01*
X113460266Y-79980699D01*
X113440514Y-80080000D01*
X113440514Y-80549015D01*
X113420512Y-80617136D01*
X113366856Y-80663629D01*
X113296582Y-80673733D01*
X113271321Y-80667156D01*
X113266274Y-80664484D01*
X113209324Y-80650179D01*
X113120002Y-80627743D01*
X113112633Y-80625892D01*
X113105034Y-80625852D01*
X113105033Y-80625852D01*
X113039181Y-80625507D01*
X112954221Y-80625062D01*
X112946841Y-80626834D01*
X112946839Y-80626834D01*
X112807563Y-80660271D01*
X112807560Y-80660272D01*
X112800184Y-80662043D01*
X112659414Y-80734700D01*
X112540039Y-80838838D01*
X112535672Y-80845052D01*
X112513573Y-80876495D01*
X112458038Y-80920727D01*
X112387406Y-80927912D01*
X112324102Y-80895770D01*
X112288224Y-80834506D01*
X112284486Y-80804044D01*
X112284486Y-80080000D01*
X112279553Y-80029643D01*
X112240905Y-79936063D01*
X112169388Y-79864396D01*
X112075889Y-79825553D01*
X112063479Y-79825540D01*
X112018858Y-79825493D01*
X111974643Y-79825447D01*
X111881063Y-79864095D01*
X111875912Y-79867529D01*
X111875910Y-79867530D01*
X111344892Y-80221542D01*
X111277117Y-80242686D01*
X111205108Y-80221542D01*
X110671502Y-79865805D01*
X110668937Y-79864095D01*
X110637217Y-79847161D01*
X110632484Y-79844634D01*
X110632481Y-79844633D01*
X110624301Y-79840266D01*
X110615203Y-79838456D01*
X110615202Y-79838456D01*
X110550333Y-79825553D01*
X110525000Y-79820514D01*
X110425699Y-79840266D01*
X110341516Y-79896516D01*
X110285266Y-79980699D01*
X110265514Y-80080000D01*
X110265514Y-80525461D01*
X110245512Y-80593582D01*
X110191856Y-80640075D01*
X110121582Y-80650179D01*
X110108819Y-80647665D01*
X110029506Y-80627743D01*
X110029502Y-80627743D01*
X110022135Y-80625892D01*
X110014536Y-80625852D01*
X110014535Y-80625852D01*
X109948683Y-80625507D01*
X109863723Y-80625062D01*
X109856343Y-80626834D01*
X109856341Y-80626834D01*
X109717065Y-80660271D01*
X109717062Y-80660272D01*
X109709686Y-80662043D01*
X109568916Y-80734700D01*
X109449541Y-80838838D01*
X109358452Y-80968444D01*
X109300908Y-81116037D01*
X109280231Y-81273096D01*
X106829500Y-81273096D01*
X106829500Y-78674287D01*
X106849502Y-78606166D01*
X106903158Y-78559673D01*
X106927371Y-78551467D01*
X106997715Y-78535356D01*
X107005120Y-78533660D01*
X107075530Y-78498248D01*
X107139860Y-78465894D01*
X107139863Y-78465892D01*
X107146643Y-78462482D01*
X107152414Y-78457553D01*
X107152417Y-78457551D01*
X107261324Y-78364535D01*
X107261324Y-78364534D01*
X107267102Y-78359600D01*
X107359543Y-78230955D01*
X107418630Y-78083972D01*
X107440950Y-77927138D01*
X107441095Y-77913331D01*
X107435263Y-77865137D01*
X107446936Y-77795107D01*
X107494618Y-77742505D01*
X107560350Y-77724000D01*
X125349500Y-77724000D01*
X125417621Y-77744002D01*
G37*
G04 #@! TD.AperFunction*
G04 #@! TD*
M02*
