%TF.GenerationSoftware,KiCad,Pcbnew,6.0.5-a6ca702e91~116~ubuntu20.04.1*%
%TF.CreationDate,2022-06-07T16:18:29-07:00*%
%TF.ProjectId,esp8266-dongle,65737038-3236-4362-9d64-6f6e676c652e,rev?*%
%TF.SameCoordinates,Original*%
%TF.FileFunction,Copper,L1,Top*%
%TF.FilePolarity,Positive*%
%FSLAX46Y46*%
G04 Gerber Fmt 4.6, Leading zero omitted, Abs format (unit mm)*
G04 Created by KiCad (PCBNEW 6.0.5-a6ca702e91~116~ubuntu20.04.1) date 2022-06-07 16:18:29*
%MOMM*%
%LPD*%
G01*
G04 APERTURE LIST*
G04 Aperture macros list*
%AMRoundRect*
0 Rectangle with rounded corners*
0 $1 Rounding radius*
0 $2 $3 $4 $5 $6 $7 $8 $9 X,Y pos of 4 corners*
0 Add a 4 corners polygon primitive as box body*
4,1,4,$2,$3,$4,$5,$6,$7,$8,$9,$2,$3,0*
0 Add four circle primitives for the rounded corners*
1,1,$1+$1,$2,$3*
1,1,$1+$1,$4,$5*
1,1,$1+$1,$6,$7*
1,1,$1+$1,$8,$9*
0 Add four rect primitives between the rounded corners*
20,1,$1+$1,$2,$3,$4,$5,0*
20,1,$1+$1,$4,$5,$6,$7,0*
20,1,$1+$1,$6,$7,$8,$9,0*
20,1,$1+$1,$8,$9,$2,$3,0*%
G04 Aperture macros list end*
%TA.AperFunction,SMDPad,CuDef*%
%ADD10RoundRect,0.135000X0.185000X-0.135000X0.185000X0.135000X-0.185000X0.135000X-0.185000X-0.135000X0*%
%TD*%
%TA.AperFunction,SMDPad,CuDef*%
%ADD11RoundRect,0.135000X-0.185000X0.135000X-0.185000X-0.135000X0.185000X-0.135000X0.185000X0.135000X0*%
%TD*%
%TA.AperFunction,SMDPad,CuDef*%
%ADD12RoundRect,0.135000X-0.135000X-0.185000X0.135000X-0.185000X0.135000X0.185000X-0.135000X0.185000X0*%
%TD*%
%TA.AperFunction,SMDPad,CuDef*%
%ADD13R,2.500000X1.100000*%
%TD*%
%TA.AperFunction,SMDPad,CuDef*%
%ADD14R,1.100000X2.500000*%
%TD*%
%TA.AperFunction,ComponentPad*%
%ADD15R,1.800000X3.600000*%
%TD*%
%TA.AperFunction,ComponentPad*%
%ADD16O,1.800000X3.600000*%
%TD*%
%TA.AperFunction,SMDPad,CuDef*%
%ADD17RoundRect,0.140000X-0.170000X0.140000X-0.170000X-0.140000X0.170000X-0.140000X0.170000X0.140000X0*%
%TD*%
%TA.AperFunction,SMDPad,CuDef*%
%ADD18RoundRect,0.135000X0.135000X0.185000X-0.135000X0.185000X-0.135000X-0.185000X0.135000X-0.185000X0*%
%TD*%
%TA.AperFunction,ViaPad*%
%ADD19C,0.800000*%
%TD*%
%TA.AperFunction,Conductor*%
%ADD20C,0.500000*%
%TD*%
%TA.AperFunction,Conductor*%
%ADD21C,0.250000*%
%TD*%
%TA.AperFunction,Conductor*%
%ADD22C,1.000000*%
%TD*%
G04 APERTURE END LIST*
D10*
%TO.P,R2,1*%
%TO.N,+3V3*%
X122555000Y-98300000D03*
%TO.P,R2,2*%
%TO.N,/GPIO2*%
X122555000Y-97280000D03*
%TD*%
D11*
%TO.P,R1,1*%
%TO.N,/GPIO15*%
X123825000Y-97280000D03*
%TO.P,R1,2*%
%TO.N,GND*%
X123825000Y-98300000D03*
%TD*%
D12*
%TO.P,R4,1*%
%TO.N,/ROUTER_RX*%
X117600000Y-97790000D03*
%TO.P,R4,2*%
%TO.N,/GPIO15*%
X118620000Y-97790000D03*
%TD*%
D13*
%TO.P,U1,1,REST*%
%TO.N,/RESET*%
X108090000Y-79060000D03*
%TO.P,U1,2,ADC*%
%TO.N,/ADC*%
X108090000Y-81060000D03*
%TO.P,U1,3,CH_PD*%
%TO.N,/CH_PD*%
X108090000Y-83060000D03*
%TO.P,U1,4,GPIO16*%
%TO.N,/GPIO16*%
X108090000Y-85060000D03*
%TO.P,U1,5,GPIO14*%
%TO.N,/GPIO14*%
X108090000Y-87060000D03*
%TO.P,U1,6,GPIO12*%
%TO.N,/GPIO12*%
X108090000Y-89060000D03*
%TO.P,U1,7,GPIO13*%
%TO.N,/GPIO13*%
X108090000Y-91060000D03*
%TO.P,U1,8,VCC*%
%TO.N,+3V3*%
X108090000Y-93060000D03*
%TO.P,U1,9,GND*%
%TO.N,GND*%
X123490000Y-93060000D03*
%TO.P,U1,10,GPIO15*%
%TO.N,/GPIO15*%
X123490000Y-91060000D03*
%TO.P,U1,11,GPIO2*%
%TO.N,/GPIO2*%
X123490000Y-89060000D03*
%TO.P,U1,12,GPIO0*%
%TO.N,/GPIO0*%
X123490000Y-87060000D03*
%TO.P,U1,13,GPIO4*%
%TO.N,/GPIO4*%
X123490000Y-85060000D03*
%TO.P,U1,14,GPIO5*%
%TO.N,/GPIO5*%
X123490000Y-83060000D03*
%TO.P,U1,15,RXD*%
%TO.N,/RXD*%
X123490000Y-81060000D03*
%TO.P,U1,16,TXD*%
%TO.N,/TXD*%
X123490000Y-79060000D03*
D14*
%TO.P,U1,17,CS0*%
%TO.N,unconnected-(U1-Pad17)*%
X110780000Y-94760000D03*
%TO.P,U1,18,MISO*%
%TO.N,unconnected-(U1-Pad18)*%
X112780000Y-94760000D03*
%TO.P,U1,19,GPIO9*%
%TO.N,/GPIO9*%
X114780000Y-94760000D03*
%TO.P,U1,20,GPIO10*%
%TO.N,/GPIO10*%
X116780000Y-94760000D03*
%TO.P,U1,21,MOSI*%
%TO.N,unconnected-(U1-Pad21)*%
X118780000Y-94760000D03*
%TO.P,U1,22,SCLK*%
%TO.N,unconnected-(U1-Pad22)*%
X120780000Y-94760000D03*
%TD*%
D15*
%TO.P,J1,1,Pin_1*%
%TO.N,/PIN1*%
X120005000Y-101970000D03*
D16*
%TO.P,J1,2,Pin_2*%
%TO.N,/PIN2*%
X117465000Y-101970000D03*
%TO.P,J1,3,Pin_3*%
%TO.N,/PIN3*%
X114925000Y-101970000D03*
%TO.P,J1,4,Pin_4*%
%TO.N,/PIN4*%
X112385000Y-101970000D03*
%TD*%
D17*
%TO.P,C1,1*%
%TO.N,+3V3*%
X107215000Y-96195000D03*
%TO.P,C1,2*%
%TO.N,GND*%
X107215000Y-97155000D03*
%TD*%
D10*
%TO.P,R5,1*%
%TO.N,+3V3*%
X111125000Y-98300000D03*
%TO.P,R5,2*%
%TO.N,/CH_PD*%
X111125000Y-97280000D03*
%TD*%
D17*
%TO.P,C2,1*%
%TO.N,+3V3*%
X108485000Y-96195000D03*
%TO.P,C2,2*%
%TO.N,GND*%
X108485000Y-97155000D03*
%TD*%
D18*
%TO.P,R3,1*%
%TO.N,/ROUTER_TX*%
X116080000Y-97790000D03*
%TO.P,R3,2*%
%TO.N,/GPIO13*%
X115060000Y-97790000D03*
%TD*%
D10*
%TO.P,R6,1*%
%TO.N,+3V3*%
X109855000Y-98300000D03*
%TO.P,R6,2*%
%TO.N,/RESET*%
X109855000Y-97280000D03*
%TD*%
D19*
%TO.N,+3V3*%
X122047000Y-99187000D03*
X110680011Y-83861607D03*
X109601000Y-99187000D03*
%TO.N,GND*%
X124206000Y-94361000D03*
X123825000Y-99060000D03*
X122682000Y-94234000D03*
X108028827Y-97589031D03*
%TO.N,/PIN1*%
X119779511Y-91675489D03*
X119380000Y-81280000D03*
%TO.N,/PIN2*%
X116205000Y-81280000D03*
X116205000Y-91440000D03*
%TO.N,/PIN3*%
X113030000Y-81280000D03*
X113030000Y-90805000D03*
%TO.N,/PIN4*%
X112649000Y-92202000D03*
X109939502Y-81280000D03*
%TO.N,/ROUTER_TX*%
X115780000Y-93113891D03*
%TO.N,/ROUTER_RX*%
X118872000Y-96647000D03*
X120777000Y-88519000D03*
X121840151Y-96324878D03*
%TO.N,/GPIO15*%
X120626796Y-98843500D03*
X118721796Y-98843500D03*
%TO.N,/GPIO13*%
X114427873Y-98843500D03*
X108077000Y-91821000D03*
X106938299Y-98547701D03*
X111067980Y-99235422D03*
%TO.N,/CH_PD*%
X109630499Y-94134417D03*
X109740076Y-90056476D03*
%TO.N,/RESET*%
X107442000Y-94742000D03*
X109093000Y-95377000D03*
%TD*%
D20*
%TO.N,+3V3*%
X110818717Y-84000313D02*
X110680011Y-83861607D01*
X108291501Y-94977122D02*
X108243499Y-95025124D01*
D21*
X109855000Y-98300000D02*
X111125000Y-98300000D01*
D20*
X108790000Y-93060000D02*
X108291501Y-93558499D01*
X110818717Y-91031283D02*
X110818717Y-84000313D01*
X108243499Y-95025124D02*
X108243499Y-95266501D01*
X108243499Y-95266501D02*
X108243499Y-95953499D01*
D21*
X109210480Y-96913550D02*
X109210480Y-97655480D01*
X109210480Y-97655480D02*
X109855000Y-98300000D01*
X108491930Y-96195000D02*
X109210480Y-96913550D01*
X109601000Y-98554000D02*
X109855000Y-98300000D01*
D20*
X108291501Y-93558499D02*
X108291501Y-94977122D01*
D21*
X122555000Y-98679000D02*
X122047000Y-99187000D01*
D20*
X108243499Y-95266501D02*
X107315000Y-96195000D01*
D21*
X108485000Y-96195000D02*
X108491930Y-96195000D01*
X109601000Y-99187000D02*
X109601000Y-98554000D01*
D20*
X108243499Y-95953499D02*
X108485000Y-96195000D01*
D21*
X122555000Y-98300000D02*
X122555000Y-98679000D01*
D20*
X108790000Y-93060000D02*
X110818717Y-91031283D01*
%TO.N,GND*%
X108150969Y-97589031D02*
X108028827Y-97589031D01*
X107594796Y-97155000D02*
X108028827Y-97589031D01*
X107315000Y-97155000D02*
X107594796Y-97155000D01*
X108585000Y-97155000D02*
X108150969Y-97589031D01*
D21*
X123825000Y-98300000D02*
X123825000Y-99060000D01*
D22*
%TO.N,/PIN1*%
X119380000Y-81280000D02*
X119380000Y-91275978D01*
D20*
X119777295Y-102642295D02*
X120005000Y-102870000D01*
X119779511Y-98616779D02*
X119777295Y-98618995D01*
D22*
X119380000Y-91275978D02*
X119779511Y-91675489D01*
D20*
X119779511Y-91675489D02*
X119779511Y-98616779D01*
X119777295Y-98618995D02*
X119777295Y-102642295D01*
%TO.N,/PIN2*%
X116880480Y-97358542D02*
X117779511Y-96459511D01*
D22*
X117779511Y-92710000D02*
X117779511Y-91744511D01*
X117779511Y-91744511D02*
X117475000Y-91440000D01*
D20*
X117465000Y-102870000D02*
X116880480Y-102285480D01*
X116880480Y-102285480D02*
X116880480Y-97358542D01*
D22*
X117475000Y-91440000D02*
X116205000Y-91440000D01*
X116205000Y-81280000D02*
X116205000Y-91440000D01*
D20*
X117779511Y-96459511D02*
X117779511Y-92710000D01*
D22*
%TO.N,/PIN3*%
X113340510Y-81590510D02*
X113030000Y-81280000D01*
D20*
X113779511Y-98290485D02*
X113779511Y-91554511D01*
X113578372Y-99206439D02*
X113578372Y-98491624D01*
X113578372Y-98491624D02*
X113779511Y-98290485D01*
D22*
X113779511Y-91554511D02*
X113030000Y-90805000D01*
X113340510Y-90494490D02*
X113340510Y-81590510D01*
X113030000Y-90805000D02*
X113340510Y-90494490D01*
D20*
X114925000Y-100553067D02*
X113578372Y-99206439D01*
X114925000Y-102870000D02*
X114925000Y-100553067D01*
D22*
%TO.N,/PIN4*%
X112248489Y-91801489D02*
X112649000Y-92202000D01*
D20*
X112385000Y-97064022D02*
X111779511Y-96458533D01*
D22*
X111779511Y-83120009D02*
X110039511Y-81380009D01*
D20*
X112385000Y-102870000D02*
X112385000Y-97064022D01*
D22*
X111779511Y-91801489D02*
X112248489Y-91801489D01*
X111779511Y-91801489D02*
X111779511Y-83120009D01*
X111779511Y-92729511D02*
X111779511Y-91801489D01*
D20*
X111779511Y-96458533D02*
X111779511Y-92729511D01*
D21*
%TO.N,/ROUTER_TX*%
X116080000Y-97790000D02*
X115780000Y-97490000D01*
X115780000Y-97490000D02*
X115780000Y-93113891D01*
%TO.N,/ROUTER_RX*%
X120777000Y-92456000D02*
X121840151Y-93519151D01*
X117600000Y-97790000D02*
X118743000Y-96647000D01*
X121840151Y-96324878D02*
X121840151Y-93519151D01*
X118743000Y-96647000D02*
X118872000Y-96647000D01*
X120777000Y-92456000D02*
X120777000Y-88519000D01*
%TO.N,/GPIO15*%
X124243499Y-99911501D02*
X121694797Y-99911501D01*
X125064511Y-97185489D02*
X125514022Y-96735978D01*
X121694797Y-99911501D02*
X120626796Y-98843500D01*
X118620000Y-98741704D02*
X118721796Y-98843500D01*
X125064511Y-99090489D02*
X124243499Y-99911501D01*
X124574726Y-91060000D02*
X122790000Y-91060000D01*
X125514022Y-91999296D02*
X124574726Y-91060000D01*
X125064511Y-97185489D02*
X125064511Y-99090489D01*
X124970000Y-97280000D02*
X125064511Y-97185489D01*
X118620000Y-97790000D02*
X118620000Y-98741704D01*
X125514022Y-96735978D02*
X125514022Y-91999296D01*
X123825000Y-97280000D02*
X124970000Y-97280000D01*
%TO.N,/GPIO2*%
X125064511Y-92185489D02*
X124954022Y-92075000D01*
X121915489Y-91816489D02*
X121915489Y-89934511D01*
X122174000Y-92075000D02*
X121915489Y-91816489D01*
X122555000Y-97280000D02*
X125064511Y-94770489D01*
X121915489Y-89934511D02*
X122790000Y-89060000D01*
X124954022Y-92075000D02*
X122174000Y-92075000D01*
X125064511Y-94770489D02*
X125064511Y-92185489D01*
%TO.N,/GPIO13*%
X115060000Y-98211373D02*
X114427873Y-98843500D01*
X108077000Y-91821000D02*
X108077000Y-91773000D01*
X108302099Y-99911501D02*
X106938299Y-98547701D01*
X110577178Y-99235422D02*
X109901099Y-99911501D01*
X109901099Y-99911501D02*
X108302099Y-99911501D01*
X111067980Y-99235422D02*
X110577178Y-99235422D01*
X115060000Y-97790000D02*
X115060000Y-98211373D01*
X108077000Y-91773000D02*
X108790000Y-91060000D01*
%TO.N,/CH_PD*%
X109817501Y-94321419D02*
X109817501Y-96100797D01*
X109664511Y-83934511D02*
X109664511Y-89980911D01*
X109630499Y-94134417D02*
X109817501Y-94321419D01*
X109817501Y-96100797D02*
X110996704Y-97280000D01*
X109664511Y-89980911D02*
X109740076Y-90056476D01*
X108790000Y-83060000D02*
X109664511Y-83934511D01*
X110996704Y-97280000D02*
X111125000Y-97280000D01*
%TO.N,/RESET*%
X106515489Y-79539511D02*
X106515489Y-93815489D01*
X109855000Y-96774000D02*
X109855000Y-97280000D01*
X106515489Y-79539511D02*
X106995000Y-79060000D01*
X109119520Y-96038520D02*
X109855000Y-96774000D01*
X106515489Y-93815489D02*
X107442000Y-94742000D01*
X109119520Y-95403520D02*
X109119520Y-96038520D01*
X108790000Y-79060000D02*
X106995000Y-79060000D01*
X109093000Y-95377000D02*
X109119520Y-95403520D01*
%TD*%
%TA.AperFunction,Conductor*%
%TO.N,GND*%
G36*
X124627132Y-97679502D02*
G01*
X124673625Y-97733158D01*
X124685011Y-97785500D01*
X124685011Y-98881105D01*
X124665009Y-98949226D01*
X124648106Y-98970200D01*
X124123210Y-99495096D01*
X124060898Y-99529122D01*
X124034115Y-99532001D01*
X122800201Y-99532001D01*
X122732080Y-99511999D01*
X122685587Y-99458343D01*
X122675483Y-99388069D01*
X122679744Y-99372214D01*
X122679042Y-99372026D01*
X122681006Y-99364695D01*
X122683842Y-99357641D01*
X122696599Y-99268000D01*
X122705581Y-99204891D01*
X122705581Y-99204888D01*
X122706162Y-99200807D01*
X122706307Y-99187000D01*
X122700437Y-99138495D01*
X122712111Y-99068467D01*
X122736429Y-99034266D01*
X122785225Y-98985470D01*
X122803960Y-98970340D01*
X122805190Y-98969220D01*
X122813940Y-98963571D01*
X122825249Y-98949226D01*
X122834728Y-98937201D01*
X122838676Y-98932759D01*
X122838603Y-98932697D01*
X122841963Y-98928732D01*
X122845638Y-98925057D01*
X122848655Y-98920835D01*
X122848660Y-98920829D01*
X122856862Y-98909350D01*
X122860428Y-98904600D01*
X122878950Y-98881105D01*
X122892156Y-98864353D01*
X122895189Y-98855716D01*
X122900513Y-98848266D01*
X122905489Y-98831629D01*
X122944168Y-98772095D01*
X122955187Y-98764716D01*
X122954936Y-98764371D01*
X122962956Y-98758544D01*
X122971796Y-98754040D01*
X123059040Y-98666796D01*
X123063542Y-98657961D01*
X123078013Y-98629560D01*
X123126761Y-98577944D01*
X123195676Y-98560878D01*
X123262877Y-98583778D01*
X123302547Y-98629559D01*
X123316869Y-98657666D01*
X123328380Y-98673510D01*
X123401490Y-98746620D01*
X123417333Y-98758131D01*
X123509460Y-98805072D01*
X123528087Y-98811124D01*
X123604492Y-98823225D01*
X123614338Y-98824000D01*
X123679885Y-98824000D01*
X123695124Y-98819525D01*
X123696329Y-98818135D01*
X123698000Y-98810452D01*
X123698000Y-98805885D01*
X123952000Y-98805885D01*
X123956475Y-98821124D01*
X123957865Y-98822329D01*
X123965548Y-98824000D01*
X124035662Y-98824000D01*
X124045508Y-98823225D01*
X124121913Y-98811124D01*
X124140540Y-98805072D01*
X124232667Y-98758131D01*
X124248510Y-98746620D01*
X124321620Y-98673510D01*
X124333131Y-98657667D01*
X124380072Y-98565540D01*
X124386124Y-98546913D01*
X124398225Y-98470508D01*
X124399000Y-98460662D01*
X124399000Y-98445115D01*
X124394525Y-98429876D01*
X124393135Y-98428671D01*
X124385452Y-98427000D01*
X123970115Y-98427000D01*
X123954876Y-98431475D01*
X123953671Y-98432865D01*
X123952000Y-98440548D01*
X123952000Y-98805885D01*
X123698000Y-98805885D01*
X123698000Y-98299000D01*
X123718002Y-98230879D01*
X123771658Y-98184386D01*
X123824000Y-98173000D01*
X124380885Y-98173000D01*
X124396124Y-98168525D01*
X124397329Y-98167135D01*
X124399000Y-98159452D01*
X124399000Y-98139338D01*
X124398225Y-98129492D01*
X124386124Y-98053087D01*
X124380072Y-98034460D01*
X124333131Y-97942333D01*
X124321620Y-97926490D01*
X124274578Y-97879448D01*
X124240552Y-97817136D01*
X124245617Y-97746321D01*
X124274578Y-97701258D01*
X124279431Y-97696405D01*
X124341743Y-97662379D01*
X124368526Y-97659500D01*
X124559011Y-97659500D01*
X124627132Y-97679502D01*
G37*
%TD.AperFunction*%
%TA.AperFunction,Conductor*%
G36*
X106508012Y-94345160D02*
G01*
X106514595Y-94351289D01*
X106752249Y-94588943D01*
X106786275Y-94651255D01*
X106788076Y-94694485D01*
X106784212Y-94723835D01*
X106782729Y-94735096D01*
X106800113Y-94892553D01*
X106854553Y-95041319D01*
X106942908Y-95172805D01*
X107060076Y-95279419D01*
X107196761Y-95353633D01*
X107196762Y-95353634D01*
X107199293Y-95355008D01*
X107199064Y-95355430D01*
X107251150Y-95396072D01*
X107274625Y-95463075D01*
X107258148Y-95532134D01*
X107237886Y-95558643D01*
X107172933Y-95623596D01*
X107110621Y-95657622D01*
X107083838Y-95660501D01*
X107013956Y-95660501D01*
X106990792Y-95664170D01*
X106931371Y-95673580D01*
X106931369Y-95673581D01*
X106921573Y-95675132D01*
X106810229Y-95731865D01*
X106721865Y-95820229D01*
X106665132Y-95931573D01*
X106650500Y-96023955D01*
X106650501Y-96366044D01*
X106651276Y-96370937D01*
X106655975Y-96400605D01*
X106665132Y-96458427D01*
X106669635Y-96467264D01*
X106669635Y-96467265D01*
X106681335Y-96490227D01*
X106721865Y-96569771D01*
X106738352Y-96586258D01*
X106772378Y-96648570D01*
X106767313Y-96719385D01*
X106738352Y-96764448D01*
X106729285Y-96773515D01*
X106717774Y-96789358D01*
X106670114Y-96882897D01*
X106664062Y-96901521D01*
X106651775Y-96979103D01*
X106651000Y-96988946D01*
X106651000Y-97009885D01*
X106655475Y-97025124D01*
X106656865Y-97026329D01*
X106664548Y-97028000D01*
X107216000Y-97028000D01*
X107284121Y-97048002D01*
X107330614Y-97101658D01*
X107342000Y-97154000D01*
X107342000Y-97670884D01*
X107346475Y-97686123D01*
X107347865Y-97687328D01*
X107355548Y-97688999D01*
X107411051Y-97688999D01*
X107420900Y-97688224D01*
X107498472Y-97675939D01*
X107517108Y-97669884D01*
X107610642Y-97622226D01*
X107626485Y-97610715D01*
X107700715Y-97536485D01*
X107712226Y-97520642D01*
X107737733Y-97470582D01*
X107786481Y-97418967D01*
X107855396Y-97401901D01*
X107922598Y-97424802D01*
X107962267Y-97470582D01*
X107987774Y-97520642D01*
X107999285Y-97536485D01*
X108073515Y-97610715D01*
X108089358Y-97622226D01*
X108182897Y-97669886D01*
X108201521Y-97675938D01*
X108279103Y-97688225D01*
X108288946Y-97689000D01*
X108339885Y-97689000D01*
X108355124Y-97684525D01*
X108356329Y-97683135D01*
X108358000Y-97675452D01*
X108358000Y-97154000D01*
X108378002Y-97085879D01*
X108431658Y-97039386D01*
X108484000Y-97028000D01*
X108486000Y-97028000D01*
X108554121Y-97048002D01*
X108600614Y-97101658D01*
X108612000Y-97154000D01*
X108612000Y-97670884D01*
X108616475Y-97686123D01*
X108617865Y-97687328D01*
X108625548Y-97688999D01*
X108681051Y-97688999D01*
X108690902Y-97688224D01*
X108705677Y-97685884D01*
X108776088Y-97694985D01*
X108830401Y-97740708D01*
X108840712Y-97762949D01*
X108841004Y-97762809D01*
X108842510Y-97765944D01*
X108845220Y-97772560D01*
X108846476Y-97780106D01*
X108851423Y-97789275D01*
X108851424Y-97789277D01*
X108870814Y-97825212D01*
X108873511Y-97830505D01*
X108892265Y-97869562D01*
X108892268Y-97869566D01*
X108895699Y-97876712D01*
X108899294Y-97880988D01*
X108901217Y-97882911D01*
X108902989Y-97884843D01*
X108903032Y-97884922D01*
X108902908Y-97885035D01*
X108903384Y-97885575D01*
X108906470Y-97891294D01*
X108914115Y-97898361D01*
X108946066Y-97927896D01*
X108949632Y-97931326D01*
X109241613Y-98223307D01*
X109275639Y-98285619D01*
X109270574Y-98356434D01*
X109267091Y-98364528D01*
X109263844Y-98368647D01*
X109260812Y-98377281D01*
X109255486Y-98384734D01*
X109252501Y-98394715D01*
X109240799Y-98433844D01*
X109238964Y-98439492D01*
X109224610Y-98480367D01*
X109221982Y-98487851D01*
X109221500Y-98493416D01*
X109221500Y-98496124D01*
X109221386Y-98498758D01*
X109221357Y-98498856D01*
X109221193Y-98498849D01*
X109221149Y-98499553D01*
X109219287Y-98505778D01*
X109220833Y-98545116D01*
X109221403Y-98559635D01*
X109221500Y-98564582D01*
X109221500Y-98592187D01*
X109201498Y-98660308D01*
X109178330Y-98687135D01*
X109111039Y-98745838D01*
X109019950Y-98875444D01*
X109002255Y-98920829D01*
X108966838Y-99011670D01*
X108962406Y-99023037D01*
X108961414Y-99030570D01*
X108961414Y-99030571D01*
X108943414Y-99167298D01*
X108941729Y-99180096D01*
X108947837Y-99235422D01*
X108956049Y-99309798D01*
X108959113Y-99337553D01*
X108961723Y-99344685D01*
X108968316Y-99362702D01*
X108972941Y-99433548D01*
X108938530Y-99495648D01*
X108876008Y-99529285D01*
X108849989Y-99532001D01*
X108511483Y-99532001D01*
X108443362Y-99511999D01*
X108422388Y-99495096D01*
X107628442Y-98701150D01*
X107594416Y-98638838D01*
X107592794Y-98594302D01*
X107596880Y-98565593D01*
X107596880Y-98565587D01*
X107597461Y-98561508D01*
X107597606Y-98547701D01*
X107578575Y-98390434D01*
X107522579Y-98242247D01*
X107486253Y-98189392D01*
X107437154Y-98117952D01*
X107437153Y-98117950D01*
X107432852Y-98111693D01*
X107423631Y-98103477D01*
X107368327Y-98054204D01*
X107314574Y-98006312D01*
X107307188Y-98002401D01*
X107181287Y-97935740D01*
X107181288Y-97935740D01*
X107174573Y-97932185D01*
X107167210Y-97930336D01*
X107167206Y-97930334D01*
X107120584Y-97918624D01*
X107059388Y-97882630D01*
X107027367Y-97819264D01*
X107034687Y-97748646D01*
X107062493Y-97713870D01*
X107060896Y-97712486D01*
X107086329Y-97683135D01*
X107088000Y-97675452D01*
X107088000Y-97300115D01*
X107083525Y-97284876D01*
X107082135Y-97283671D01*
X107074452Y-97282000D01*
X106669116Y-97282000D01*
X106653877Y-97286475D01*
X106652672Y-97287865D01*
X106651001Y-97295548D01*
X106651001Y-97321051D01*
X106651776Y-97330900D01*
X106664061Y-97408472D01*
X106670116Y-97427108D01*
X106717774Y-97520642D01*
X106729285Y-97536485D01*
X106803515Y-97610715D01*
X106819361Y-97622228D01*
X106889774Y-97658105D01*
X106941390Y-97706853D01*
X106958456Y-97775768D01*
X106935556Y-97842969D01*
X106879958Y-97887122D01*
X106861986Y-97892891D01*
X106715863Y-97927972D01*
X106715861Y-97927973D01*
X106708483Y-97929744D01*
X106567713Y-98002401D01*
X106561996Y-98007388D01*
X106561989Y-98007393D01*
X106508329Y-98054204D01*
X106443847Y-98083912D01*
X106373540Y-98074042D01*
X106319730Y-98027728D01*
X106299500Y-97959255D01*
X106299500Y-94440384D01*
X106319502Y-94372263D01*
X106373158Y-94325770D01*
X106443432Y-94315666D01*
X106508012Y-94345160D01*
G37*
%TD.AperFunction*%
%TA.AperFunction,Conductor*%
G36*
X123559121Y-92953002D02*
G01*
X123605614Y-93006658D01*
X123617000Y-93059000D01*
X123617000Y-93845884D01*
X123621475Y-93861123D01*
X123622865Y-93862328D01*
X123630548Y-93863999D01*
X124559011Y-93863999D01*
X124627132Y-93884001D01*
X124673625Y-93937657D01*
X124685011Y-93989999D01*
X124685011Y-94561105D01*
X124665009Y-94629226D01*
X124648106Y-94650200D01*
X122688961Y-96609345D01*
X122626649Y-96643371D01*
X122555834Y-96638306D01*
X122498998Y-96595759D01*
X122474187Y-96529239D01*
X122477402Y-96495577D01*
X122476993Y-96495519D01*
X122498732Y-96342769D01*
X122498732Y-96342766D01*
X122499313Y-96338685D01*
X122499458Y-96324878D01*
X122480427Y-96167611D01*
X122424431Y-96019424D01*
X122334704Y-95888870D01*
X122261832Y-95823943D01*
X122224277Y-95763694D01*
X122219651Y-95729867D01*
X122219651Y-93990000D01*
X122239653Y-93921879D01*
X122293309Y-93875386D01*
X122345651Y-93864000D01*
X123344885Y-93864000D01*
X123360124Y-93859525D01*
X123361329Y-93858135D01*
X123363000Y-93850452D01*
X123363000Y-93059000D01*
X123383002Y-92990879D01*
X123436658Y-92944386D01*
X123489000Y-92933000D01*
X123491000Y-92933000D01*
X123559121Y-92953002D01*
G37*
%TD.AperFunction*%
%TD*%
M02*
